G04 #@! TF.FileFunction,Legend,Bot*
%FSLAX46Y46*%
G04 Gerber Fmt 4.6, Leading zero omitted, Abs format (unit mm)*
G04 Created by KiCad (PCBNEW (after 2015-mar-04 BZR unknown)-product) date 06/27/15 23:08:47*
%MOMM*%
G01*
G04 APERTURE LIST*
%ADD10C,0.100000*%
%ADD11C,0.250000*%
%ADD12C,0.300000*%
%ADD13C,0.150000*%
%ADD14C,0.152400*%
G04 APERTURE END LIST*
D10*
D11*
X182837619Y-129609286D02*
X183361429Y-129609286D01*
X182837619Y-128942619D01*
X183361429Y-128942619D01*
X183742381Y-128942619D02*
X183742381Y-129942619D01*
X184075715Y-129228333D01*
X184409048Y-129942619D01*
X184409048Y-128942619D01*
X185028095Y-128942619D02*
X184932857Y-128990238D01*
X184885238Y-129037857D01*
X184837619Y-129133095D01*
X184837619Y-129418810D01*
X184885238Y-129514048D01*
X184932857Y-129561667D01*
X185028095Y-129609286D01*
X185170953Y-129609286D01*
X185266191Y-129561667D01*
X185313810Y-129514048D01*
X185361429Y-129418810D01*
X185361429Y-129133095D01*
X185313810Y-129037857D01*
X185266191Y-128990238D01*
X185170953Y-128942619D01*
X185028095Y-128942619D01*
X185647143Y-129609286D02*
X186028095Y-129609286D01*
X185790000Y-129942619D02*
X185790000Y-129085476D01*
X185837619Y-128990238D01*
X185932857Y-128942619D01*
X186028095Y-128942619D01*
X186742382Y-128990238D02*
X186647144Y-128942619D01*
X186456667Y-128942619D01*
X186361429Y-128990238D01*
X186313810Y-129085476D01*
X186313810Y-129466429D01*
X186361429Y-129561667D01*
X186456667Y-129609286D01*
X186647144Y-129609286D01*
X186742382Y-129561667D01*
X186790001Y-129466429D01*
X186790001Y-129371190D01*
X186313810Y-129275952D01*
X187885239Y-129609286D02*
X188123334Y-128942619D01*
X188361430Y-129609286D01*
X189266192Y-128942619D02*
X188694763Y-128942619D01*
X188980477Y-128942619D02*
X188980477Y-129942619D01*
X188885239Y-129799762D01*
X188790001Y-129704524D01*
X188694763Y-129656905D01*
X189694763Y-129037857D02*
X189742382Y-128990238D01*
X189694763Y-128942619D01*
X189647144Y-128990238D01*
X189694763Y-129037857D01*
X189694763Y-128942619D01*
X190361429Y-129942619D02*
X190456668Y-129942619D01*
X190551906Y-129895000D01*
X190599525Y-129847381D01*
X190647144Y-129752143D01*
X190694763Y-129561667D01*
X190694763Y-129323571D01*
X190647144Y-129133095D01*
X190599525Y-129037857D01*
X190551906Y-128990238D01*
X190456668Y-128942619D01*
X190361429Y-128942619D01*
X190266191Y-128990238D01*
X190218572Y-129037857D01*
X190170953Y-129133095D01*
X190123334Y-129323571D01*
X190123334Y-129561667D01*
X190170953Y-129752143D01*
X190218572Y-129847381D01*
X190266191Y-129895000D01*
X190361429Y-129942619D01*
D12*
X182390000Y-140316429D02*
X183175714Y-140316429D01*
X182390000Y-139316429D01*
X183175714Y-139316429D01*
X183747143Y-139316429D02*
X183747143Y-140816429D01*
X184247143Y-139745000D01*
X184747143Y-140816429D01*
X184747143Y-139316429D01*
X185675715Y-139316429D02*
X185532857Y-139387857D01*
X185461429Y-139459286D01*
X185390000Y-139602143D01*
X185390000Y-140030714D01*
X185461429Y-140173571D01*
X185532857Y-140245000D01*
X185675715Y-140316429D01*
X185890000Y-140316429D01*
X186032857Y-140245000D01*
X186104286Y-140173571D01*
X186175715Y-140030714D01*
X186175715Y-139602143D01*
X186104286Y-139459286D01*
X186032857Y-139387857D01*
X185890000Y-139316429D01*
X185675715Y-139316429D01*
X186604286Y-140316429D02*
X187175715Y-140316429D01*
X186818572Y-140816429D02*
X186818572Y-139530714D01*
X186890000Y-139387857D01*
X187032858Y-139316429D01*
X187175715Y-139316429D01*
X188247143Y-139387857D02*
X188104286Y-139316429D01*
X187818572Y-139316429D01*
X187675715Y-139387857D01*
X187604286Y-139530714D01*
X187604286Y-140102143D01*
X187675715Y-140245000D01*
X187818572Y-140316429D01*
X188104286Y-140316429D01*
X188247143Y-140245000D01*
X188318572Y-140102143D01*
X188318572Y-139959286D01*
X187604286Y-139816429D01*
X182190000Y-110516429D02*
X182975714Y-110516429D01*
X182190000Y-109516429D01*
X182975714Y-109516429D01*
X183547143Y-109516429D02*
X183547143Y-111016429D01*
X184047143Y-109945000D01*
X184547143Y-111016429D01*
X184547143Y-109516429D01*
X185475715Y-109516429D02*
X185332857Y-109587857D01*
X185261429Y-109659286D01*
X185190000Y-109802143D01*
X185190000Y-110230714D01*
X185261429Y-110373571D01*
X185332857Y-110445000D01*
X185475715Y-110516429D01*
X185690000Y-110516429D01*
X185832857Y-110445000D01*
X185904286Y-110373571D01*
X185975715Y-110230714D01*
X185975715Y-109802143D01*
X185904286Y-109659286D01*
X185832857Y-109587857D01*
X185690000Y-109516429D01*
X185475715Y-109516429D01*
X186404286Y-110516429D02*
X186975715Y-110516429D01*
X186618572Y-111016429D02*
X186618572Y-109730714D01*
X186690000Y-109587857D01*
X186832858Y-109516429D01*
X186975715Y-109516429D01*
X188047143Y-109587857D02*
X187904286Y-109516429D01*
X187618572Y-109516429D01*
X187475715Y-109587857D01*
X187404286Y-109730714D01*
X187404286Y-110302143D01*
X187475715Y-110445000D01*
X187618572Y-110516429D01*
X187904286Y-110516429D01*
X188047143Y-110445000D01*
X188118572Y-110302143D01*
X188118572Y-110159286D01*
X187404286Y-110016429D01*
D11*
X182137619Y-120809286D02*
X182661429Y-120809286D01*
X182137619Y-120142619D01*
X182661429Y-120142619D01*
X183042381Y-120142619D02*
X183042381Y-121142619D01*
X183375715Y-120428333D01*
X183709048Y-121142619D01*
X183709048Y-120142619D01*
X184328095Y-120142619D02*
X184232857Y-120190238D01*
X184185238Y-120237857D01*
X184137619Y-120333095D01*
X184137619Y-120618810D01*
X184185238Y-120714048D01*
X184232857Y-120761667D01*
X184328095Y-120809286D01*
X184470953Y-120809286D01*
X184566191Y-120761667D01*
X184613810Y-120714048D01*
X184661429Y-120618810D01*
X184661429Y-120333095D01*
X184613810Y-120237857D01*
X184566191Y-120190238D01*
X184470953Y-120142619D01*
X184328095Y-120142619D01*
X184947143Y-120809286D02*
X185328095Y-120809286D01*
X185090000Y-121142619D02*
X185090000Y-120285476D01*
X185137619Y-120190238D01*
X185232857Y-120142619D01*
X185328095Y-120142619D01*
X186042382Y-120190238D02*
X185947144Y-120142619D01*
X185756667Y-120142619D01*
X185661429Y-120190238D01*
X185613810Y-120285476D01*
X185613810Y-120666429D01*
X185661429Y-120761667D01*
X185756667Y-120809286D01*
X185947144Y-120809286D01*
X186042382Y-120761667D01*
X186090001Y-120666429D01*
X186090001Y-120571190D01*
X185613810Y-120475952D01*
X187185239Y-120809286D02*
X187423334Y-120142619D01*
X187661430Y-120809286D01*
X188566192Y-120142619D02*
X187994763Y-120142619D01*
X188280477Y-120142619D02*
X188280477Y-121142619D01*
X188185239Y-120999762D01*
X188090001Y-120904524D01*
X187994763Y-120856905D01*
X188994763Y-120237857D02*
X189042382Y-120190238D01*
X188994763Y-120142619D01*
X188947144Y-120190238D01*
X188994763Y-120237857D01*
X188994763Y-120142619D01*
X189661429Y-121142619D02*
X189756668Y-121142619D01*
X189851906Y-121095000D01*
X189899525Y-121047381D01*
X189947144Y-120952143D01*
X189994763Y-120761667D01*
X189994763Y-120523571D01*
X189947144Y-120333095D01*
X189899525Y-120237857D01*
X189851906Y-120190238D01*
X189756668Y-120142619D01*
X189661429Y-120142619D01*
X189566191Y-120190238D01*
X189518572Y-120237857D01*
X189470953Y-120333095D01*
X189423334Y-120523571D01*
X189423334Y-120761667D01*
X189470953Y-120952143D01*
X189518572Y-121047381D01*
X189566191Y-121095000D01*
X189661429Y-121142619D01*
X167942381Y-129280714D02*
X167418571Y-129280714D01*
X167942381Y-129947381D01*
X167418571Y-129947381D01*
X167037619Y-129947381D02*
X167037619Y-128947381D01*
X166704285Y-129661667D01*
X166370952Y-128947381D01*
X166370952Y-129947381D01*
X165751905Y-129947381D02*
X165847143Y-129899762D01*
X165894762Y-129852143D01*
X165942381Y-129756905D01*
X165942381Y-129471190D01*
X165894762Y-129375952D01*
X165847143Y-129328333D01*
X165751905Y-129280714D01*
X165609047Y-129280714D01*
X165513809Y-129328333D01*
X165466190Y-129375952D01*
X165418571Y-129471190D01*
X165418571Y-129756905D01*
X165466190Y-129852143D01*
X165513809Y-129899762D01*
X165609047Y-129947381D01*
X165751905Y-129947381D01*
X165132857Y-129280714D02*
X164751905Y-129280714D01*
X164990000Y-128947381D02*
X164990000Y-129804524D01*
X164942381Y-129899762D01*
X164847143Y-129947381D01*
X164751905Y-129947381D01*
X164037618Y-129899762D02*
X164132856Y-129947381D01*
X164323333Y-129947381D01*
X164418571Y-129899762D01*
X164466190Y-129804524D01*
X164466190Y-129423571D01*
X164418571Y-129328333D01*
X164323333Y-129280714D01*
X164132856Y-129280714D01*
X164037618Y-129328333D01*
X163989999Y-129423571D01*
X163989999Y-129518810D01*
X164466190Y-129614048D01*
X162894761Y-129280714D02*
X162656666Y-129947381D01*
X162418570Y-129280714D01*
X161513808Y-129947381D02*
X162085237Y-129947381D01*
X161799523Y-129947381D02*
X161799523Y-128947381D01*
X161894761Y-129090238D01*
X161989999Y-129185476D01*
X162085237Y-129233095D01*
X161085237Y-129852143D02*
X161037618Y-129899762D01*
X161085237Y-129947381D01*
X161132856Y-129899762D01*
X161085237Y-129852143D01*
X161085237Y-129947381D01*
X160418571Y-128947381D02*
X160323332Y-128947381D01*
X160228094Y-128995000D01*
X160180475Y-129042619D01*
X160132856Y-129137857D01*
X160085237Y-129328333D01*
X160085237Y-129566429D01*
X160132856Y-129756905D01*
X160180475Y-129852143D01*
X160228094Y-129899762D01*
X160323332Y-129947381D01*
X160418571Y-129947381D01*
X160513809Y-129899762D01*
X160561428Y-129852143D01*
X160609047Y-129756905D01*
X160656666Y-129566429D01*
X160656666Y-129328333D01*
X160609047Y-129137857D01*
X160561428Y-129042619D01*
X160513809Y-128995000D01*
X160418571Y-128947381D01*
D12*
X167890000Y-139573571D02*
X167104286Y-139573571D01*
X167890000Y-140573571D01*
X167104286Y-140573571D01*
X166532857Y-140573571D02*
X166532857Y-139073571D01*
X166032857Y-140145000D01*
X165532857Y-139073571D01*
X165532857Y-140573571D01*
X164604285Y-140573571D02*
X164747143Y-140502143D01*
X164818571Y-140430714D01*
X164890000Y-140287857D01*
X164890000Y-139859286D01*
X164818571Y-139716429D01*
X164747143Y-139645000D01*
X164604285Y-139573571D01*
X164390000Y-139573571D01*
X164247143Y-139645000D01*
X164175714Y-139716429D01*
X164104285Y-139859286D01*
X164104285Y-140287857D01*
X164175714Y-140430714D01*
X164247143Y-140502143D01*
X164390000Y-140573571D01*
X164604285Y-140573571D01*
X163675714Y-139573571D02*
X163104285Y-139573571D01*
X163461428Y-139073571D02*
X163461428Y-140359286D01*
X163390000Y-140502143D01*
X163247142Y-140573571D01*
X163104285Y-140573571D01*
X162032857Y-140502143D02*
X162175714Y-140573571D01*
X162461428Y-140573571D01*
X162604285Y-140502143D01*
X162675714Y-140359286D01*
X162675714Y-139787857D01*
X162604285Y-139645000D01*
X162461428Y-139573571D01*
X162175714Y-139573571D01*
X162032857Y-139645000D01*
X161961428Y-139787857D01*
X161961428Y-139930714D01*
X162675714Y-140073571D01*
X167690000Y-109773571D02*
X166904286Y-109773571D01*
X167690000Y-110773571D01*
X166904286Y-110773571D01*
X166332857Y-110773571D02*
X166332857Y-109273571D01*
X165832857Y-110345000D01*
X165332857Y-109273571D01*
X165332857Y-110773571D01*
X164404285Y-110773571D02*
X164547143Y-110702143D01*
X164618571Y-110630714D01*
X164690000Y-110487857D01*
X164690000Y-110059286D01*
X164618571Y-109916429D01*
X164547143Y-109845000D01*
X164404285Y-109773571D01*
X164190000Y-109773571D01*
X164047143Y-109845000D01*
X163975714Y-109916429D01*
X163904285Y-110059286D01*
X163904285Y-110487857D01*
X163975714Y-110630714D01*
X164047143Y-110702143D01*
X164190000Y-110773571D01*
X164404285Y-110773571D01*
X163475714Y-109773571D02*
X162904285Y-109773571D01*
X163261428Y-109273571D02*
X163261428Y-110559286D01*
X163190000Y-110702143D01*
X163047142Y-110773571D01*
X162904285Y-110773571D01*
X161832857Y-110702143D02*
X161975714Y-110773571D01*
X162261428Y-110773571D01*
X162404285Y-110702143D01*
X162475714Y-110559286D01*
X162475714Y-109987857D01*
X162404285Y-109845000D01*
X162261428Y-109773571D01*
X161975714Y-109773571D01*
X161832857Y-109845000D01*
X161761428Y-109987857D01*
X161761428Y-110130714D01*
X162475714Y-110273571D01*
D11*
X167242381Y-120480714D02*
X166718571Y-120480714D01*
X167242381Y-121147381D01*
X166718571Y-121147381D01*
X166337619Y-121147381D02*
X166337619Y-120147381D01*
X166004285Y-120861667D01*
X165670952Y-120147381D01*
X165670952Y-121147381D01*
X165051905Y-121147381D02*
X165147143Y-121099762D01*
X165194762Y-121052143D01*
X165242381Y-120956905D01*
X165242381Y-120671190D01*
X165194762Y-120575952D01*
X165147143Y-120528333D01*
X165051905Y-120480714D01*
X164909047Y-120480714D01*
X164813809Y-120528333D01*
X164766190Y-120575952D01*
X164718571Y-120671190D01*
X164718571Y-120956905D01*
X164766190Y-121052143D01*
X164813809Y-121099762D01*
X164909047Y-121147381D01*
X165051905Y-121147381D01*
X164432857Y-120480714D02*
X164051905Y-120480714D01*
X164290000Y-120147381D02*
X164290000Y-121004524D01*
X164242381Y-121099762D01*
X164147143Y-121147381D01*
X164051905Y-121147381D01*
X163337618Y-121099762D02*
X163432856Y-121147381D01*
X163623333Y-121147381D01*
X163718571Y-121099762D01*
X163766190Y-121004524D01*
X163766190Y-120623571D01*
X163718571Y-120528333D01*
X163623333Y-120480714D01*
X163432856Y-120480714D01*
X163337618Y-120528333D01*
X163289999Y-120623571D01*
X163289999Y-120718810D01*
X163766190Y-120814048D01*
X162194761Y-120480714D02*
X161956666Y-121147381D01*
X161718570Y-120480714D01*
X160813808Y-121147381D02*
X161385237Y-121147381D01*
X161099523Y-121147381D02*
X161099523Y-120147381D01*
X161194761Y-120290238D01*
X161289999Y-120385476D01*
X161385237Y-120433095D01*
X160385237Y-121052143D02*
X160337618Y-121099762D01*
X160385237Y-121147381D01*
X160432856Y-121099762D01*
X160385237Y-121052143D01*
X160385237Y-121147381D01*
X159718571Y-120147381D02*
X159623332Y-120147381D01*
X159528094Y-120195000D01*
X159480475Y-120242619D01*
X159432856Y-120337857D01*
X159385237Y-120528333D01*
X159385237Y-120766429D01*
X159432856Y-120956905D01*
X159480475Y-121052143D01*
X159528094Y-121099762D01*
X159623332Y-121147381D01*
X159718571Y-121147381D01*
X159813809Y-121099762D01*
X159861428Y-121052143D01*
X159909047Y-120956905D01*
X159956666Y-120766429D01*
X159956666Y-120528333D01*
X159909047Y-120337857D01*
X159861428Y-120242619D01*
X159813809Y-120195000D01*
X159718571Y-120147381D01*
D13*
X174262540Y-143440900D02*
X174262540Y-134740900D01*
X180667540Y-143440900D02*
X180667540Y-134740900D01*
X180667540Y-134740900D02*
X174262540Y-134740900D01*
X175492540Y-134740900D02*
X175492540Y-143440900D01*
X174262540Y-143440900D02*
X180667540Y-143440900D01*
X195440000Y-101145000D02*
X195440000Y-104145000D01*
X197940000Y-104145000D02*
X197940000Y-101145000D01*
X197520000Y-105225000D02*
X197520000Y-100145000D01*
X197520000Y-100145000D02*
X200060000Y-100145000D01*
X200060000Y-100145000D02*
X200060000Y-105225000D01*
X200340000Y-108045000D02*
X200340000Y-106495000D01*
X200060000Y-105225000D02*
X197520000Y-105225000D01*
X197240000Y-106495000D02*
X197240000Y-108045000D01*
X197240000Y-108045000D02*
X200340000Y-108045000D01*
X186620000Y-113795000D02*
X183220000Y-113795000D01*
X186617056Y-113792056D02*
G75*
G03X184920000Y-109695000I-1697056J1697056D01*
G01*
X183222944Y-113792056D02*
G75*
G02X184920000Y-109695000I1697056J1697056D01*
G01*
X174162540Y-115350900D02*
X174162540Y-106650900D01*
X180567540Y-115350900D02*
X180567540Y-106650900D01*
X180567540Y-106650900D02*
X174162540Y-106650900D01*
X175392540Y-106650900D02*
X175392540Y-115350900D01*
X174162540Y-115350900D02*
X180567540Y-115350900D01*
X185615000Y-104194000D02*
X185615000Y-99196000D01*
X185755000Y-104186000D02*
X185755000Y-99204000D01*
X185895000Y-104170000D02*
X185895000Y-101790000D01*
X185895000Y-101600000D02*
X185895000Y-99220000D01*
X186035000Y-104146000D02*
X186035000Y-102185000D01*
X186035000Y-101205000D02*
X186035000Y-99244000D01*
X186175000Y-104113000D02*
X186175000Y-102352000D01*
X186175000Y-101038000D02*
X186175000Y-99277000D01*
X186315000Y-104072000D02*
X186315000Y-102459000D01*
X186315000Y-100931000D02*
X186315000Y-99318000D01*
X186455000Y-104022000D02*
X186455000Y-102530000D01*
X186455000Y-100860000D02*
X186455000Y-99368000D01*
X186595000Y-103961000D02*
X186595000Y-102574000D01*
X186595000Y-100816000D02*
X186595000Y-99429000D01*
X186735000Y-103891000D02*
X186735000Y-102593000D01*
X186735000Y-100797000D02*
X186735000Y-99499000D01*
X186875000Y-103809000D02*
X186875000Y-102591000D01*
X186875000Y-100799000D02*
X186875000Y-99581000D01*
X187015000Y-103714000D02*
X187015000Y-102566000D01*
X187015000Y-100824000D02*
X187015000Y-99676000D01*
X187155000Y-103603000D02*
X187155000Y-102518000D01*
X187155000Y-100872000D02*
X187155000Y-99787000D01*
X187295000Y-103475000D02*
X187295000Y-102440000D01*
X187295000Y-100950000D02*
X187295000Y-99915000D01*
X187435000Y-103326000D02*
X187435000Y-102323000D01*
X187435000Y-101067000D02*
X187435000Y-100064000D01*
X187575000Y-103147000D02*
X187575000Y-102135000D01*
X187575000Y-101255000D02*
X187575000Y-100243000D01*
X187715000Y-102928000D02*
X187715000Y-100462000D01*
X187855000Y-102639000D02*
X187855000Y-100751000D01*
X187995000Y-102167000D02*
X187995000Y-101223000D01*
X187690000Y-101695000D02*
G75*
G03X187690000Y-101695000I-900000J0D01*
G01*
X188077500Y-101695000D02*
G75*
G03X188077500Y-101695000I-2537500J0D01*
G01*
X189365000Y-99196000D02*
X189365000Y-104194000D01*
X189225000Y-99204000D02*
X189225000Y-104186000D01*
X189085000Y-99220000D02*
X189085000Y-101600000D01*
X189085000Y-101790000D02*
X189085000Y-104170000D01*
X188945000Y-99244000D02*
X188945000Y-101205000D01*
X188945000Y-102185000D02*
X188945000Y-104146000D01*
X188805000Y-99277000D02*
X188805000Y-101038000D01*
X188805000Y-102352000D02*
X188805000Y-104113000D01*
X188665000Y-99318000D02*
X188665000Y-100931000D01*
X188665000Y-102459000D02*
X188665000Y-104072000D01*
X188525000Y-99368000D02*
X188525000Y-100860000D01*
X188525000Y-102530000D02*
X188525000Y-104022000D01*
X188385000Y-99429000D02*
X188385000Y-100816000D01*
X188385000Y-102574000D02*
X188385000Y-103961000D01*
X188245000Y-99499000D02*
X188245000Y-100797000D01*
X188245000Y-102593000D02*
X188245000Y-103891000D01*
X188105000Y-99581000D02*
X188105000Y-100799000D01*
X188105000Y-102591000D02*
X188105000Y-103809000D01*
X187965000Y-99676000D02*
X187965000Y-100824000D01*
X187965000Y-102566000D02*
X187965000Y-103714000D01*
X187825000Y-99787000D02*
X187825000Y-100872000D01*
X187825000Y-102518000D02*
X187825000Y-103603000D01*
X187685000Y-99915000D02*
X187685000Y-100950000D01*
X187685000Y-102440000D02*
X187685000Y-103475000D01*
X187545000Y-100064000D02*
X187545000Y-101067000D01*
X187545000Y-102323000D02*
X187545000Y-103326000D01*
X187405000Y-100243000D02*
X187405000Y-101255000D01*
X187405000Y-102135000D02*
X187405000Y-103147000D01*
X187265000Y-100462000D02*
X187265000Y-102928000D01*
X187125000Y-100751000D02*
X187125000Y-102639000D01*
X186985000Y-101223000D02*
X186985000Y-102167000D01*
X189090000Y-101695000D02*
G75*
G03X189090000Y-101695000I-900000J0D01*
G01*
X191977500Y-101695000D02*
G75*
G03X191977500Y-101695000I-2537500J0D01*
G01*
X192640000Y-118245000D02*
X189640000Y-118245000D01*
X189640000Y-120745000D02*
X192640000Y-120745000D01*
X190540000Y-113945000D02*
X190540000Y-116945000D01*
X193040000Y-116945000D02*
X193040000Y-113945000D01*
D14*
X196266000Y-120521000D02*
X193726000Y-120521000D01*
X193726000Y-120521000D02*
X193726000Y-117981000D01*
X193726000Y-117981000D02*
X193726000Y-110361000D01*
X193726000Y-110361000D02*
X198806000Y-110361000D01*
X198806000Y-110361000D02*
X198806000Y-120521000D01*
X198806000Y-120521000D02*
X196266000Y-120521000D01*
D13*
X184040000Y-115945000D02*
X184040000Y-117495000D01*
X187140000Y-117495000D02*
X187140000Y-115945000D01*
X187140000Y-115945000D02*
X184040000Y-115945000D01*
X186860000Y-118765000D02*
X184320000Y-118765000D01*
X184490000Y-102245000D02*
X182940000Y-102245000D01*
X182940000Y-102245000D02*
X182940000Y-105345000D01*
X182940000Y-105345000D02*
X184490000Y-105345000D01*
X185760000Y-105065000D02*
X195920000Y-105065000D01*
X195920000Y-105065000D02*
X195920000Y-102525000D01*
X195920000Y-102525000D02*
X185760000Y-102525000D01*
X185760000Y-105065000D02*
X185760000Y-102525000D01*
X188120000Y-106255000D02*
X188120000Y-108795000D01*
X188120000Y-108795000D02*
X190660000Y-108795000D01*
X190660000Y-108795000D02*
X190660000Y-106255000D01*
X190660000Y-106255000D02*
X188120000Y-106255000D01*
X184860000Y-108335000D02*
X184860000Y-105795000D01*
X184860000Y-105795000D02*
X182320000Y-105795000D01*
X182320000Y-105795000D02*
X182320000Y-108335000D01*
X182320000Y-108335000D02*
X184860000Y-108335000D01*
X191930000Y-110325000D02*
X189390000Y-110325000D01*
X189390000Y-110325000D02*
X189390000Y-112865000D01*
X189390000Y-112865000D02*
X191930000Y-112865000D01*
X191930000Y-112865000D02*
X191930000Y-110325000D01*
X195460000Y-108335000D02*
X195460000Y-105795000D01*
X195460000Y-105795000D02*
X192920000Y-105795000D01*
X192920000Y-105795000D02*
X192920000Y-108335000D01*
X192920000Y-108335000D02*
X195460000Y-108335000D01*
X190860000Y-116835000D02*
X190860000Y-114295000D01*
X190860000Y-114295000D02*
X188320000Y-114295000D01*
X188320000Y-114295000D02*
X188320000Y-116835000D01*
X188320000Y-116835000D02*
X190860000Y-116835000D01*
X190620000Y-106255000D02*
X190620000Y-108795000D01*
X190620000Y-108795000D02*
X193160000Y-108795000D01*
X193160000Y-108795000D02*
X193160000Y-106255000D01*
X193160000Y-106255000D02*
X190620000Y-106255000D01*
X187530000Y-113025000D02*
X184990000Y-113025000D01*
X184990000Y-113025000D02*
X184990000Y-115565000D01*
X184990000Y-115565000D02*
X187530000Y-115565000D01*
X187530000Y-115565000D02*
X187530000Y-113025000D01*
X162550000Y-137065000D02*
X165090000Y-137065000D01*
X165090000Y-137065000D02*
X165090000Y-134525000D01*
X165090000Y-134525000D02*
X162550000Y-134525000D01*
X162550000Y-134525000D02*
X162550000Y-137065000D01*
X159460000Y-143835000D02*
X159460000Y-141295000D01*
X159460000Y-141295000D02*
X156920000Y-141295000D01*
X156920000Y-141295000D02*
X156920000Y-143835000D01*
X156920000Y-143835000D02*
X159460000Y-143835000D01*
X159220000Y-133255000D02*
X159220000Y-135795000D01*
X159220000Y-135795000D02*
X161760000Y-135795000D01*
X161760000Y-135795000D02*
X161760000Y-133255000D01*
X161760000Y-133255000D02*
X159220000Y-133255000D01*
X154520000Y-142055000D02*
X154520000Y-144595000D01*
X154520000Y-144595000D02*
X157060000Y-144595000D01*
X157060000Y-144595000D02*
X157060000Y-142055000D01*
X157060000Y-142055000D02*
X154520000Y-142055000D01*
X158150000Y-139765000D02*
X160690000Y-139765000D01*
X160690000Y-139765000D02*
X160690000Y-137225000D01*
X160690000Y-137225000D02*
X158150000Y-137225000D01*
X158150000Y-137225000D02*
X158150000Y-139765000D01*
X165220000Y-141755000D02*
X165220000Y-144295000D01*
X165220000Y-144295000D02*
X167760000Y-144295000D01*
X167760000Y-144295000D02*
X167760000Y-141755000D01*
X167760000Y-141755000D02*
X165220000Y-141755000D01*
X161960000Y-143835000D02*
X161960000Y-141295000D01*
X161960000Y-141295000D02*
X159420000Y-141295000D01*
X159420000Y-141295000D02*
X159420000Y-143835000D01*
X159420000Y-143835000D02*
X161960000Y-143835000D01*
X165590000Y-147845000D02*
X167140000Y-147845000D01*
X167140000Y-147845000D02*
X167140000Y-144745000D01*
X167140000Y-144745000D02*
X165590000Y-144745000D01*
X164320000Y-145025000D02*
X154160000Y-145025000D01*
X154160000Y-145025000D02*
X154160000Y-147565000D01*
X154160000Y-147565000D02*
X164320000Y-147565000D01*
X164320000Y-145025000D02*
X164320000Y-147565000D01*
X166040000Y-134145000D02*
X166040000Y-132595000D01*
X162940000Y-132595000D02*
X162940000Y-134145000D01*
X162940000Y-134145000D02*
X166040000Y-134145000D01*
X163220000Y-131325000D02*
X165760000Y-131325000D01*
D14*
X153814000Y-129569000D02*
X156354000Y-129569000D01*
X156354000Y-129569000D02*
X156354000Y-132109000D01*
X156354000Y-132109000D02*
X156354000Y-139729000D01*
X156354000Y-139729000D02*
X151274000Y-139729000D01*
X151274000Y-139729000D02*
X151274000Y-129569000D01*
X151274000Y-129569000D02*
X153814000Y-129569000D01*
D13*
X159540000Y-136145000D02*
X159540000Y-133145000D01*
X157040000Y-133145000D02*
X157040000Y-136145000D01*
X157440000Y-131845000D02*
X160440000Y-131845000D01*
X160440000Y-129345000D02*
X157440000Y-129345000D01*
X160715000Y-150894000D02*
X160715000Y-145896000D01*
X160855000Y-150886000D02*
X160855000Y-145904000D01*
X160995000Y-150870000D02*
X160995000Y-148490000D01*
X160995000Y-148300000D02*
X160995000Y-145920000D01*
X161135000Y-150846000D02*
X161135000Y-148885000D01*
X161135000Y-147905000D02*
X161135000Y-145944000D01*
X161275000Y-150813000D02*
X161275000Y-149052000D01*
X161275000Y-147738000D02*
X161275000Y-145977000D01*
X161415000Y-150772000D02*
X161415000Y-149159000D01*
X161415000Y-147631000D02*
X161415000Y-146018000D01*
X161555000Y-150722000D02*
X161555000Y-149230000D01*
X161555000Y-147560000D02*
X161555000Y-146068000D01*
X161695000Y-150661000D02*
X161695000Y-149274000D01*
X161695000Y-147516000D02*
X161695000Y-146129000D01*
X161835000Y-150591000D02*
X161835000Y-149293000D01*
X161835000Y-147497000D02*
X161835000Y-146199000D01*
X161975000Y-150509000D02*
X161975000Y-149291000D01*
X161975000Y-147499000D02*
X161975000Y-146281000D01*
X162115000Y-150414000D02*
X162115000Y-149266000D01*
X162115000Y-147524000D02*
X162115000Y-146376000D01*
X162255000Y-150303000D02*
X162255000Y-149218000D01*
X162255000Y-147572000D02*
X162255000Y-146487000D01*
X162395000Y-150175000D02*
X162395000Y-149140000D01*
X162395000Y-147650000D02*
X162395000Y-146615000D01*
X162535000Y-150026000D02*
X162535000Y-149023000D01*
X162535000Y-147767000D02*
X162535000Y-146764000D01*
X162675000Y-149847000D02*
X162675000Y-148835000D01*
X162675000Y-147955000D02*
X162675000Y-146943000D01*
X162815000Y-149628000D02*
X162815000Y-147162000D01*
X162955000Y-149339000D02*
X162955000Y-147451000D01*
X163095000Y-148867000D02*
X163095000Y-147923000D01*
X162790000Y-148395000D02*
G75*
G03X162790000Y-148395000I-900000J0D01*
G01*
X163177500Y-148395000D02*
G75*
G03X163177500Y-148395000I-2537500J0D01*
G01*
X164465000Y-145896000D02*
X164465000Y-150894000D01*
X164325000Y-145904000D02*
X164325000Y-150886000D01*
X164185000Y-145920000D02*
X164185000Y-148300000D01*
X164185000Y-148490000D02*
X164185000Y-150870000D01*
X164045000Y-145944000D02*
X164045000Y-147905000D01*
X164045000Y-148885000D02*
X164045000Y-150846000D01*
X163905000Y-145977000D02*
X163905000Y-147738000D01*
X163905000Y-149052000D02*
X163905000Y-150813000D01*
X163765000Y-146018000D02*
X163765000Y-147631000D01*
X163765000Y-149159000D02*
X163765000Y-150772000D01*
X163625000Y-146068000D02*
X163625000Y-147560000D01*
X163625000Y-149230000D02*
X163625000Y-150722000D01*
X163485000Y-146129000D02*
X163485000Y-147516000D01*
X163485000Y-149274000D02*
X163485000Y-150661000D01*
X163345000Y-146199000D02*
X163345000Y-147497000D01*
X163345000Y-149293000D02*
X163345000Y-150591000D01*
X163205000Y-146281000D02*
X163205000Y-147499000D01*
X163205000Y-149291000D02*
X163205000Y-150509000D01*
X163065000Y-146376000D02*
X163065000Y-147524000D01*
X163065000Y-149266000D02*
X163065000Y-150414000D01*
X162925000Y-146487000D02*
X162925000Y-147572000D01*
X162925000Y-149218000D02*
X162925000Y-150303000D01*
X162785000Y-146615000D02*
X162785000Y-147650000D01*
X162785000Y-149140000D02*
X162785000Y-150175000D01*
X162645000Y-146764000D02*
X162645000Y-147767000D01*
X162645000Y-149023000D02*
X162645000Y-150026000D01*
X162505000Y-146943000D02*
X162505000Y-147955000D01*
X162505000Y-148835000D02*
X162505000Y-149847000D01*
X162365000Y-147162000D02*
X162365000Y-149628000D01*
X162225000Y-147451000D02*
X162225000Y-149339000D01*
X162085000Y-147923000D02*
X162085000Y-148867000D01*
X164190000Y-148395000D02*
G75*
G03X164190000Y-148395000I-900000J0D01*
G01*
X167077500Y-148395000D02*
G75*
G03X167077500Y-148395000I-2537500J0D01*
G01*
X175917460Y-134739100D02*
X175917460Y-143439100D01*
X169512460Y-134739100D02*
X169512460Y-143439100D01*
X169512460Y-143439100D02*
X175917460Y-143439100D01*
X174687460Y-143439100D02*
X174687460Y-134739100D01*
X175917460Y-134739100D02*
X169512460Y-134739100D01*
X163460000Y-136295000D02*
X166860000Y-136295000D01*
X163462944Y-136297944D02*
G75*
G03X165160000Y-140395000I1697056J-1697056D01*
G01*
X166857056Y-136297944D02*
G75*
G02X165160000Y-140395000I-1697056J-1697056D01*
G01*
X152560000Y-144865000D02*
X152560000Y-149945000D01*
X152560000Y-149945000D02*
X150020000Y-149945000D01*
X150020000Y-149945000D02*
X150020000Y-144865000D01*
X149740000Y-142045000D02*
X149740000Y-143595000D01*
X150020000Y-144865000D02*
X152560000Y-144865000D01*
X152840000Y-143595000D02*
X152840000Y-142045000D01*
X152840000Y-142045000D02*
X149740000Y-142045000D01*
X154640000Y-148945000D02*
X154640000Y-145945000D01*
X152140000Y-145945000D02*
X152140000Y-148945000D01*
X175817460Y-106649100D02*
X175817460Y-115349100D01*
X169412460Y-106649100D02*
X169412460Y-115349100D01*
X169412460Y-115349100D02*
X175817460Y-115349100D01*
X174587460Y-115349100D02*
X174587460Y-106649100D01*
X175817460Y-106649100D02*
X169412460Y-106649100D01*
X196609143Y-102460334D02*
X196656762Y-102412715D01*
X196704381Y-102269858D01*
X196704381Y-102174620D01*
X196656762Y-102031762D01*
X196561524Y-101936524D01*
X196466286Y-101888905D01*
X196275810Y-101841286D01*
X196132952Y-101841286D01*
X195942476Y-101888905D01*
X195847238Y-101936524D01*
X195752000Y-102031762D01*
X195704381Y-102174620D01*
X195704381Y-102269858D01*
X195752000Y-102412715D01*
X195799619Y-102460334D01*
X196704381Y-103412715D02*
X196704381Y-102841286D01*
X196704381Y-103127000D02*
X195704381Y-103127000D01*
X195847238Y-103031762D01*
X195942476Y-102936524D01*
X195990095Y-102841286D01*
X199381905Y-107972381D02*
X199381905Y-108781905D01*
X199334286Y-108877143D01*
X199286667Y-108924762D01*
X199191429Y-108972381D01*
X199000952Y-108972381D01*
X198905714Y-108924762D01*
X198858095Y-108877143D01*
X198810476Y-108781905D01*
X198810476Y-107972381D01*
X197810476Y-108972381D02*
X198381905Y-108972381D01*
X198096191Y-108972381D02*
X198096191Y-107972381D01*
X198191429Y-108115238D01*
X198286667Y-108210476D01*
X198381905Y-108258095D01*
X182385238Y-113942619D02*
X182480476Y-113895000D01*
X182575714Y-113799762D01*
X182718571Y-113656905D01*
X182813810Y-113609286D01*
X182909048Y-113609286D01*
X182861429Y-113847381D02*
X182956667Y-113799762D01*
X183051905Y-113704524D01*
X183099524Y-113514048D01*
X183099524Y-113180714D01*
X183051905Y-112990238D01*
X182956667Y-112895000D01*
X182861429Y-112847381D01*
X182670952Y-112847381D01*
X182575714Y-112895000D01*
X182480476Y-112990238D01*
X182432857Y-113180714D01*
X182432857Y-113514048D01*
X182480476Y-113704524D01*
X182575714Y-113799762D01*
X182670952Y-113847381D01*
X182861429Y-113847381D01*
X182051905Y-112942619D02*
X182004286Y-112895000D01*
X181909048Y-112847381D01*
X181670952Y-112847381D01*
X181575714Y-112895000D01*
X181528095Y-112942619D01*
X181480476Y-113037857D01*
X181480476Y-113133095D01*
X181528095Y-113275952D01*
X182099524Y-113847381D01*
X181480476Y-113847381D01*
X185856666Y-102152143D02*
X185904285Y-102199762D01*
X186047142Y-102247381D01*
X186142380Y-102247381D01*
X186285238Y-102199762D01*
X186380476Y-102104524D01*
X186428095Y-102009286D01*
X186475714Y-101818810D01*
X186475714Y-101675952D01*
X186428095Y-101485476D01*
X186380476Y-101390238D01*
X186285238Y-101295000D01*
X186142380Y-101247381D01*
X186047142Y-101247381D01*
X185904285Y-101295000D01*
X185856666Y-101342619D01*
X184951904Y-101247381D02*
X185428095Y-101247381D01*
X185475714Y-101723571D01*
X185428095Y-101675952D01*
X185332857Y-101628333D01*
X185094761Y-101628333D01*
X184999523Y-101675952D01*
X184951904Y-101723571D01*
X184904285Y-101818810D01*
X184904285Y-102056905D01*
X184951904Y-102152143D01*
X184999523Y-102199762D01*
X185094761Y-102247381D01*
X185332857Y-102247381D01*
X185428095Y-102199762D01*
X185475714Y-102152143D01*
X189556666Y-101952143D02*
X189604285Y-101999762D01*
X189747142Y-102047381D01*
X189842380Y-102047381D01*
X189985238Y-101999762D01*
X190080476Y-101904524D01*
X190128095Y-101809286D01*
X190175714Y-101618810D01*
X190175714Y-101475952D01*
X190128095Y-101285476D01*
X190080476Y-101190238D01*
X189985238Y-101095000D01*
X189842380Y-101047381D01*
X189747142Y-101047381D01*
X189604285Y-101095000D01*
X189556666Y-101142619D01*
X188699523Y-101380714D02*
X188699523Y-102047381D01*
X188937619Y-100999762D02*
X189175714Y-101714048D01*
X188556666Y-101714048D01*
X191286666Y-119852143D02*
X191334285Y-119899762D01*
X191477142Y-119947381D01*
X191572380Y-119947381D01*
X191715238Y-119899762D01*
X191810476Y-119804524D01*
X191858095Y-119709286D01*
X191905714Y-119518810D01*
X191905714Y-119375952D01*
X191858095Y-119185476D01*
X191810476Y-119090238D01*
X191715238Y-118995000D01*
X191572380Y-118947381D01*
X191477142Y-118947381D01*
X191334285Y-118995000D01*
X191286666Y-119042619D01*
X190953333Y-118947381D02*
X190334285Y-118947381D01*
X190667619Y-119328333D01*
X190524761Y-119328333D01*
X190429523Y-119375952D01*
X190381904Y-119423571D01*
X190334285Y-119518810D01*
X190334285Y-119756905D01*
X190381904Y-119852143D01*
X190429523Y-119899762D01*
X190524761Y-119947381D01*
X190810476Y-119947381D01*
X190905714Y-119899762D01*
X190953333Y-119852143D01*
X192147143Y-115298334D02*
X192194762Y-115250715D01*
X192242381Y-115107858D01*
X192242381Y-115012620D01*
X192194762Y-114869762D01*
X192099524Y-114774524D01*
X192004286Y-114726905D01*
X191813810Y-114679286D01*
X191670952Y-114679286D01*
X191480476Y-114726905D01*
X191385238Y-114774524D01*
X191290000Y-114869762D01*
X191242381Y-115012620D01*
X191242381Y-115107858D01*
X191290000Y-115250715D01*
X191337619Y-115298334D01*
X191337619Y-115679286D02*
X191290000Y-115726905D01*
X191242381Y-115822143D01*
X191242381Y-116060239D01*
X191290000Y-116155477D01*
X191337619Y-116203096D01*
X191432857Y-116250715D01*
X191528095Y-116250715D01*
X191670952Y-116203096D01*
X192242381Y-115631667D01*
X192242381Y-116250715D01*
X197281905Y-120735381D02*
X197281905Y-121544905D01*
X197234286Y-121640143D01*
X197186667Y-121687762D01*
X197091429Y-121735381D01*
X196900952Y-121735381D01*
X196805714Y-121687762D01*
X196758095Y-121640143D01*
X196710476Y-121544905D01*
X196710476Y-120735381D01*
X196329524Y-120735381D02*
X195710476Y-120735381D01*
X196043810Y-121116333D01*
X195900952Y-121116333D01*
X195805714Y-121163952D01*
X195758095Y-121211571D01*
X195710476Y-121306810D01*
X195710476Y-121544905D01*
X195758095Y-121640143D01*
X195805714Y-121687762D01*
X195900952Y-121735381D01*
X196186667Y-121735381D01*
X196281905Y-121687762D01*
X196329524Y-121640143D01*
X186328095Y-112847381D02*
X186328095Y-111847381D01*
X185947142Y-111847381D01*
X185851904Y-111895000D01*
X185804285Y-111942619D01*
X185756666Y-112037857D01*
X185756666Y-112180714D01*
X185804285Y-112275952D01*
X185851904Y-112323571D01*
X185947142Y-112371190D01*
X186328095Y-112371190D01*
X184804285Y-112847381D02*
X185375714Y-112847381D01*
X185090000Y-112847381D02*
X185090000Y-111847381D01*
X185185238Y-111990238D01*
X185280476Y-112085476D01*
X185375714Y-112133095D01*
X179842381Y-103056905D02*
X178842381Y-103056905D01*
X178842381Y-103437858D01*
X178890000Y-103533096D01*
X178937619Y-103580715D01*
X179032857Y-103628334D01*
X179175714Y-103628334D01*
X179270952Y-103580715D01*
X179318571Y-103533096D01*
X179366190Y-103437858D01*
X179366190Y-103056905D01*
X178937619Y-104009286D02*
X178890000Y-104056905D01*
X178842381Y-104152143D01*
X178842381Y-104390239D01*
X178890000Y-104485477D01*
X178937619Y-104533096D01*
X179032857Y-104580715D01*
X179128095Y-104580715D01*
X179270952Y-104533096D01*
X179842381Y-103961667D01*
X179842381Y-104580715D01*
X190342381Y-107428334D02*
X189866190Y-107095000D01*
X190342381Y-106856905D02*
X189342381Y-106856905D01*
X189342381Y-107237858D01*
X189390000Y-107333096D01*
X189437619Y-107380715D01*
X189532857Y-107428334D01*
X189675714Y-107428334D01*
X189770952Y-107380715D01*
X189818571Y-107333096D01*
X189866190Y-107237858D01*
X189866190Y-106856905D01*
X190342381Y-108380715D02*
X190342381Y-107809286D01*
X190342381Y-108095000D02*
X189342381Y-108095000D01*
X189485238Y-107999762D01*
X189580476Y-107904524D01*
X189628095Y-107809286D01*
X184842381Y-106828334D02*
X184366190Y-106495000D01*
X184842381Y-106256905D02*
X183842381Y-106256905D01*
X183842381Y-106637858D01*
X183890000Y-106733096D01*
X183937619Y-106780715D01*
X184032857Y-106828334D01*
X184175714Y-106828334D01*
X184270952Y-106780715D01*
X184318571Y-106733096D01*
X184366190Y-106637858D01*
X184366190Y-106256905D01*
X183937619Y-107209286D02*
X183890000Y-107256905D01*
X183842381Y-107352143D01*
X183842381Y-107590239D01*
X183890000Y-107685477D01*
X183937619Y-107733096D01*
X184032857Y-107780715D01*
X184128095Y-107780715D01*
X184270952Y-107733096D01*
X184842381Y-107161667D01*
X184842381Y-107780715D01*
X190756666Y-111347381D02*
X191090000Y-110871190D01*
X191328095Y-111347381D02*
X191328095Y-110347381D01*
X190947142Y-110347381D01*
X190851904Y-110395000D01*
X190804285Y-110442619D01*
X190756666Y-110537857D01*
X190756666Y-110680714D01*
X190804285Y-110775952D01*
X190851904Y-110823571D01*
X190947142Y-110871190D01*
X191328095Y-110871190D01*
X190423333Y-110347381D02*
X189804285Y-110347381D01*
X190137619Y-110728333D01*
X189994761Y-110728333D01*
X189899523Y-110775952D01*
X189851904Y-110823571D01*
X189804285Y-110918810D01*
X189804285Y-111156905D01*
X189851904Y-111252143D01*
X189899523Y-111299762D01*
X189994761Y-111347381D01*
X190280476Y-111347381D01*
X190375714Y-111299762D01*
X190423333Y-111252143D01*
X195342381Y-106928334D02*
X194866190Y-106595000D01*
X195342381Y-106356905D02*
X194342381Y-106356905D01*
X194342381Y-106737858D01*
X194390000Y-106833096D01*
X194437619Y-106880715D01*
X194532857Y-106928334D01*
X194675714Y-106928334D01*
X194770952Y-106880715D01*
X194818571Y-106833096D01*
X194866190Y-106737858D01*
X194866190Y-106356905D01*
X194675714Y-107785477D02*
X195342381Y-107785477D01*
X194294762Y-107547381D02*
X195009048Y-107309286D01*
X195009048Y-107928334D01*
X190642381Y-115328334D02*
X190166190Y-114995000D01*
X190642381Y-114756905D02*
X189642381Y-114756905D01*
X189642381Y-115137858D01*
X189690000Y-115233096D01*
X189737619Y-115280715D01*
X189832857Y-115328334D01*
X189975714Y-115328334D01*
X190070952Y-115280715D01*
X190118571Y-115233096D01*
X190166190Y-115137858D01*
X190166190Y-114756905D01*
X189642381Y-115661667D02*
X189642381Y-116328334D01*
X190642381Y-115899762D01*
X193042381Y-107428334D02*
X192566190Y-107095000D01*
X193042381Y-106856905D02*
X192042381Y-106856905D01*
X192042381Y-107237858D01*
X192090000Y-107333096D01*
X192137619Y-107380715D01*
X192232857Y-107428334D01*
X192375714Y-107428334D01*
X192470952Y-107380715D01*
X192518571Y-107333096D01*
X192566190Y-107237858D01*
X192566190Y-106856905D01*
X192470952Y-107999762D02*
X192423333Y-107904524D01*
X192375714Y-107856905D01*
X192280476Y-107809286D01*
X192232857Y-107809286D01*
X192137619Y-107856905D01*
X192090000Y-107904524D01*
X192042381Y-107999762D01*
X192042381Y-108190239D01*
X192090000Y-108285477D01*
X192137619Y-108333096D01*
X192232857Y-108380715D01*
X192280476Y-108380715D01*
X192375714Y-108333096D01*
X192423333Y-108285477D01*
X192470952Y-108190239D01*
X192470952Y-107999762D01*
X192518571Y-107904524D01*
X192566190Y-107856905D01*
X192661429Y-107809286D01*
X192851905Y-107809286D01*
X192947143Y-107856905D01*
X192994762Y-107904524D01*
X193042381Y-107999762D01*
X193042381Y-108190239D01*
X192994762Y-108285477D01*
X192947143Y-108333096D01*
X192851905Y-108380715D01*
X192661429Y-108380715D01*
X192566190Y-108333096D01*
X192518571Y-108285477D01*
X192470952Y-108190239D01*
X186832857Y-115947381D02*
X187166191Y-115471190D01*
X187404286Y-115947381D02*
X187404286Y-114947381D01*
X187023333Y-114947381D01*
X186928095Y-114995000D01*
X186880476Y-115042619D01*
X186832857Y-115137857D01*
X186832857Y-115280714D01*
X186880476Y-115375952D01*
X186928095Y-115423571D01*
X187023333Y-115471190D01*
X187404286Y-115471190D01*
X185880476Y-115947381D02*
X186451905Y-115947381D01*
X186166191Y-115947381D02*
X186166191Y-114947381D01*
X186261429Y-115090238D01*
X186356667Y-115185476D01*
X186451905Y-115233095D01*
X185261429Y-114947381D02*
X185166190Y-114947381D01*
X185070952Y-114995000D01*
X185023333Y-115042619D01*
X184975714Y-115137857D01*
X184928095Y-115328333D01*
X184928095Y-115566429D01*
X184975714Y-115756905D01*
X185023333Y-115852143D01*
X185070952Y-115899762D01*
X185166190Y-115947381D01*
X185261429Y-115947381D01*
X185356667Y-115899762D01*
X185404286Y-115852143D01*
X185451905Y-115756905D01*
X185499524Y-115566429D01*
X185499524Y-115328333D01*
X185451905Y-115137857D01*
X185404286Y-115042619D01*
X185356667Y-114995000D01*
X185261429Y-114947381D01*
X182848095Y-120007381D02*
X182848095Y-119007381D01*
X182467142Y-119007381D01*
X182371904Y-119055000D01*
X182324285Y-119102619D01*
X182276666Y-119197857D01*
X182276666Y-119340714D01*
X182324285Y-119435952D01*
X182371904Y-119483571D01*
X182467142Y-119531190D01*
X182848095Y-119531190D01*
X181943333Y-119007381D02*
X181324285Y-119007381D01*
X181657619Y-119388333D01*
X181514761Y-119388333D01*
X181419523Y-119435952D01*
X181371904Y-119483571D01*
X181324285Y-119578810D01*
X181324285Y-119816905D01*
X181371904Y-119912143D01*
X181419523Y-119959762D01*
X181514761Y-120007381D01*
X181800476Y-120007381D01*
X181895714Y-119959762D01*
X181943333Y-119912143D01*
X168708095Y-130987381D02*
X168708095Y-129987381D01*
X168327142Y-129987381D01*
X168231904Y-130035000D01*
X168184285Y-130082619D01*
X168136666Y-130177857D01*
X168136666Y-130320714D01*
X168184285Y-130415952D01*
X168231904Y-130463571D01*
X168327142Y-130511190D01*
X168708095Y-130511190D01*
X167803333Y-129987381D02*
X167184285Y-129987381D01*
X167517619Y-130368333D01*
X167374761Y-130368333D01*
X167279523Y-130415952D01*
X167231904Y-130463571D01*
X167184285Y-130558810D01*
X167184285Y-130796905D01*
X167231904Y-130892143D01*
X167279523Y-130939762D01*
X167374761Y-130987381D01*
X167660476Y-130987381D01*
X167755714Y-130939762D01*
X167803333Y-130892143D01*
X164532857Y-135047381D02*
X164866191Y-134571190D01*
X165104286Y-135047381D02*
X165104286Y-134047381D01*
X164723333Y-134047381D01*
X164628095Y-134095000D01*
X164580476Y-134142619D01*
X164532857Y-134237857D01*
X164532857Y-134380714D01*
X164580476Y-134475952D01*
X164628095Y-134523571D01*
X164723333Y-134571190D01*
X165104286Y-134571190D01*
X163580476Y-135047381D02*
X164151905Y-135047381D01*
X163866191Y-135047381D02*
X163866191Y-134047381D01*
X163961429Y-134190238D01*
X164056667Y-134285476D01*
X164151905Y-134333095D01*
X162961429Y-134047381D02*
X162866190Y-134047381D01*
X162770952Y-134095000D01*
X162723333Y-134142619D01*
X162675714Y-134237857D01*
X162628095Y-134428333D01*
X162628095Y-134666429D01*
X162675714Y-134856905D01*
X162723333Y-134952143D01*
X162770952Y-134999762D01*
X162866190Y-135047381D01*
X162961429Y-135047381D01*
X163056667Y-134999762D01*
X163104286Y-134952143D01*
X163151905Y-134856905D01*
X163199524Y-134666429D01*
X163199524Y-134428333D01*
X163151905Y-134237857D01*
X163104286Y-134142619D01*
X163056667Y-134095000D01*
X162961429Y-134047381D01*
X157942381Y-142328334D02*
X157466190Y-141995000D01*
X157942381Y-141756905D02*
X156942381Y-141756905D01*
X156942381Y-142137858D01*
X156990000Y-142233096D01*
X157037619Y-142280715D01*
X157132857Y-142328334D01*
X157275714Y-142328334D01*
X157370952Y-142280715D01*
X157418571Y-142233096D01*
X157466190Y-142137858D01*
X157466190Y-141756905D01*
X157370952Y-142899762D02*
X157323333Y-142804524D01*
X157275714Y-142756905D01*
X157180476Y-142709286D01*
X157132857Y-142709286D01*
X157037619Y-142756905D01*
X156990000Y-142804524D01*
X156942381Y-142899762D01*
X156942381Y-143090239D01*
X156990000Y-143185477D01*
X157037619Y-143233096D01*
X157132857Y-143280715D01*
X157180476Y-143280715D01*
X157275714Y-143233096D01*
X157323333Y-143185477D01*
X157370952Y-143090239D01*
X157370952Y-142899762D01*
X157418571Y-142804524D01*
X157466190Y-142756905D01*
X157561429Y-142709286D01*
X157751905Y-142709286D01*
X157847143Y-142756905D01*
X157894762Y-142804524D01*
X157942381Y-142899762D01*
X157942381Y-143090239D01*
X157894762Y-143185477D01*
X157847143Y-143233096D01*
X157751905Y-143280715D01*
X157561429Y-143280715D01*
X157466190Y-143233096D01*
X157418571Y-143185477D01*
X157370952Y-143090239D01*
X160342381Y-134428334D02*
X159866190Y-134095000D01*
X160342381Y-133856905D02*
X159342381Y-133856905D01*
X159342381Y-134237858D01*
X159390000Y-134333096D01*
X159437619Y-134380715D01*
X159532857Y-134428334D01*
X159675714Y-134428334D01*
X159770952Y-134380715D01*
X159818571Y-134333096D01*
X159866190Y-134237858D01*
X159866190Y-133856905D01*
X159342381Y-134761667D02*
X159342381Y-135428334D01*
X160342381Y-134999762D01*
X155542381Y-143128334D02*
X155066190Y-142795000D01*
X155542381Y-142556905D02*
X154542381Y-142556905D01*
X154542381Y-142937858D01*
X154590000Y-143033096D01*
X154637619Y-143080715D01*
X154732857Y-143128334D01*
X154875714Y-143128334D01*
X154970952Y-143080715D01*
X155018571Y-143033096D01*
X155066190Y-142937858D01*
X155066190Y-142556905D01*
X154875714Y-143985477D02*
X155542381Y-143985477D01*
X154494762Y-143747381D02*
X155209048Y-143509286D01*
X155209048Y-144128334D01*
X159656666Y-139647381D02*
X159990000Y-139171190D01*
X160228095Y-139647381D02*
X160228095Y-138647381D01*
X159847142Y-138647381D01*
X159751904Y-138695000D01*
X159704285Y-138742619D01*
X159656666Y-138837857D01*
X159656666Y-138980714D01*
X159704285Y-139075952D01*
X159751904Y-139123571D01*
X159847142Y-139171190D01*
X160228095Y-139171190D01*
X159323333Y-138647381D02*
X158704285Y-138647381D01*
X159037619Y-139028333D01*
X158894761Y-139028333D01*
X158799523Y-139075952D01*
X158751904Y-139123571D01*
X158704285Y-139218810D01*
X158704285Y-139456905D01*
X158751904Y-139552143D01*
X158799523Y-139599762D01*
X158894761Y-139647381D01*
X159180476Y-139647381D01*
X159275714Y-139599762D01*
X159323333Y-139552143D01*
X166142381Y-142928334D02*
X165666190Y-142595000D01*
X166142381Y-142356905D02*
X165142381Y-142356905D01*
X165142381Y-142737858D01*
X165190000Y-142833096D01*
X165237619Y-142880715D01*
X165332857Y-142928334D01*
X165475714Y-142928334D01*
X165570952Y-142880715D01*
X165618571Y-142833096D01*
X165666190Y-142737858D01*
X165666190Y-142356905D01*
X165237619Y-143309286D02*
X165190000Y-143356905D01*
X165142381Y-143452143D01*
X165142381Y-143690239D01*
X165190000Y-143785477D01*
X165237619Y-143833096D01*
X165332857Y-143880715D01*
X165428095Y-143880715D01*
X165570952Y-143833096D01*
X166142381Y-143261667D01*
X166142381Y-143880715D01*
X160642381Y-142328334D02*
X160166190Y-141995000D01*
X160642381Y-141756905D02*
X159642381Y-141756905D01*
X159642381Y-142137858D01*
X159690000Y-142233096D01*
X159737619Y-142280715D01*
X159832857Y-142328334D01*
X159975714Y-142328334D01*
X160070952Y-142280715D01*
X160118571Y-142233096D01*
X160166190Y-142137858D01*
X160166190Y-141756905D01*
X160642381Y-143280715D02*
X160642381Y-142709286D01*
X160642381Y-142995000D02*
X159642381Y-142995000D01*
X159785238Y-142899762D01*
X159880476Y-142804524D01*
X159928095Y-142709286D01*
X171142381Y-145556905D02*
X170142381Y-145556905D01*
X170142381Y-145937858D01*
X170190000Y-146033096D01*
X170237619Y-146080715D01*
X170332857Y-146128334D01*
X170475714Y-146128334D01*
X170570952Y-146080715D01*
X170618571Y-146033096D01*
X170666190Y-145937858D01*
X170666190Y-145556905D01*
X170237619Y-146509286D02*
X170190000Y-146556905D01*
X170142381Y-146652143D01*
X170142381Y-146890239D01*
X170190000Y-146985477D01*
X170237619Y-147033096D01*
X170332857Y-147080715D01*
X170428095Y-147080715D01*
X170570952Y-147033096D01*
X171142381Y-146461667D01*
X171142381Y-147080715D01*
X165228095Y-138147381D02*
X165228095Y-137147381D01*
X164847142Y-137147381D01*
X164751904Y-137195000D01*
X164704285Y-137242619D01*
X164656666Y-137337857D01*
X164656666Y-137480714D01*
X164704285Y-137575952D01*
X164751904Y-137623571D01*
X164847142Y-137671190D01*
X165228095Y-137671190D01*
X163704285Y-138147381D02*
X164275714Y-138147381D01*
X163990000Y-138147381D02*
X163990000Y-137147381D01*
X164085238Y-137290238D01*
X164180476Y-137385476D01*
X164275714Y-137433095D01*
X154321905Y-128259381D02*
X154321905Y-129068905D01*
X154274286Y-129164143D01*
X154226667Y-129211762D01*
X154131429Y-129259381D01*
X153940952Y-129259381D01*
X153845714Y-129211762D01*
X153798095Y-129164143D01*
X153750476Y-129068905D01*
X153750476Y-128259381D01*
X153369524Y-128259381D02*
X152750476Y-128259381D01*
X153083810Y-128640333D01*
X152940952Y-128640333D01*
X152845714Y-128687952D01*
X152798095Y-128735571D01*
X152750476Y-128830810D01*
X152750476Y-129068905D01*
X152798095Y-129164143D01*
X152845714Y-129211762D01*
X152940952Y-129259381D01*
X153226667Y-129259381D01*
X153321905Y-129211762D01*
X153369524Y-129164143D01*
X158647143Y-134458334D02*
X158694762Y-134410715D01*
X158742381Y-134267858D01*
X158742381Y-134172620D01*
X158694762Y-134029762D01*
X158599524Y-133934524D01*
X158504286Y-133886905D01*
X158313810Y-133839286D01*
X158170952Y-133839286D01*
X157980476Y-133886905D01*
X157885238Y-133934524D01*
X157790000Y-134029762D01*
X157742381Y-134172620D01*
X157742381Y-134267858D01*
X157790000Y-134410715D01*
X157837619Y-134458334D01*
X157837619Y-134839286D02*
X157790000Y-134886905D01*
X157742381Y-134982143D01*
X157742381Y-135220239D01*
X157790000Y-135315477D01*
X157837619Y-135363096D01*
X157932857Y-135410715D01*
X158028095Y-135410715D01*
X158170952Y-135363096D01*
X158742381Y-134791667D01*
X158742381Y-135410715D01*
X159126666Y-130952143D02*
X159174285Y-130999762D01*
X159317142Y-131047381D01*
X159412380Y-131047381D01*
X159555238Y-130999762D01*
X159650476Y-130904524D01*
X159698095Y-130809286D01*
X159745714Y-130618810D01*
X159745714Y-130475952D01*
X159698095Y-130285476D01*
X159650476Y-130190238D01*
X159555238Y-130095000D01*
X159412380Y-130047381D01*
X159317142Y-130047381D01*
X159174285Y-130095000D01*
X159126666Y-130142619D01*
X158793333Y-130047381D02*
X158174285Y-130047381D01*
X158507619Y-130428333D01*
X158364761Y-130428333D01*
X158269523Y-130475952D01*
X158221904Y-130523571D01*
X158174285Y-130618810D01*
X158174285Y-130856905D01*
X158221904Y-130952143D01*
X158269523Y-130999762D01*
X158364761Y-131047381D01*
X158650476Y-131047381D01*
X158745714Y-130999762D01*
X158793333Y-130952143D01*
X160856666Y-148852143D02*
X160904285Y-148899762D01*
X161047142Y-148947381D01*
X161142380Y-148947381D01*
X161285238Y-148899762D01*
X161380476Y-148804524D01*
X161428095Y-148709286D01*
X161475714Y-148518810D01*
X161475714Y-148375952D01*
X161428095Y-148185476D01*
X161380476Y-148090238D01*
X161285238Y-147995000D01*
X161142380Y-147947381D01*
X161047142Y-147947381D01*
X160904285Y-147995000D01*
X160856666Y-148042619D01*
X159999523Y-148280714D02*
X159999523Y-148947381D01*
X160237619Y-147899762D02*
X160475714Y-148614048D01*
X159856666Y-148614048D01*
X164556666Y-148652143D02*
X164604285Y-148699762D01*
X164747142Y-148747381D01*
X164842380Y-148747381D01*
X164985238Y-148699762D01*
X165080476Y-148604524D01*
X165128095Y-148509286D01*
X165175714Y-148318810D01*
X165175714Y-148175952D01*
X165128095Y-147985476D01*
X165080476Y-147890238D01*
X164985238Y-147795000D01*
X164842380Y-147747381D01*
X164747142Y-147747381D01*
X164604285Y-147795000D01*
X164556666Y-147842619D01*
X163651904Y-147747381D02*
X164128095Y-147747381D01*
X164175714Y-148223571D01*
X164128095Y-148175952D01*
X164032857Y-148128333D01*
X163794761Y-148128333D01*
X163699523Y-148175952D01*
X163651904Y-148223571D01*
X163604285Y-148318810D01*
X163604285Y-148556905D01*
X163651904Y-148652143D01*
X163699523Y-148699762D01*
X163794761Y-148747381D01*
X164032857Y-148747381D01*
X164128095Y-148699762D01*
X164175714Y-148652143D01*
X167885238Y-137242619D02*
X167980476Y-137195000D01*
X168075714Y-137099762D01*
X168218571Y-136956905D01*
X168313810Y-136909286D01*
X168409048Y-136909286D01*
X168361429Y-137147381D02*
X168456667Y-137099762D01*
X168551905Y-137004524D01*
X168599524Y-136814048D01*
X168599524Y-136480714D01*
X168551905Y-136290238D01*
X168456667Y-136195000D01*
X168361429Y-136147381D01*
X168170952Y-136147381D01*
X168075714Y-136195000D01*
X167980476Y-136290238D01*
X167932857Y-136480714D01*
X167932857Y-136814048D01*
X167980476Y-137004524D01*
X168075714Y-137099762D01*
X168170952Y-137147381D01*
X168361429Y-137147381D01*
X167551905Y-136242619D02*
X167504286Y-136195000D01*
X167409048Y-136147381D01*
X167170952Y-136147381D01*
X167075714Y-136195000D01*
X167028095Y-136242619D01*
X166980476Y-136337857D01*
X166980476Y-136433095D01*
X167028095Y-136575952D01*
X167599524Y-137147381D01*
X166980476Y-137147381D01*
X152221905Y-141022381D02*
X152221905Y-141831905D01*
X152174286Y-141927143D01*
X152126667Y-141974762D01*
X152031429Y-142022381D01*
X151840952Y-142022381D01*
X151745714Y-141974762D01*
X151698095Y-141927143D01*
X151650476Y-141831905D01*
X151650476Y-141022381D01*
X150650476Y-142022381D02*
X151221905Y-142022381D01*
X150936191Y-142022381D02*
X150936191Y-141022381D01*
X151031429Y-141165238D01*
X151126667Y-141260476D01*
X151221905Y-141308095D01*
X154185143Y-147296334D02*
X154232762Y-147248715D01*
X154280381Y-147105858D01*
X154280381Y-147010620D01*
X154232762Y-146867762D01*
X154137524Y-146772524D01*
X154042286Y-146724905D01*
X153851810Y-146677286D01*
X153708952Y-146677286D01*
X153518476Y-146724905D01*
X153423238Y-146772524D01*
X153328000Y-146867762D01*
X153280381Y-147010620D01*
X153280381Y-147105858D01*
X153328000Y-147248715D01*
X153375619Y-147296334D01*
X154280381Y-148248715D02*
X154280381Y-147677286D01*
X154280381Y-147963000D02*
X153280381Y-147963000D01*
X153423238Y-147867762D01*
X153518476Y-147772524D01*
X153566095Y-147677286D01*
M02*
