M48
;DRILL file {kicad (after 2015-mar-04 BZR unknown)-product} date 06/27/15 23:08:44
;FORMAT={-:-/ absolute / inch / decimal}
FMAT,2
INCH,TZ
T1C0.016
T2C0.020
T3C0.022
T4C0.024
T5C0.031
T6C0.032
T7C0.039
T8C0.040
T9C0.079
%
G90
G05
M72
T1
X6.6413Y-4.3344
X6.6453Y-5.5116
X7.1374Y-4.3344
X7.1413Y-5.5116
T4
X6.4484Y-4.4132
X6.4524Y-5.4329
X6.4984Y-4.4132
X6.5024Y-5.4329
X6.5484Y-4.4132
X6.5524Y-5.4329
X7.2303Y-4.4132
X7.2343Y-5.4329
X7.2803Y-4.4132
X7.2843Y-5.4329
X7.3303Y-4.4132
X7.3343Y-5.4329
T5
X6.035Y-3.9919
X6.039Y-5.8541
X6.2043Y-4.7045
X6.2083Y-5.1415
X6.228Y-4.4959
X6.2319Y-5.3502
X6.2713Y-4.0037
X6.2752Y-5.8423
X6.3697Y-4.0037
X6.3736Y-5.8423
X6.4248Y-4.0037
X6.4287Y-5.8423
X6.5232Y-4.0037
X6.5272Y-5.8423
X7.2555Y-4.0037
X7.2594Y-5.8423
X7.3539Y-4.0037
X7.3579Y-5.8423
X7.4091Y-4.0037
X7.413Y-5.8423
X7.5075Y-4.0037
X7.5114Y-5.8423
X7.5508Y-4.4959
X7.5547Y-5.3502
X7.5744Y-4.7045
X7.5783Y-5.1415
X7.7437Y-3.9919
X7.7476Y-5.8541
T6
X6.035Y-4.0904
X6.039Y-5.7557
X6.228Y-4.5943
X6.2319Y-5.2518
X6.3028Y-4.7045
X6.3067Y-5.1415
X7.476Y-4.7045
X7.4799Y-5.1415
X7.5508Y-4.5943
X7.5547Y-5.2518
X7.7437Y-4.0904
X7.7476Y-5.7557
T7
X6.4091Y-4.8069
X6.413Y-5.0392
X6.5091Y-4.8069
X6.513Y-5.0392
X6.6091Y-4.8069
X6.613Y-5.0392
X6.7091Y-4.8069
X6.713Y-5.0392
X6.8091Y-4.8069
X6.813Y-5.0392
X6.9697Y-4.8069
X6.9736Y-5.0392
X7.0697Y-4.8069
X7.0736Y-5.0392
X7.1697Y-4.8069
X7.1736Y-5.0392
X7.2697Y-4.8069
X7.2736Y-5.0392
X7.3697Y-4.8069
X7.3736Y-5.0392
T8
X5.9524Y-3.9927
X5.9524Y-4.0927
X5.9524Y-4.1927
X5.9563Y-5.6533
X5.9563Y-5.7533
X5.9563Y-5.8533
X6.0017Y-4.3949
X6.0017Y-4.4949
X6.0017Y-4.5949
X6.0017Y-4.6949
X6.0057Y-5.1511
X6.0057Y-5.2511
X6.0057Y-5.3511
X6.0057Y-5.4511
X6.1017Y-4.3949
X6.1017Y-4.4949
X6.1017Y-4.5949
X6.1017Y-4.6949
X6.1057Y-5.1511
X6.1057Y-5.2511
X6.1057Y-5.3511
X6.1057Y-5.4511
X6.1154Y-4.0864
X6.1193Y-5.7596
X6.1295Y-4.1612
X6.1295Y-4.2612
X6.1335Y-5.5927
X6.1335Y-5.6927
X6.2154Y-4.0864
X6.2193Y-5.7596
X6.2224Y-4.3935
X6.224Y-4.1833
X6.224Y-4.2833
X6.2264Y-5.4526
X6.228Y-5.5628
X6.228Y-5.6628
X6.3146Y-4.4998
X6.3146Y-4.5998
X6.3154Y-4.0864
X6.3185Y-5.2463
X6.3185Y-5.3463
X6.3193Y-5.7596
X6.3224Y-4.1833
X6.3224Y-4.2833
X6.3224Y-4.3935
X6.3264Y-5.4526
X6.3264Y-5.5628
X6.3264Y-5.6628
X6.3957Y-4.4998
X6.3996Y-5.3463
X6.4154Y-4.0864
X6.4193Y-5.7596
X6.472Y-4.6258
X6.476Y-5.2203
X6.4957Y-4.4998
X6.4996Y-5.3463
X6.5154Y-4.0864
X6.5193Y-5.7596
X6.5508Y-4.1652
X6.5508Y-4.2652
X6.5547Y-5.5809
X6.5547Y-5.6809
X7.228Y-4.1652
X7.228Y-4.2652
X7.2319Y-5.5809
X7.2319Y-5.6809
X7.2634Y-4.0864
X7.2673Y-5.7596
X7.2831Y-4.4998
X7.287Y-5.3463
X7.3067Y-4.6258
X7.3106Y-5.2203
X7.3634Y-4.0864
X7.3673Y-5.7596
X7.3831Y-4.4998
X7.387Y-5.3463
X7.4563Y-4.1833
X7.4563Y-4.2833
X7.4563Y-4.3935
X7.4602Y-5.4526
X7.4602Y-5.5628
X7.4602Y-5.6628
X7.4634Y-4.0864
X7.4642Y-4.4998
X7.4642Y-4.5998
X7.4673Y-5.7596
X7.4681Y-5.2463
X7.4681Y-5.3463
X7.5547Y-4.1833
X7.5547Y-4.2833
X7.5563Y-4.3935
X7.5587Y-5.5628
X7.5587Y-5.6628
X7.5602Y-5.4526
X7.5634Y-4.0864
X7.5673Y-5.7596
X7.6453Y-4.1652
X7.6453Y-4.2652
X7.6571Y-5.5848
X7.6571Y-5.6848
X7.6634Y-4.0864
X7.6673Y-5.7596
X7.677Y-4.3949
X7.677Y-4.4949
X7.677Y-4.5949
X7.677Y-4.6949
X7.6809Y-5.1511
X7.6809Y-5.2511
X7.6809Y-5.3511
X7.6809Y-5.4511
X7.777Y-4.3949
X7.777Y-4.4949
X7.777Y-4.5949
X7.777Y-4.6949
X7.7809Y-5.1511
X7.7809Y-5.2511
X7.7809Y-5.3511
X7.7809Y-5.4511
X7.8264Y-3.9927
X7.8264Y-4.0927
X7.8264Y-4.1927
X7.8303Y-5.6533
X7.8303Y-5.7533
X7.8303Y-5.8533
T9
X6.6535Y-4.0551
X6.6535Y-4.685
X6.6575Y-5.161
X6.6575Y-5.7909
X7.1252Y-4.0551
X7.1252Y-4.685
X7.1291Y-5.161
X7.1291Y-5.7909
T2
X6.8292Y-4.2322G85X6.8036Y-4.2322
G05
X6.8292Y-4.2323G85X6.8036Y-4.2323
G05
X6.8292Y-4.5078G85X6.8036Y-4.5078
G05
X6.8292Y-4.5079G85X6.8036Y-4.5079
G05
X6.8332Y-5.3382G85X6.8076Y-5.3382
G05
X6.8332Y-5.3382G85X6.8076Y-5.3382
G05
X6.8332Y-5.6137G85X6.8076Y-5.6137
G05
X6.8332Y-5.6138G85X6.8076Y-5.6138
G05
X6.9495Y-4.2322G85X6.9751Y-4.2322
G05
X6.9495Y-4.2323G85X6.9751Y-4.2323
G05
X6.9495Y-4.5078G85X6.9751Y-4.5078
G05
X6.9495Y-4.5079G85X6.9751Y-4.5079
G05
X6.9534Y-5.3382G85X6.979Y-5.3382
G05
X6.9534Y-5.3382G85X6.979Y-5.3382
G05
X6.9534Y-5.6137G85X6.979Y-5.6137
G05
X6.9534Y-5.6138G85X6.979Y-5.6138
G05
T3
X6.7101Y-4.2775G85X6.7101Y-4.2657
G05
X6.7101Y-4.2776G85X6.7101Y-4.2658
G05
X6.7101Y-4.4744G85X6.7101Y-4.4626
G05
X6.7101Y-4.4744G85X6.7101Y-4.4626
G05
X6.7141Y-5.3834G85X6.7141Y-5.3716
G05
X6.7141Y-5.3835G85X6.7141Y-5.3717
G05
X6.7141Y-5.5803G85X6.7141Y-5.5685
G05
X6.7141Y-5.5804G85X6.7141Y-5.5685
G05
X7.0686Y-4.2657G85X7.0686Y-4.2775
G05
X7.0686Y-4.2658G85X7.0686Y-4.2776
G05
X7.0686Y-4.4626G85X7.0686Y-4.4744
G05
X7.0686Y-4.4626G85X7.0686Y-4.4744
G05
X7.0725Y-5.3716G85X7.0725Y-5.3834
G05
X7.0725Y-5.3717G85X7.0725Y-5.3835
G05
X7.0725Y-5.5685G85X7.0725Y-5.5803
G05
X7.0725Y-5.5685G85X7.0725Y-5.5804
G05
T0
M30
