G04 #@! TF.FileFunction,Copper,L2,Bot,Signal*
%FSLAX46Y46*%
G04 Gerber Fmt 4.6, Leading zero omitted, Abs format (unit mm)*
G04 Created by KiCad (PCBNEW (after 2015-mar-04 BZR unknown)-product) date 06/27/15 23:08:47*
%MOMM*%
G01*
G04 APERTURE LIST*
%ADD10C,0.100000*%
%ADD11C,0.300000*%
%ADD12R,1.350000X0.400000*%
%ADD13O,0.950000X1.250000*%
%ADD14O,1.550000X1.000000*%
%ADD15C,1.000000*%
%ADD16C,1.727200*%
%ADD17R,1.727200X2.032000*%
%ADD18O,1.727200X2.032000*%
%ADD19R,2.235200X2.235200*%
%ADD20R,1.727200X1.727200*%
%ADD21O,1.727200X1.727200*%
%ADD22R,1.300000X1.300000*%
%ADD23C,1.300000*%
%ADD24O,0.899160X1.501140*%
%ADD25R,2.032000X1.727200*%
%ADD26O,2.032000X1.727200*%
%ADD27C,4.500880*%
%ADD28C,0.600000*%
%ADD29C,0.250000*%
%ADD30C,0.400000*%
%ADD31C,0.500000*%
%ADD32C,0.254000*%
G04 APERTURE END LIST*
D10*
D11*
X169368572Y-125416429D02*
X170368572Y-125416429D01*
X169368572Y-123916429D01*
X170368572Y-123916429D01*
X170940000Y-123916429D02*
X170940000Y-125416429D01*
X171440000Y-124345000D01*
X171940000Y-125416429D01*
X171940000Y-123916429D01*
X172940000Y-125416429D02*
X173225714Y-125416429D01*
X173368572Y-125345000D01*
X173511429Y-125202143D01*
X173582857Y-124916429D01*
X173582857Y-124416429D01*
X173511429Y-124130714D01*
X173368572Y-123987857D01*
X173225714Y-123916429D01*
X172940000Y-123916429D01*
X172797143Y-123987857D01*
X172654286Y-124130714D01*
X172582857Y-124416429D01*
X172582857Y-124916429D01*
X172654286Y-125202143D01*
X172797143Y-125345000D01*
X172940000Y-125416429D01*
X174011429Y-125416429D02*
X174868572Y-125416429D01*
X174440001Y-123916429D02*
X174440001Y-125416429D01*
X175368572Y-124702143D02*
X175868572Y-124702143D01*
X176082858Y-123916429D02*
X175368572Y-123916429D01*
X175368572Y-125416429D01*
X176082858Y-125416429D01*
X177725715Y-124916429D02*
X178082858Y-123916429D01*
X178440000Y-124916429D01*
X179797143Y-123916429D02*
X178940000Y-123916429D01*
X179368572Y-123916429D02*
X179368572Y-125416429D01*
X179225715Y-125202143D01*
X179082857Y-125059286D01*
X178940000Y-124987857D01*
X180440000Y-124059286D02*
X180511428Y-123987857D01*
X180440000Y-123916429D01*
X180368571Y-123987857D01*
X180440000Y-124059286D01*
X180440000Y-123916429D01*
X181440000Y-125416429D02*
X181582857Y-125416429D01*
X181725714Y-125345000D01*
X181797143Y-125273571D01*
X181868572Y-125130714D01*
X181940000Y-124845000D01*
X181940000Y-124487857D01*
X181868572Y-124202143D01*
X181797143Y-124059286D01*
X181725714Y-123987857D01*
X181582857Y-123916429D01*
X181440000Y-123916429D01*
X181297143Y-123987857D01*
X181225714Y-124059286D01*
X181154286Y-124202143D01*
X181082857Y-124487857D01*
X181082857Y-124845000D01*
X181154286Y-125130714D01*
X181225714Y-125273571D01*
X181297143Y-125345000D01*
X181440000Y-125416429D01*
X169368572Y-125416429D02*
X170368572Y-125416429D01*
X169368572Y-123916429D01*
X170368572Y-123916429D01*
X170940000Y-123916429D02*
X170940000Y-125416429D01*
X171440000Y-124345000D01*
X171940000Y-125416429D01*
X171940000Y-123916429D01*
X172940000Y-125416429D02*
X173225714Y-125416429D01*
X173368572Y-125345000D01*
X173511429Y-125202143D01*
X173582857Y-124916429D01*
X173582857Y-124416429D01*
X173511429Y-124130714D01*
X173368572Y-123987857D01*
X173225714Y-123916429D01*
X172940000Y-123916429D01*
X172797143Y-123987857D01*
X172654286Y-124130714D01*
X172582857Y-124416429D01*
X172582857Y-124916429D01*
X172654286Y-125202143D01*
X172797143Y-125345000D01*
X172940000Y-125416429D01*
X174011429Y-125416429D02*
X174868572Y-125416429D01*
X174440001Y-123916429D02*
X174440001Y-125416429D01*
X175368572Y-124702143D02*
X175868572Y-124702143D01*
X176082858Y-123916429D02*
X175368572Y-123916429D01*
X175368572Y-125416429D01*
X176082858Y-125416429D01*
X177725715Y-124916429D02*
X178082858Y-123916429D01*
X178440000Y-124916429D01*
X179797143Y-123916429D02*
X178940000Y-123916429D01*
X179368572Y-123916429D02*
X179368572Y-125416429D01*
X179225715Y-125202143D01*
X179082857Y-125059286D01*
X178940000Y-124987857D01*
X180440000Y-124059286D02*
X180511428Y-123987857D01*
X180440000Y-123916429D01*
X180368571Y-123987857D01*
X180440000Y-124059286D01*
X180440000Y-123916429D01*
X181440000Y-125416429D02*
X181582857Y-125416429D01*
X181725714Y-125345000D01*
X181797143Y-125273571D01*
X181868572Y-125130714D01*
X181940000Y-124845000D01*
X181940000Y-124487857D01*
X181868572Y-124202143D01*
X181797143Y-124059286D01*
X181725714Y-123987857D01*
X181582857Y-123916429D01*
X181440000Y-123916429D01*
X181297143Y-123987857D01*
X181225714Y-124059286D01*
X181154286Y-124202143D01*
X181082857Y-124487857D01*
X181082857Y-124845000D01*
X181154286Y-125130714D01*
X181225714Y-125273571D01*
X181297143Y-125345000D01*
X181440000Y-125416429D01*
D12*
X179642540Y-140390900D03*
X179642540Y-139740900D03*
X179642540Y-139090900D03*
X179642540Y-138440900D03*
X179642540Y-137790900D03*
D13*
X179642540Y-141590900D03*
X179642540Y-136590900D03*
D14*
X176942540Y-142590900D03*
X176942540Y-135590900D03*
D15*
X177130000Y-127995000D03*
X182210000Y-127995000D03*
X179670000Y-127995000D03*
X184750000Y-127995000D03*
X187290000Y-127995000D03*
D16*
X187630000Y-135795000D03*
X185090000Y-135795000D03*
X191990000Y-143835000D03*
X191990000Y-141295000D03*
X189690000Y-133255000D03*
X189690000Y-135795000D03*
X194490000Y-141855000D03*
X194490000Y-144395000D03*
X192030000Y-138495000D03*
X189490000Y-138495000D03*
X183690000Y-141755000D03*
X183690000Y-144295000D03*
X189490000Y-143835000D03*
X189490000Y-141295000D03*
D17*
X184590000Y-146295000D03*
D18*
X187130000Y-146295000D03*
X189670000Y-146295000D03*
X192210000Y-146295000D03*
X194750000Y-146295000D03*
D19*
X185690000Y-132595000D03*
D20*
X195096000Y-130839000D03*
D21*
X197636000Y-130839000D03*
X195096000Y-133379000D03*
X197636000Y-133379000D03*
X195096000Y-135919000D03*
X197636000Y-135919000D03*
X195096000Y-138459000D03*
X197636000Y-138459000D03*
D22*
X191890000Y-135895000D03*
D23*
X191890000Y-133395000D03*
D22*
X192490000Y-130595000D03*
D23*
X189990000Y-130595000D03*
D22*
X190790000Y-148395000D03*
D23*
X188290000Y-148395000D03*
D22*
X184390000Y-148395000D03*
D23*
X186890000Y-148395000D03*
D13*
X179642540Y-136589100D03*
X179642540Y-141589100D03*
D14*
X176942540Y-135589100D03*
X176942540Y-142589100D03*
D24*
X185020000Y-137995000D03*
X183750000Y-137995000D03*
X186290000Y-137995000D03*
D25*
X198890000Y-143595000D03*
D26*
X198890000Y-146135000D03*
X198890000Y-148675000D03*
D22*
X196790000Y-148695000D03*
D23*
X196790000Y-146195000D03*
D27*
X181080000Y-147090000D03*
X181080000Y-131090000D03*
X180980000Y-119000000D03*
X180980000Y-103000000D03*
D22*
X196690000Y-101395000D03*
D23*
X196690000Y-103895000D03*
D25*
X198790000Y-106495000D03*
D26*
X198790000Y-103955000D03*
X198790000Y-101415000D03*
D24*
X184920000Y-112095000D03*
X183650000Y-112095000D03*
X186190000Y-112095000D03*
D12*
X179542540Y-112300900D03*
X179542540Y-111650900D03*
X179542540Y-111000900D03*
X179542540Y-110350900D03*
X179542540Y-109700900D03*
D13*
X179542540Y-113500900D03*
X179542540Y-108500900D03*
D14*
X176842540Y-114500900D03*
X176842540Y-107500900D03*
D22*
X184290000Y-101695000D03*
D23*
X186790000Y-101695000D03*
D22*
X190690000Y-101695000D03*
D23*
X188190000Y-101695000D03*
D22*
X192390000Y-119495000D03*
D23*
X189890000Y-119495000D03*
D22*
X191790000Y-114195000D03*
D23*
X191790000Y-116695000D03*
D20*
X194996000Y-119251000D03*
D21*
X197536000Y-119251000D03*
X194996000Y-116711000D03*
X197536000Y-116711000D03*
X194996000Y-114171000D03*
X197536000Y-114171000D03*
X194996000Y-111631000D03*
X197536000Y-111631000D03*
D19*
X185590000Y-117495000D03*
D17*
X184490000Y-103795000D03*
D18*
X187030000Y-103795000D03*
X189570000Y-103795000D03*
X192110000Y-103795000D03*
X194650000Y-103795000D03*
D16*
X189390000Y-106255000D03*
X189390000Y-108795000D03*
X183590000Y-108335000D03*
X183590000Y-105795000D03*
X191930000Y-111595000D03*
X189390000Y-111595000D03*
X194190000Y-108335000D03*
X194190000Y-105795000D03*
X189590000Y-116835000D03*
X189590000Y-114295000D03*
X191890000Y-106255000D03*
X191890000Y-108795000D03*
X187530000Y-114295000D03*
X184990000Y-114295000D03*
D15*
X177030000Y-122095000D03*
X182110000Y-122095000D03*
X179570000Y-122095000D03*
X184650000Y-122095000D03*
X187190000Y-122095000D03*
D13*
X179542540Y-108499100D03*
X179542540Y-113499100D03*
D14*
X176842540Y-107499100D03*
X176842540Y-114499100D03*
D13*
X170537460Y-141590900D03*
X170537460Y-136590900D03*
D14*
X173237460Y-142590900D03*
X173237460Y-135590900D03*
D15*
X173050000Y-127995000D03*
X167970000Y-127995000D03*
X170510000Y-127995000D03*
X165430000Y-127995000D03*
X162890000Y-127995000D03*
D16*
X162550000Y-135795000D03*
X165090000Y-135795000D03*
X158190000Y-143835000D03*
X158190000Y-141295000D03*
X160490000Y-133255000D03*
X160490000Y-135795000D03*
X155790000Y-142055000D03*
X155790000Y-144595000D03*
X158150000Y-138495000D03*
X160690000Y-138495000D03*
X166490000Y-141755000D03*
X166490000Y-144295000D03*
X160690000Y-143835000D03*
X160690000Y-141295000D03*
D17*
X165590000Y-146295000D03*
D18*
X163050000Y-146295000D03*
X160510000Y-146295000D03*
X157970000Y-146295000D03*
X155430000Y-146295000D03*
D19*
X164490000Y-132595000D03*
D20*
X155084000Y-130839000D03*
D21*
X152544000Y-130839000D03*
X155084000Y-133379000D03*
X152544000Y-133379000D03*
X155084000Y-135919000D03*
X152544000Y-135919000D03*
X155084000Y-138459000D03*
X152544000Y-138459000D03*
D22*
X158290000Y-135895000D03*
D23*
X158290000Y-133395000D03*
D22*
X157690000Y-130595000D03*
D23*
X160190000Y-130595000D03*
D22*
X159390000Y-148395000D03*
D23*
X161890000Y-148395000D03*
D22*
X165790000Y-148395000D03*
D23*
X163290000Y-148395000D03*
D12*
X170537460Y-137789100D03*
X170537460Y-138439100D03*
X170537460Y-139089100D03*
X170537460Y-139739100D03*
X170537460Y-140389100D03*
D13*
X170537460Y-136589100D03*
X170537460Y-141589100D03*
D14*
X173237460Y-135589100D03*
X173237460Y-142589100D03*
D24*
X165160000Y-137995000D03*
X166430000Y-137995000D03*
X163890000Y-137995000D03*
D25*
X151290000Y-143595000D03*
D26*
X151290000Y-146135000D03*
X151290000Y-148675000D03*
D22*
X153390000Y-148695000D03*
D23*
X153390000Y-146195000D03*
D27*
X169100000Y-147090000D03*
X169100000Y-131090000D03*
X169000000Y-119000000D03*
X169000000Y-103000000D03*
D22*
X153290000Y-101395000D03*
D23*
X153290000Y-103895000D03*
D25*
X151190000Y-106495000D03*
D26*
X151190000Y-103955000D03*
X151190000Y-101415000D03*
D24*
X165060000Y-112095000D03*
X166330000Y-112095000D03*
X163790000Y-112095000D03*
D13*
X170437460Y-113500900D03*
X170437460Y-108500900D03*
D14*
X173137460Y-114500900D03*
X173137460Y-107500900D03*
D22*
X165690000Y-101695000D03*
D23*
X163190000Y-101695000D03*
D22*
X159290000Y-101695000D03*
D23*
X161790000Y-101695000D03*
D22*
X157590000Y-119495000D03*
D23*
X160090000Y-119495000D03*
D22*
X158190000Y-114195000D03*
D23*
X158190000Y-116695000D03*
D20*
X154984000Y-119251000D03*
D21*
X152444000Y-119251000D03*
X154984000Y-116711000D03*
X152444000Y-116711000D03*
X154984000Y-114171000D03*
X152444000Y-114171000D03*
X154984000Y-111631000D03*
X152444000Y-111631000D03*
D19*
X164390000Y-117495000D03*
D17*
X165490000Y-103795000D03*
D18*
X162950000Y-103795000D03*
X160410000Y-103795000D03*
X157870000Y-103795000D03*
X155330000Y-103795000D03*
D16*
X160590000Y-106255000D03*
X160590000Y-108795000D03*
X166390000Y-108335000D03*
X166390000Y-105795000D03*
X158050000Y-111595000D03*
X160590000Y-111595000D03*
X155690000Y-108235000D03*
X155690000Y-105695000D03*
X160390000Y-116835000D03*
X160390000Y-114295000D03*
X158090000Y-106255000D03*
X158090000Y-108795000D03*
X162450000Y-114295000D03*
X164990000Y-114295000D03*
D15*
X172950000Y-122095000D03*
X167870000Y-122095000D03*
X170410000Y-122095000D03*
X165330000Y-122095000D03*
X162790000Y-122095000D03*
D12*
X170437460Y-109699100D03*
X170437460Y-110349100D03*
X170437460Y-110999100D03*
X170437460Y-111649100D03*
X170437460Y-112299100D03*
D13*
X170437460Y-108499100D03*
X170437460Y-113499100D03*
D14*
X173137460Y-107499100D03*
X173137460Y-114499100D03*
D28*
X168690000Y-110095000D03*
X168790000Y-139995000D03*
X181290000Y-110095000D03*
X181390000Y-139995000D03*
D29*
X168620000Y-101015000D02*
X168620000Y-102795000D01*
X151190000Y-101415000D02*
X151825000Y-101415000D01*
X168620000Y-102795000D02*
X168620000Y-101650000D01*
D30*
X168620000Y-101904000D02*
X167176000Y-100455000D01*
X168620000Y-102795000D02*
X168620000Y-101904000D01*
X151317000Y-101288000D02*
X151190000Y-101415000D01*
D29*
X168035000Y-103380000D02*
X168620000Y-102795000D01*
D31*
X168035000Y-103380000D02*
X168620000Y-102795000D01*
D30*
X167176000Y-100455000D02*
X153967382Y-100439040D01*
X153967382Y-100439040D02*
X153290000Y-101150000D01*
X153290000Y-101150000D02*
X151317000Y-101288000D01*
X169085900Y-109699100D02*
X168690000Y-110095000D01*
X170437460Y-109699100D02*
X169085900Y-109699100D01*
X168790000Y-139995000D02*
X168790000Y-139795000D01*
X170537460Y-137789100D02*
X168980000Y-137789100D01*
X168980000Y-137789100D02*
X168800000Y-137969100D01*
X168790000Y-139795000D02*
X168789617Y-139794617D01*
X168789617Y-139794617D02*
X168768101Y-139794617D01*
X168768101Y-139794617D02*
X168768484Y-139795000D01*
X168768484Y-139795000D02*
X168790000Y-139795000D01*
X168790000Y-139795000D02*
X168790000Y-138541384D01*
X168712671Y-142966798D02*
X168839671Y-142839798D01*
X168292000Y-143539000D02*
X168839671Y-142839798D01*
X168262000Y-146837000D02*
X168292000Y-143539000D01*
X168262000Y-146837000D02*
X168720000Y-147295000D01*
X168800000Y-137969100D02*
X168790000Y-138541384D01*
X168790000Y-138541384D02*
X168712671Y-142966798D01*
X168800000Y-137969100D02*
X166979900Y-141265100D01*
X166979900Y-141265100D02*
X166490000Y-141755000D01*
X166852900Y-141392100D02*
X166490000Y-141755000D01*
X167625000Y-148390000D02*
X168720000Y-147295000D01*
X182455000Y-101700000D02*
X181360000Y-102795000D01*
X183227100Y-108697900D02*
X183590000Y-108335000D01*
X183100100Y-108824900D02*
X183590000Y-108335000D01*
X181280000Y-112120900D02*
X183100100Y-108824900D01*
X181290000Y-111548616D02*
X181367329Y-107123202D01*
X181280000Y-112120900D02*
X181290000Y-111548616D01*
X181818000Y-103253000D02*
X181360000Y-102795000D01*
X181818000Y-103253000D02*
X181788000Y-106551000D01*
X181788000Y-106551000D02*
X181240329Y-107250202D01*
X181367329Y-107123202D02*
X181240329Y-107250202D01*
X181290000Y-110295000D02*
X181290000Y-111548616D01*
X181311516Y-110295000D02*
X181290000Y-110295000D01*
X181311899Y-110295383D02*
X181311516Y-110295000D01*
X181290383Y-110295383D02*
X181311899Y-110295383D01*
X181290000Y-110295000D02*
X181290383Y-110295383D01*
X181100000Y-112300900D02*
X181280000Y-112120900D01*
X179542540Y-112300900D02*
X181100000Y-112300900D01*
X181290000Y-110095000D02*
X181290000Y-110295000D01*
X179642540Y-140390900D02*
X180994100Y-140390900D01*
X180994100Y-140390900D02*
X181390000Y-139995000D01*
X196790000Y-148940000D02*
X198763000Y-148802000D01*
X196112618Y-149650960D02*
X196790000Y-148940000D01*
X182904000Y-149635000D02*
X196112618Y-149650960D01*
D31*
X182045000Y-146710000D02*
X181460000Y-147295000D01*
D29*
X182045000Y-146710000D02*
X181460000Y-147295000D01*
D30*
X198763000Y-148802000D02*
X198890000Y-148675000D01*
X181460000Y-147295000D02*
X181460000Y-148186000D01*
X181460000Y-148186000D02*
X182904000Y-149635000D01*
D29*
X181460000Y-147295000D02*
X181460000Y-148440000D01*
X198890000Y-148675000D02*
X198255000Y-148675000D01*
X181460000Y-149075000D02*
X181460000Y-147295000D01*
D30*
X162896000Y-101442000D02*
X163190000Y-101442000D01*
X162896000Y-102203000D02*
X162896000Y-101949000D01*
D29*
X151230000Y-106535000D02*
X151190000Y-106495000D01*
X166330000Y-112095000D02*
X166370000Y-112095000D01*
X157682000Y-116735000D02*
X158317000Y-116735000D01*
X152444000Y-119251000D02*
X151809000Y-119251000D01*
D31*
X168650000Y-118820000D02*
X168650000Y-117015000D01*
D30*
X151317000Y-106368000D02*
X151190000Y-106495000D01*
X173127460Y-114395900D02*
X173127460Y-107395900D01*
X168269000Y-118820000D02*
X166330000Y-112095000D01*
X168650000Y-118820000D02*
X168269000Y-118820000D01*
X168650000Y-118820000D02*
X167059000Y-118820000D01*
X168573000Y-118743000D02*
X168650000Y-118820000D01*
X150489714Y-107300341D02*
X151190000Y-106495000D01*
X150445602Y-118294421D02*
X150489714Y-107300341D01*
X150920000Y-119251000D02*
X150445602Y-118294421D01*
X152444000Y-119251000D02*
X150920000Y-119251000D01*
X151190000Y-106495000D02*
X152079000Y-106495000D01*
X162950000Y-103327000D02*
X161740000Y-101979000D01*
X162950000Y-103795000D02*
X162950000Y-103327000D01*
X163190000Y-101695000D02*
X161740000Y-101979000D01*
X163150000Y-101735000D02*
X163190000Y-101695000D01*
X162950000Y-103795000D02*
X163150000Y-101735000D01*
X162950000Y-102779000D02*
X162950000Y-103795000D01*
X162288000Y-101979000D02*
X162950000Y-102779000D01*
X161740000Y-101979000D02*
X162288000Y-101979000D01*
X168505000Y-119495000D02*
X169000000Y-119000000D01*
X160090000Y-119495000D02*
X168505000Y-119495000D01*
X166330000Y-112095000D02*
X166330000Y-112135000D01*
X153490000Y-120795000D02*
X158290000Y-120795000D01*
X158290000Y-120795000D02*
X160090000Y-119495000D01*
X152444000Y-119749000D02*
X153490000Y-120795000D01*
X152444000Y-119251000D02*
X152444000Y-119749000D01*
X162950000Y-107055000D02*
X165790000Y-109895000D01*
X165790000Y-109895000D02*
X166390000Y-109895000D01*
X162950000Y-103795000D02*
X162950000Y-107055000D01*
X166390000Y-112035000D02*
X166330000Y-112095000D01*
X166390000Y-109995000D02*
X166390000Y-112035000D01*
X166390000Y-109895000D02*
X166390000Y-109995000D01*
X170695900Y-113500900D02*
X170437460Y-113500900D01*
X171695900Y-114500900D02*
X170695900Y-113500900D01*
X173137460Y-114500900D02*
X171695900Y-114500900D01*
X166590000Y-112095000D02*
X166330000Y-112095000D01*
X167995900Y-113500900D02*
X166590000Y-112095000D01*
X170437460Y-113500900D02*
X167995900Y-113500900D01*
X171584100Y-107500900D02*
X173137460Y-107500900D01*
X170584100Y-108500900D02*
X171584100Y-107500900D01*
X170437460Y-108500900D02*
X170584100Y-108500900D01*
X167190000Y-109995000D02*
X168684100Y-108500900D01*
X168684100Y-108500900D02*
X170437460Y-108500900D01*
X166390000Y-109995000D02*
X167190000Y-109995000D01*
X166690000Y-137995000D02*
X166430000Y-137995000D01*
X170537460Y-136589100D02*
X170795900Y-136589100D01*
X166490000Y-137995000D02*
X166430000Y-137995000D01*
X173237460Y-135589100D02*
X173195900Y-135589100D01*
X173237460Y-142589100D02*
X173237460Y-135589100D01*
X170684100Y-141589100D02*
X171684100Y-142589100D01*
X171684100Y-142589100D02*
X173237460Y-142589100D01*
X170537460Y-140389100D02*
X170537460Y-141589100D01*
X166490000Y-137995000D02*
X166430000Y-137995000D01*
X173227460Y-135694100D02*
X173090900Y-135694100D01*
X170527460Y-141694100D02*
X170527460Y-141932460D01*
X173227460Y-142694100D02*
X173227460Y-135694100D01*
X160590000Y-149695000D02*
X161890000Y-148395000D01*
X155890000Y-149695000D02*
X160590000Y-149695000D01*
X153390000Y-146195000D02*
X153390000Y-146425000D01*
X153390000Y-146425000D02*
X155890000Y-149695000D01*
X151290000Y-143595000D02*
X151785000Y-143595000D01*
X151785000Y-143595000D02*
X153052000Y-145457000D01*
X153052000Y-145457000D02*
X153390000Y-146195000D01*
X160190000Y-130595000D02*
X158290000Y-131995000D01*
X158290000Y-131995000D02*
X158290000Y-133395000D01*
X161840000Y-148111000D02*
X161840000Y-147944000D01*
D29*
X151330000Y-143555000D02*
X151290000Y-143595000D01*
X198750000Y-106535000D02*
X198790000Y-106495000D01*
D30*
X188240000Y-101979000D02*
X188240000Y-102146000D01*
X191790000Y-118095000D02*
X191790000Y-116695000D01*
X189890000Y-119495000D02*
X191790000Y-118095000D01*
X197028000Y-104633000D02*
X196690000Y-103895000D01*
X198295000Y-106495000D02*
X197028000Y-104633000D01*
X198790000Y-106495000D02*
X198295000Y-106495000D01*
X196690000Y-103665000D02*
X194190000Y-100395000D01*
X196690000Y-103895000D02*
X196690000Y-103665000D01*
X194190000Y-100395000D02*
X189490000Y-100395000D01*
X189490000Y-100395000D02*
X188190000Y-101695000D01*
X176852540Y-107395900D02*
X176852540Y-114395900D01*
X179552540Y-108395900D02*
X179552540Y-108157540D01*
X176852540Y-114395900D02*
X176989100Y-114395900D01*
X183590000Y-112095000D02*
X183650000Y-112095000D01*
X178395900Y-107500900D02*
X176842540Y-107500900D01*
X179395900Y-108500900D02*
X178395900Y-107500900D01*
X176842540Y-107500900D02*
X176842540Y-114500900D01*
X176842540Y-114500900D02*
X176884100Y-114500900D01*
X183590000Y-112095000D02*
X183650000Y-112095000D01*
X179542540Y-113500900D02*
X179284100Y-113500900D01*
X183390000Y-112095000D02*
X183650000Y-112095000D01*
X183690000Y-140095000D02*
X182890000Y-140095000D01*
X181395900Y-141589100D02*
X179642540Y-141589100D01*
X182890000Y-140095000D02*
X181395900Y-141589100D01*
X179642540Y-141589100D02*
X179495900Y-141589100D01*
X179495900Y-141589100D02*
X178495900Y-142589100D01*
X178495900Y-142589100D02*
X176942540Y-142589100D01*
X179642540Y-136589100D02*
X182084100Y-136589100D01*
X182084100Y-136589100D02*
X183490000Y-137995000D01*
X183490000Y-137995000D02*
X183750000Y-137995000D01*
X176942540Y-135589100D02*
X178384100Y-135589100D01*
X178384100Y-135589100D02*
X179384100Y-136589100D01*
X179384100Y-136589100D02*
X179642540Y-136589100D01*
X183690000Y-140195000D02*
X183690000Y-140095000D01*
X183690000Y-140095000D02*
X183690000Y-138055000D01*
X183690000Y-138055000D02*
X183750000Y-137995000D01*
X187130000Y-146295000D02*
X187130000Y-143035000D01*
X184290000Y-140195000D02*
X183690000Y-140195000D01*
X187130000Y-143035000D02*
X184290000Y-140195000D01*
X197636000Y-130839000D02*
X197636000Y-130341000D01*
X197636000Y-130341000D02*
X196590000Y-129295000D01*
X191790000Y-129295000D02*
X189990000Y-130595000D01*
X196590000Y-129295000D02*
X191790000Y-129295000D01*
X183750000Y-137995000D02*
X183750000Y-137955000D01*
X189990000Y-130595000D02*
X181575000Y-130595000D01*
X181575000Y-130595000D02*
X181080000Y-131090000D01*
X188340000Y-148111000D02*
X187792000Y-148111000D01*
X187792000Y-148111000D02*
X187130000Y-147311000D01*
X187130000Y-147311000D02*
X187130000Y-146295000D01*
X187130000Y-146295000D02*
X186930000Y-148355000D01*
X186930000Y-148355000D02*
X186890000Y-148395000D01*
X186890000Y-148395000D02*
X188340000Y-148111000D01*
X187130000Y-146295000D02*
X187130000Y-146763000D01*
X187130000Y-146763000D02*
X188340000Y-148111000D01*
X198890000Y-143595000D02*
X198001000Y-143595000D01*
X197636000Y-130839000D02*
X199160000Y-130839000D01*
X199160000Y-130839000D02*
X199634398Y-131795579D01*
X199634398Y-131795579D02*
X199590286Y-142789659D01*
X199590286Y-142789659D02*
X198890000Y-143595000D01*
X181507000Y-131347000D02*
X181430000Y-131270000D01*
X181430000Y-131270000D02*
X183021000Y-131270000D01*
X181430000Y-131270000D02*
X181811000Y-131270000D01*
X181811000Y-131270000D02*
X183750000Y-137995000D01*
X176952540Y-135694100D02*
X176952540Y-142694100D01*
X198763000Y-143722000D02*
X198890000Y-143595000D01*
D31*
X181430000Y-131270000D02*
X181430000Y-133075000D01*
D29*
X197636000Y-130839000D02*
X198271000Y-130839000D01*
X192398000Y-133355000D02*
X191763000Y-133355000D01*
X183750000Y-137995000D02*
X183710000Y-137995000D01*
X198850000Y-143555000D02*
X198890000Y-143595000D01*
D30*
X187184000Y-147887000D02*
X187184000Y-148141000D01*
X187184000Y-148648000D02*
X186890000Y-148648000D01*
X170437460Y-112299100D02*
X170437460Y-113500900D01*
X179542540Y-109700900D02*
X179542540Y-108500900D01*
X160590000Y-111595000D02*
X160971000Y-111595000D01*
X154984000Y-114171000D02*
X155314000Y-114171000D01*
X158190000Y-113995000D02*
X160590000Y-111595000D01*
X158190000Y-114195000D02*
X158190000Y-113995000D01*
X158166000Y-114171000D02*
X158190000Y-114195000D01*
X154984000Y-114171000D02*
X158166000Y-114171000D01*
X155592000Y-135919000D02*
X155084000Y-135919000D01*
X194488000Y-114171000D02*
X194996000Y-114171000D01*
X195096000Y-135919000D02*
X191914000Y-135919000D01*
X191914000Y-135919000D02*
X191890000Y-135895000D01*
X191890000Y-135895000D02*
X191890000Y-136095000D01*
X191890000Y-136095000D02*
X189490000Y-138495000D01*
X195096000Y-135919000D02*
X194766000Y-135919000D01*
X189490000Y-138495000D02*
X189109000Y-138495000D01*
D29*
X154944000Y-116751000D02*
X154984000Y-116711000D01*
D31*
X151825000Y-103320000D02*
X151190000Y-103955000D01*
D30*
X158050000Y-111595000D02*
X158050000Y-111595000D01*
X154984000Y-111631000D02*
X154349000Y-111631000D01*
X160390000Y-117343000D02*
X160390000Y-116835000D01*
X154984000Y-116711000D02*
X155492000Y-116711000D01*
X158050000Y-111595000D02*
X158050000Y-112103000D01*
X160390000Y-117343000D02*
X160390000Y-116835000D01*
X151190000Y-103955000D02*
X151190000Y-103828000D01*
X158790000Y-102195000D02*
X159290000Y-101695000D01*
X151190000Y-103955000D02*
X151225000Y-103955000D01*
X157986000Y-111531000D02*
X158050000Y-111595000D01*
X160266000Y-116711000D02*
X160390000Y-116835000D01*
X158050000Y-111595000D02*
X158050000Y-111635000D01*
X155606000Y-116711000D02*
X154984000Y-116711000D01*
X157090000Y-118195000D02*
X155606000Y-116711000D01*
X157590000Y-119495000D02*
X157090000Y-118195000D01*
X158230000Y-119495000D02*
X160390000Y-116835000D01*
X157590000Y-119495000D02*
X158230000Y-119495000D01*
X155020000Y-111595000D02*
X154984000Y-111631000D01*
X158050000Y-111595000D02*
X155020000Y-111595000D01*
X151695000Y-103955000D02*
X151190000Y-103955000D01*
X153290000Y-106595000D02*
X153290000Y-105495000D01*
X153290000Y-105495000D02*
X151695000Y-103955000D01*
X155430000Y-108235000D02*
X153290000Y-106595000D01*
X155690000Y-108235000D02*
X155430000Y-108235000D01*
X158990000Y-101995000D02*
X159290000Y-101695000D01*
X154890000Y-101995000D02*
X158990000Y-101995000D01*
X151230000Y-103955000D02*
X152490000Y-102695000D01*
X151190000Y-103955000D02*
X151230000Y-103955000D01*
X152490000Y-102695000D02*
X154290000Y-102695000D01*
X154290000Y-102695000D02*
X154690000Y-102295000D01*
X154690000Y-102295000D02*
X154690000Y-102195000D01*
X154690000Y-102195000D02*
X154890000Y-101995000D01*
X155084000Y-138459000D02*
X155084000Y-140649000D01*
X155084000Y-140649000D02*
X155790000Y-142055000D01*
X158114000Y-138459000D02*
X158150000Y-138495000D01*
X155084000Y-133379000D02*
X155274000Y-133379000D01*
X155274000Y-133379000D02*
X156690000Y-134795000D01*
X156690000Y-136853000D02*
X155084000Y-138459000D01*
X156690000Y-134795000D02*
X156690000Y-136853000D01*
D29*
X155084000Y-133379000D02*
X155084000Y-134014000D01*
X194996000Y-116711000D02*
X194996000Y-116076000D01*
D30*
X193390000Y-115295000D02*
X193390000Y-113237000D01*
X193390000Y-113237000D02*
X194996000Y-111631000D01*
X194806000Y-116711000D02*
X193390000Y-115295000D01*
X194996000Y-116711000D02*
X194806000Y-116711000D01*
X191966000Y-111631000D02*
X191930000Y-111595000D01*
X194996000Y-109441000D02*
X194190000Y-108335000D01*
X194996000Y-111631000D02*
X194996000Y-109441000D01*
X195390000Y-147895000D02*
X195190000Y-148095000D01*
X195390000Y-147795000D02*
X195390000Y-147895000D01*
X195790000Y-147395000D02*
X195390000Y-147795000D01*
X197590000Y-147395000D02*
X195790000Y-147395000D01*
X198890000Y-146135000D02*
X198850000Y-146135000D01*
X198850000Y-146135000D02*
X197590000Y-147395000D01*
X195190000Y-148095000D02*
X191090000Y-148095000D01*
X191090000Y-148095000D02*
X190790000Y-148395000D01*
X194490000Y-141855000D02*
X194750000Y-141855000D01*
X194750000Y-141855000D02*
X196790000Y-143495000D01*
X196790000Y-144595000D02*
X198385000Y-146135000D01*
X196790000Y-143495000D02*
X196790000Y-144595000D01*
X198385000Y-146135000D02*
X198890000Y-146135000D01*
X192030000Y-138495000D02*
X195060000Y-138495000D01*
X195060000Y-138495000D02*
X195096000Y-138459000D01*
X192490000Y-130595000D02*
X191850000Y-130595000D01*
X191850000Y-130595000D02*
X189690000Y-133255000D01*
X192490000Y-130595000D02*
X192990000Y-131895000D01*
X192990000Y-131895000D02*
X194474000Y-133379000D01*
X194474000Y-133379000D02*
X195096000Y-133379000D01*
X192030000Y-138495000D02*
X192030000Y-138455000D01*
X189814000Y-133379000D02*
X189690000Y-133255000D01*
X192094000Y-138559000D02*
X192030000Y-138495000D01*
X198890000Y-146135000D02*
X198855000Y-146135000D01*
X191290000Y-147895000D02*
X190790000Y-148395000D01*
X198890000Y-146135000D02*
X198890000Y-146262000D01*
X189690000Y-132747000D02*
X189690000Y-133255000D01*
X192030000Y-138495000D02*
X192030000Y-137987000D01*
X195096000Y-133379000D02*
X194588000Y-133379000D01*
X189690000Y-132747000D02*
X189690000Y-133255000D01*
X195096000Y-138459000D02*
X195731000Y-138459000D01*
X192030000Y-138495000D02*
X192030000Y-138495000D01*
D31*
X198255000Y-146770000D02*
X198890000Y-146135000D01*
D29*
X195136000Y-133339000D02*
X195096000Y-133379000D01*
X165650000Y-101442000D02*
X165690000Y-101442000D01*
D30*
X165490000Y-103795000D02*
X165690000Y-101695000D01*
X165490000Y-105195000D02*
X165490000Y-103795000D01*
X166090000Y-105795000D02*
X165490000Y-105195000D01*
X166390000Y-105795000D02*
X166090000Y-105795000D01*
X165590000Y-146295000D02*
X165590000Y-146803000D01*
X184490000Y-103795000D02*
X184490000Y-103287000D01*
X183690000Y-144295000D02*
X183990000Y-144295000D01*
X183990000Y-144295000D02*
X184590000Y-144895000D01*
X184590000Y-144895000D02*
X184590000Y-146295000D01*
X184590000Y-146295000D02*
X184390000Y-148395000D01*
D29*
X184430000Y-148648000D02*
X184390000Y-148648000D01*
D30*
X164806000Y-111841000D02*
X165060000Y-112095000D01*
X165060000Y-112095000D02*
X165060000Y-111841000D01*
X165060000Y-114225000D02*
X164990000Y-114295000D01*
X165060000Y-112095000D02*
X165060000Y-114225000D01*
X185020000Y-137995000D02*
X185020000Y-135865000D01*
X185020000Y-135865000D02*
X185090000Y-135795000D01*
X185020000Y-137995000D02*
X185020000Y-138249000D01*
X185274000Y-138249000D02*
X185020000Y-137995000D01*
D29*
X162450000Y-114295000D02*
X163085000Y-114295000D01*
D30*
X162450000Y-114295000D02*
X162450000Y-114803000D01*
X161942000Y-114803000D02*
X162450000Y-114295000D01*
X152444000Y-116711000D02*
X151936000Y-116711000D01*
D29*
X160390000Y-114295000D02*
X159990000Y-114295000D01*
X162490000Y-114335000D02*
X162450000Y-114295000D01*
X160390000Y-114295000D02*
X162490000Y-114335000D01*
X153790000Y-115495000D02*
X159190000Y-115495000D01*
X159190000Y-115495000D02*
X160390000Y-114295000D01*
X152574000Y-116711000D02*
X153790000Y-115495000D01*
X152444000Y-116711000D02*
X152574000Y-116711000D01*
X161915000Y-135795000D02*
X162550000Y-135795000D01*
X188165000Y-114295000D02*
X187530000Y-114295000D01*
X197636000Y-133379000D02*
X197506000Y-133379000D01*
X197506000Y-133379000D02*
X196290000Y-134595000D01*
X190890000Y-134595000D02*
X189690000Y-135795000D01*
X196290000Y-134595000D02*
X190890000Y-134595000D01*
X189690000Y-135795000D02*
X187590000Y-135755000D01*
X187590000Y-135755000D02*
X187630000Y-135795000D01*
X189690000Y-135795000D02*
X190090000Y-135795000D01*
D30*
X197636000Y-133379000D02*
X198144000Y-133379000D01*
X188138000Y-135287000D02*
X187630000Y-135795000D01*
X187630000Y-135795000D02*
X187630000Y-135287000D01*
D29*
X187630000Y-135795000D02*
X186995000Y-135795000D01*
X153690000Y-113195000D02*
X153690000Y-110995000D01*
X153690000Y-110995000D02*
X154390000Y-110295000D01*
X154390000Y-110295000D02*
X156590000Y-110295000D01*
X156590000Y-110295000D02*
X158090000Y-108795000D01*
X152714000Y-114171000D02*
X153690000Y-113195000D01*
X152444000Y-114171000D02*
X152714000Y-114171000D01*
D30*
X152544000Y-135919000D02*
X152036000Y-135919000D01*
X197536000Y-114171000D02*
X198044000Y-114171000D01*
D29*
X197636000Y-135919000D02*
X197366000Y-135919000D01*
X197366000Y-135919000D02*
X196390000Y-136895000D01*
X193490000Y-139795000D02*
X191990000Y-141295000D01*
X195690000Y-139795000D02*
X193490000Y-139795000D01*
X196390000Y-139095000D02*
X195690000Y-139795000D01*
X196390000Y-136895000D02*
X196390000Y-139095000D01*
D30*
X160410000Y-106075000D02*
X160590000Y-106255000D01*
X160410000Y-103795000D02*
X160410000Y-106075000D01*
D29*
X159875000Y-146295000D02*
X160470000Y-146295000D01*
X190205000Y-103795000D02*
X189610000Y-103795000D01*
D30*
X189670000Y-146295000D02*
X189670000Y-144015000D01*
X189670000Y-144015000D02*
X189490000Y-143835000D01*
X157870000Y-106035000D02*
X158090000Y-106255000D01*
X157870000Y-103795000D02*
X157870000Y-106035000D01*
X192210000Y-146295000D02*
X192210000Y-144055000D01*
X192210000Y-144055000D02*
X191990000Y-143835000D01*
X163790000Y-112095000D02*
X163536000Y-112095000D01*
X163790000Y-112095000D02*
X163790000Y-112603000D01*
X163790000Y-112095000D02*
X163790000Y-111587000D01*
X163790000Y-110495000D02*
X162090000Y-108795000D01*
X162090000Y-108795000D02*
X160590000Y-108795000D01*
X163790000Y-112095000D02*
X163790000Y-110495000D01*
X186290000Y-137995000D02*
X186290000Y-139595000D01*
X187990000Y-141295000D02*
X189490000Y-141295000D01*
X186290000Y-139595000D02*
X187990000Y-141295000D01*
X186290000Y-137995000D02*
X186290000Y-138503000D01*
X186290000Y-137995000D02*
X186290000Y-137487000D01*
X186290000Y-137995000D02*
X186544000Y-137995000D01*
X155084000Y-130839000D02*
X155084000Y-130101000D01*
X155084000Y-130101000D02*
X155890000Y-129295000D01*
X155890000Y-129295000D02*
X161190000Y-129295000D01*
X161190000Y-129295000D02*
X164490000Y-132595000D01*
D29*
X155719000Y-130839000D02*
X155719000Y-130204000D01*
X194361000Y-119251000D02*
X194361000Y-119886000D01*
D30*
X188890000Y-120795000D02*
X185590000Y-117495000D01*
X194190000Y-120795000D02*
X188890000Y-120795000D01*
X194996000Y-119989000D02*
X194190000Y-120795000D01*
X194996000Y-119251000D02*
X194996000Y-119989000D01*
X152444000Y-111631000D02*
X152952000Y-111631000D01*
X152444000Y-111215002D02*
X152444000Y-111631000D01*
X152444000Y-111631000D02*
X152444000Y-111123000D01*
D29*
X155330000Y-105335000D02*
X155690000Y-105695000D01*
D30*
X155330000Y-105335000D02*
X155690000Y-105695000D01*
X155330000Y-103795000D02*
X155330000Y-105335000D01*
X152544000Y-138459000D02*
X152544000Y-140649000D01*
X152544000Y-140649000D02*
X155790000Y-144595000D01*
X152544000Y-138459000D02*
X152798000Y-138459000D01*
X197536000Y-111631000D02*
X197282000Y-111631000D01*
X197536000Y-109441000D02*
X194190000Y-105795000D01*
X197536000Y-111631000D02*
X197536000Y-109441000D01*
X194750000Y-146295000D02*
X194850000Y-144755000D01*
X194850000Y-144755000D02*
X194490000Y-144395000D01*
D29*
X194850000Y-144755000D02*
X194490000Y-144395000D01*
D30*
X197636000Y-138459000D02*
X197636000Y-138967000D01*
X197636000Y-138874998D02*
X197636000Y-138459000D01*
X197636000Y-138459000D02*
X197128000Y-138459000D01*
D32*
G36*
X153483747Y-103909142D02*
X153304142Y-104088747D01*
X153290000Y-104074605D01*
X153275857Y-104088747D01*
X153096252Y-103909142D01*
X153110395Y-103895000D01*
X153096252Y-103880857D01*
X153275857Y-103701252D01*
X153290000Y-103715395D01*
X153304142Y-103701252D01*
X153483747Y-103880857D01*
X153469605Y-103895000D01*
X153483747Y-103909142D01*
X153483747Y-103909142D01*
G37*
X153483747Y-103909142D02*
X153304142Y-104088747D01*
X153290000Y-104074605D01*
X153275857Y-104088747D01*
X153096252Y-103909142D01*
X153110395Y-103895000D01*
X153096252Y-103880857D01*
X153275857Y-103701252D01*
X153290000Y-103715395D01*
X153304142Y-103701252D01*
X153483747Y-103880857D01*
X153469605Y-103895000D01*
X153483747Y-103909142D01*
G36*
X153583747Y-146209142D02*
X153404142Y-146388747D01*
X153390000Y-146374605D01*
X153375857Y-146388747D01*
X153196252Y-146209142D01*
X153210395Y-146195000D01*
X153196252Y-146180857D01*
X153375857Y-146001252D01*
X153390000Y-146015395D01*
X153404142Y-146001252D01*
X153583747Y-146180857D01*
X153569605Y-146195000D01*
X153583747Y-146209142D01*
X153583747Y-146209142D01*
G37*
X153583747Y-146209142D02*
X153404142Y-146388747D01*
X153390000Y-146374605D01*
X153375857Y-146388747D01*
X153196252Y-146209142D01*
X153210395Y-146195000D01*
X153196252Y-146180857D01*
X153375857Y-146001252D01*
X153390000Y-146015395D01*
X153404142Y-146001252D01*
X153583747Y-146180857D01*
X153569605Y-146195000D01*
X153583747Y-146209142D01*
G36*
X155328848Y-128685000D02*
X155299566Y-128704566D01*
X154676172Y-129327960D01*
X154220400Y-129327960D01*
X153978277Y-129374937D01*
X153765473Y-129514727D01*
X153623023Y-129725760D01*
X153604088Y-129820178D01*
X153432490Y-129632179D01*
X152903027Y-129384032D01*
X152671000Y-129504531D01*
X152671000Y-130712000D01*
X152691000Y-130712000D01*
X152691000Y-130966000D01*
X152671000Y-130966000D01*
X152671000Y-130986000D01*
X152417000Y-130986000D01*
X152417000Y-130966000D01*
X152417000Y-130712000D01*
X152417000Y-129504531D01*
X152184973Y-129384032D01*
X151655510Y-129632179D01*
X151261312Y-130064053D01*
X151089042Y-130479974D01*
X151210183Y-130712000D01*
X152417000Y-130712000D01*
X152417000Y-130966000D01*
X151210183Y-130966000D01*
X151089042Y-131198026D01*
X151261312Y-131613947D01*
X151655510Y-132045821D01*
X151778228Y-132103336D01*
X151454971Y-132319330D01*
X151130115Y-132805511D01*
X151016041Y-133379000D01*
X151130115Y-133952489D01*
X151454971Y-134438670D01*
X151769751Y-134649000D01*
X151454971Y-134859330D01*
X151130115Y-135345511D01*
X151016041Y-135919000D01*
X151130115Y-136492489D01*
X151454971Y-136978670D01*
X151769751Y-137189000D01*
X151454971Y-137399330D01*
X151130115Y-137885511D01*
X151016041Y-138459000D01*
X151130115Y-139032489D01*
X151454971Y-139518670D01*
X151709000Y-139688406D01*
X151709000Y-140649000D01*
X151733023Y-140769771D01*
X151745234Y-140892306D01*
X151764574Y-140928389D01*
X151772561Y-140968541D01*
X151840973Y-141070927D01*
X151899146Y-141179460D01*
X154348969Y-144157588D01*
X154291661Y-144295602D01*
X154291141Y-144891782D01*
X154361943Y-145063136D01*
X154260021Y-145215673D01*
X154224870Y-145180522D01*
X154109409Y-145295982D01*
X154053729Y-145065389D01*
X153570922Y-144897378D01*
X153060572Y-144926917D01*
X152726271Y-145065389D01*
X152673579Y-145283604D01*
X152534415Y-145075330D01*
X152512219Y-145060499D01*
X152665698Y-144996927D01*
X152844327Y-144818299D01*
X152941000Y-144584910D01*
X152941000Y-144332291D01*
X152941000Y-143880750D01*
X152941000Y-143309250D01*
X152941000Y-142857709D01*
X152941000Y-142605090D01*
X152844327Y-142371701D01*
X152665698Y-142193073D01*
X152432309Y-142096400D01*
X151575750Y-142096400D01*
X151417000Y-142255150D01*
X151417000Y-143468000D01*
X152782250Y-143468000D01*
X152941000Y-143309250D01*
X152941000Y-143880750D01*
X152782250Y-143722000D01*
X151417000Y-143722000D01*
X151417000Y-143742000D01*
X151163000Y-143742000D01*
X151163000Y-143722000D01*
X151143000Y-143722000D01*
X151143000Y-143468000D01*
X151163000Y-143468000D01*
X151163000Y-142255150D01*
X151004250Y-142096400D01*
X150685000Y-142096400D01*
X150685000Y-128685000D01*
X155328848Y-128685000D01*
X155328848Y-128685000D01*
G37*
X155328848Y-128685000D02*
X155299566Y-128704566D01*
X154676172Y-129327960D01*
X154220400Y-129327960D01*
X153978277Y-129374937D01*
X153765473Y-129514727D01*
X153623023Y-129725760D01*
X153604088Y-129820178D01*
X153432490Y-129632179D01*
X152903027Y-129384032D01*
X152671000Y-129504531D01*
X152671000Y-130712000D01*
X152691000Y-130712000D01*
X152691000Y-130966000D01*
X152671000Y-130966000D01*
X152671000Y-130986000D01*
X152417000Y-130986000D01*
X152417000Y-130966000D01*
X152417000Y-130712000D01*
X152417000Y-129504531D01*
X152184973Y-129384032D01*
X151655510Y-129632179D01*
X151261312Y-130064053D01*
X151089042Y-130479974D01*
X151210183Y-130712000D01*
X152417000Y-130712000D01*
X152417000Y-130966000D01*
X151210183Y-130966000D01*
X151089042Y-131198026D01*
X151261312Y-131613947D01*
X151655510Y-132045821D01*
X151778228Y-132103336D01*
X151454971Y-132319330D01*
X151130115Y-132805511D01*
X151016041Y-133379000D01*
X151130115Y-133952489D01*
X151454971Y-134438670D01*
X151769751Y-134649000D01*
X151454971Y-134859330D01*
X151130115Y-135345511D01*
X151016041Y-135919000D01*
X151130115Y-136492489D01*
X151454971Y-136978670D01*
X151769751Y-137189000D01*
X151454971Y-137399330D01*
X151130115Y-137885511D01*
X151016041Y-138459000D01*
X151130115Y-139032489D01*
X151454971Y-139518670D01*
X151709000Y-139688406D01*
X151709000Y-140649000D01*
X151733023Y-140769771D01*
X151745234Y-140892306D01*
X151764574Y-140928389D01*
X151772561Y-140968541D01*
X151840973Y-141070927D01*
X151899146Y-141179460D01*
X154348969Y-144157588D01*
X154291661Y-144295602D01*
X154291141Y-144891782D01*
X154361943Y-145063136D01*
X154260021Y-145215673D01*
X154224870Y-145180522D01*
X154109409Y-145295982D01*
X154053729Y-145065389D01*
X153570922Y-144897378D01*
X153060572Y-144926917D01*
X152726271Y-145065389D01*
X152673579Y-145283604D01*
X152534415Y-145075330D01*
X152512219Y-145060499D01*
X152665698Y-144996927D01*
X152844327Y-144818299D01*
X152941000Y-144584910D01*
X152941000Y-144332291D01*
X152941000Y-143880750D01*
X152941000Y-143309250D01*
X152941000Y-142857709D01*
X152941000Y-142605090D01*
X152844327Y-142371701D01*
X152665698Y-142193073D01*
X152432309Y-142096400D01*
X151575750Y-142096400D01*
X151417000Y-142255150D01*
X151417000Y-143468000D01*
X152782250Y-143468000D01*
X152941000Y-143309250D01*
X152941000Y-143880750D01*
X152782250Y-143722000D01*
X151417000Y-143722000D01*
X151417000Y-143742000D01*
X151163000Y-143742000D01*
X151163000Y-143722000D01*
X151143000Y-143722000D01*
X151143000Y-143468000D01*
X151163000Y-143468000D01*
X151163000Y-142255150D01*
X151004250Y-142096400D01*
X150685000Y-142096400D01*
X150685000Y-128685000D01*
X155328848Y-128685000D01*
G36*
X158383747Y-116709142D02*
X158204142Y-116888747D01*
X158190000Y-116874605D01*
X158175857Y-116888747D01*
X157996252Y-116709142D01*
X158010395Y-116695000D01*
X157996252Y-116680857D01*
X158175857Y-116501252D01*
X158190000Y-116515395D01*
X158204142Y-116501252D01*
X158383747Y-116680857D01*
X158369605Y-116695000D01*
X158383747Y-116709142D01*
X158383747Y-116709142D01*
G37*
X158383747Y-116709142D02*
X158204142Y-116888747D01*
X158190000Y-116874605D01*
X158175857Y-116888747D01*
X157996252Y-116709142D01*
X158010395Y-116695000D01*
X157996252Y-116680857D01*
X158175857Y-116501252D01*
X158190000Y-116515395D01*
X158204142Y-116501252D01*
X158383747Y-116680857D01*
X158369605Y-116695000D01*
X158383747Y-116709142D01*
G36*
X161908049Y-101784840D02*
X161804142Y-101888747D01*
X161790000Y-101874605D01*
X161775857Y-101888747D01*
X161596252Y-101709142D01*
X161610395Y-101695000D01*
X161596252Y-101680857D01*
X161775857Y-101501252D01*
X161790000Y-101515395D01*
X161804142Y-101501252D01*
X161897010Y-101594120D01*
X161908049Y-101784840D01*
X161908049Y-101784840D01*
G37*
X161908049Y-101784840D02*
X161804142Y-101888747D01*
X161790000Y-101874605D01*
X161775857Y-101888747D01*
X161596252Y-101709142D01*
X161610395Y-101695000D01*
X161596252Y-101680857D01*
X161775857Y-101501252D01*
X161790000Y-101515395D01*
X161804142Y-101501252D01*
X161897010Y-101594120D01*
X161908049Y-101784840D01*
G36*
X162008049Y-148484840D02*
X161904142Y-148588747D01*
X161890000Y-148574605D01*
X161875857Y-148588747D01*
X161696252Y-148409142D01*
X161710395Y-148395000D01*
X161696252Y-148380857D01*
X161875857Y-148201252D01*
X161890000Y-148215395D01*
X161904142Y-148201252D01*
X161997010Y-148294120D01*
X162008049Y-148484840D01*
X162008049Y-148484840D01*
G37*
X162008049Y-148484840D02*
X161904142Y-148588747D01*
X161890000Y-148574605D01*
X161875857Y-148588747D01*
X161696252Y-148409142D01*
X161710395Y-148395000D01*
X161696252Y-148380857D01*
X161875857Y-148201252D01*
X161890000Y-148215395D01*
X161904142Y-148201252D01*
X161997010Y-148294120D01*
X162008049Y-148484840D01*
G36*
X163383747Y-101709142D02*
X163204142Y-101888747D01*
X163190000Y-101874605D01*
X163175857Y-101888747D01*
X163082989Y-101795879D01*
X163071950Y-101605159D01*
X163175857Y-101501252D01*
X163190000Y-101515395D01*
X163204142Y-101501252D01*
X163383747Y-101680857D01*
X163369605Y-101695000D01*
X163383747Y-101709142D01*
X163383747Y-101709142D01*
G37*
X163383747Y-101709142D02*
X163204142Y-101888747D01*
X163190000Y-101874605D01*
X163175857Y-101888747D01*
X163082989Y-101795879D01*
X163071950Y-101605159D01*
X163175857Y-101501252D01*
X163190000Y-101515395D01*
X163204142Y-101501252D01*
X163383747Y-101680857D01*
X163369605Y-101695000D01*
X163383747Y-101709142D01*
G36*
X163483747Y-148409142D02*
X163304142Y-148588747D01*
X163290000Y-148574605D01*
X163275857Y-148588747D01*
X163182989Y-148495879D01*
X163171950Y-148305159D01*
X163275857Y-148201252D01*
X163290000Y-148215395D01*
X163304142Y-148201252D01*
X163483747Y-148380857D01*
X163469605Y-148395000D01*
X163483747Y-148409142D01*
X163483747Y-148409142D01*
G37*
X163483747Y-148409142D02*
X163304142Y-148588747D01*
X163290000Y-148574605D01*
X163275857Y-148588747D01*
X163182989Y-148495879D01*
X163171950Y-148305159D01*
X163275857Y-148201252D01*
X163290000Y-148215395D01*
X163304142Y-148201252D01*
X163483747Y-148380857D01*
X163469605Y-148395000D01*
X163483747Y-148409142D01*
G36*
X164638570Y-134360040D02*
X164242220Y-134523808D01*
X163820290Y-134945003D01*
X163819904Y-134945930D01*
X163399997Y-134525290D01*
X162849398Y-134296661D01*
X162253218Y-134296141D01*
X161702220Y-134523808D01*
X161520051Y-134705658D01*
X161339997Y-134525290D01*
X161339069Y-134524904D01*
X161759710Y-134104997D01*
X161988339Y-133554398D01*
X161988859Y-132958218D01*
X161761192Y-132407220D01*
X161339997Y-131985290D01*
X160789398Y-131756661D01*
X160776380Y-131756649D01*
X160853729Y-131724611D01*
X160909410Y-131494016D01*
X160190000Y-130774605D01*
X159470590Y-131494016D01*
X159526271Y-131724611D01*
X159929732Y-131865010D01*
X159642220Y-131983808D01*
X159220290Y-132405003D01*
X159199476Y-132455128D01*
X159124870Y-132380522D01*
X159009409Y-132495982D01*
X158953729Y-132265389D01*
X158470922Y-132097378D01*
X157960572Y-132126917D01*
X157626271Y-132265389D01*
X157570590Y-132495984D01*
X158290000Y-133215395D01*
X158304142Y-133201252D01*
X158483747Y-133380857D01*
X158469605Y-133395000D01*
X159189016Y-134114410D01*
X159222376Y-134106354D01*
X159640003Y-134524710D01*
X159640930Y-134525095D01*
X159385649Y-134779931D01*
X159189640Y-134647623D01*
X158940000Y-134597560D01*
X158777614Y-134597560D01*
X158953729Y-134524611D01*
X159009410Y-134294016D01*
X158290000Y-133574605D01*
X158110395Y-133754210D01*
X158110395Y-133395000D01*
X157390984Y-132675590D01*
X157160389Y-132731271D01*
X156992378Y-133214078D01*
X157021917Y-133724428D01*
X157160389Y-134058729D01*
X157390984Y-134114410D01*
X158110395Y-133395000D01*
X158110395Y-133754210D01*
X157570590Y-134294016D01*
X157626271Y-134524611D01*
X157835901Y-134597560D01*
X157640000Y-134597560D01*
X157491459Y-134626380D01*
X157461439Y-134475460D01*
X157461439Y-134475459D01*
X157280434Y-134204566D01*
X156585895Y-133510027D01*
X156611959Y-133379000D01*
X156497885Y-132805511D01*
X156173029Y-132319330D01*
X156157918Y-132309233D01*
X156189723Y-132303063D01*
X156402527Y-132163273D01*
X156544977Y-131952240D01*
X156593638Y-131709587D01*
X156790360Y-131842377D01*
X157040000Y-131892440D01*
X158340000Y-131892440D01*
X158582123Y-131845463D01*
X158794927Y-131705673D01*
X158937377Y-131494640D01*
X158987440Y-131245000D01*
X158987440Y-131082614D01*
X159060389Y-131258729D01*
X159290984Y-131314410D01*
X160010395Y-130595000D01*
X159996252Y-130580857D01*
X160175857Y-130401252D01*
X160190000Y-130415395D01*
X160204142Y-130401252D01*
X160383747Y-130580857D01*
X160369605Y-130595000D01*
X161089016Y-131314410D01*
X161319611Y-131258729D01*
X161487622Y-130775922D01*
X161487472Y-130773340D01*
X162724960Y-132010828D01*
X162724960Y-133712600D01*
X162771937Y-133954723D01*
X162911727Y-134167527D01*
X163122760Y-134309977D01*
X163372400Y-134360040D01*
X164638570Y-134360040D01*
X164638570Y-134360040D01*
G37*
X164638570Y-134360040D02*
X164242220Y-134523808D01*
X163820290Y-134945003D01*
X163819904Y-134945930D01*
X163399997Y-134525290D01*
X162849398Y-134296661D01*
X162253218Y-134296141D01*
X161702220Y-134523808D01*
X161520051Y-134705658D01*
X161339997Y-134525290D01*
X161339069Y-134524904D01*
X161759710Y-134104997D01*
X161988339Y-133554398D01*
X161988859Y-132958218D01*
X161761192Y-132407220D01*
X161339997Y-131985290D01*
X160789398Y-131756661D01*
X160776380Y-131756649D01*
X160853729Y-131724611D01*
X160909410Y-131494016D01*
X160190000Y-130774605D01*
X159470590Y-131494016D01*
X159526271Y-131724611D01*
X159929732Y-131865010D01*
X159642220Y-131983808D01*
X159220290Y-132405003D01*
X159199476Y-132455128D01*
X159124870Y-132380522D01*
X159009409Y-132495982D01*
X158953729Y-132265389D01*
X158470922Y-132097378D01*
X157960572Y-132126917D01*
X157626271Y-132265389D01*
X157570590Y-132495984D01*
X158290000Y-133215395D01*
X158304142Y-133201252D01*
X158483747Y-133380857D01*
X158469605Y-133395000D01*
X159189016Y-134114410D01*
X159222376Y-134106354D01*
X159640003Y-134524710D01*
X159640930Y-134525095D01*
X159385649Y-134779931D01*
X159189640Y-134647623D01*
X158940000Y-134597560D01*
X158777614Y-134597560D01*
X158953729Y-134524611D01*
X159009410Y-134294016D01*
X158290000Y-133574605D01*
X158110395Y-133754210D01*
X158110395Y-133395000D01*
X157390984Y-132675590D01*
X157160389Y-132731271D01*
X156992378Y-133214078D01*
X157021917Y-133724428D01*
X157160389Y-134058729D01*
X157390984Y-134114410D01*
X158110395Y-133395000D01*
X158110395Y-133754210D01*
X157570590Y-134294016D01*
X157626271Y-134524611D01*
X157835901Y-134597560D01*
X157640000Y-134597560D01*
X157491459Y-134626380D01*
X157461439Y-134475460D01*
X157461439Y-134475459D01*
X157280434Y-134204566D01*
X156585895Y-133510027D01*
X156611959Y-133379000D01*
X156497885Y-132805511D01*
X156173029Y-132319330D01*
X156157918Y-132309233D01*
X156189723Y-132303063D01*
X156402527Y-132163273D01*
X156544977Y-131952240D01*
X156593638Y-131709587D01*
X156790360Y-131842377D01*
X157040000Y-131892440D01*
X158340000Y-131892440D01*
X158582123Y-131845463D01*
X158794927Y-131705673D01*
X158937377Y-131494640D01*
X158987440Y-131245000D01*
X158987440Y-131082614D01*
X159060389Y-131258729D01*
X159290984Y-131314410D01*
X160010395Y-130595000D01*
X159996252Y-130580857D01*
X160175857Y-130401252D01*
X160190000Y-130415395D01*
X160204142Y-130401252D01*
X160383747Y-130580857D01*
X160369605Y-130595000D01*
X161089016Y-131314410D01*
X161319611Y-131258729D01*
X161487622Y-130775922D01*
X161487472Y-130773340D01*
X162724960Y-132010828D01*
X162724960Y-133712600D01*
X162771937Y-133954723D01*
X162911727Y-134167527D01*
X163122760Y-134309977D01*
X163372400Y-134360040D01*
X164638570Y-134360040D01*
G36*
X186908049Y-101784840D02*
X186804142Y-101888747D01*
X186790000Y-101874605D01*
X186775857Y-101888747D01*
X186596252Y-101709142D01*
X186610395Y-101695000D01*
X185890984Y-100975590D01*
X185660389Y-101031271D01*
X185587440Y-101240901D01*
X185587440Y-101045000D01*
X185540463Y-100802877D01*
X185463030Y-100685000D01*
X186097388Y-100685000D01*
X186070590Y-100795984D01*
X186790000Y-101515395D01*
X186804142Y-101501252D01*
X186897010Y-101594120D01*
X186908049Y-101784840D01*
X186908049Y-101784840D01*
G37*
X186908049Y-101784840D02*
X186804142Y-101888747D01*
X186790000Y-101874605D01*
X186775857Y-101888747D01*
X186596252Y-101709142D01*
X186610395Y-101695000D01*
X185890984Y-100975590D01*
X185660389Y-101031271D01*
X185587440Y-101240901D01*
X185587440Y-101045000D01*
X185540463Y-100802877D01*
X185463030Y-100685000D01*
X186097388Y-100685000D01*
X186070590Y-100795984D01*
X186790000Y-101515395D01*
X186804142Y-101501252D01*
X186897010Y-101594120D01*
X186908049Y-101784840D01*
G36*
X187008049Y-148484840D02*
X186904142Y-148588747D01*
X186890000Y-148574605D01*
X186875857Y-148588747D01*
X186696252Y-148409142D01*
X186710395Y-148395000D01*
X186696252Y-148380857D01*
X186875857Y-148201252D01*
X186890000Y-148215395D01*
X186904142Y-148201252D01*
X186997010Y-148294120D01*
X187008049Y-148484840D01*
X187008049Y-148484840D01*
G37*
X187008049Y-148484840D02*
X186904142Y-148588747D01*
X186890000Y-148574605D01*
X186875857Y-148588747D01*
X186696252Y-148409142D01*
X186710395Y-148395000D01*
X186696252Y-148380857D01*
X186875857Y-148201252D01*
X186890000Y-148215395D01*
X186904142Y-148201252D01*
X186997010Y-148294120D01*
X187008049Y-148484840D01*
G36*
X188483747Y-148409142D02*
X188304142Y-148588747D01*
X188290000Y-148574605D01*
X188275857Y-148588747D01*
X188182989Y-148495879D01*
X188171950Y-148305159D01*
X188275857Y-148201252D01*
X188290000Y-148215395D01*
X188304142Y-148201252D01*
X188483747Y-148380857D01*
X188469605Y-148395000D01*
X188483747Y-148409142D01*
X188483747Y-148409142D01*
G37*
X188483747Y-148409142D02*
X188304142Y-148588747D01*
X188290000Y-148574605D01*
X188275857Y-148588747D01*
X188182989Y-148495879D01*
X188171950Y-148305159D01*
X188275857Y-148201252D01*
X188290000Y-148215395D01*
X188304142Y-148201252D01*
X188483747Y-148380857D01*
X188469605Y-148395000D01*
X188483747Y-148409142D01*
G36*
X189517117Y-100685000D02*
X189442623Y-100795360D01*
X189392560Y-101045000D01*
X189392560Y-101207385D01*
X189319611Y-101031271D01*
X189089016Y-100975590D01*
X188369605Y-101695000D01*
X188383747Y-101709142D01*
X188204142Y-101888747D01*
X188190000Y-101874605D01*
X188175857Y-101888747D01*
X188082989Y-101795879D01*
X188071950Y-101605159D01*
X188175857Y-101501252D01*
X188190000Y-101515395D01*
X188909410Y-100795984D01*
X188882611Y-100685000D01*
X189517117Y-100685000D01*
X189517117Y-100685000D01*
G37*
X189517117Y-100685000D02*
X189442623Y-100795360D01*
X189392560Y-101045000D01*
X189392560Y-101207385D01*
X189319611Y-101031271D01*
X189089016Y-100975590D01*
X188369605Y-101695000D01*
X188383747Y-101709142D01*
X188204142Y-101888747D01*
X188190000Y-101874605D01*
X188175857Y-101888747D01*
X188082989Y-101795879D01*
X188071950Y-101605159D01*
X188175857Y-101501252D01*
X188190000Y-101515395D01*
X188909410Y-100795984D01*
X188882611Y-100685000D01*
X189517117Y-100685000D01*
G36*
X192083747Y-133409142D02*
X191904142Y-133588747D01*
X191890000Y-133574605D01*
X191875857Y-133588747D01*
X191696252Y-133409142D01*
X191710395Y-133395000D01*
X191696252Y-133380857D01*
X191875857Y-133201252D01*
X191890000Y-133215395D01*
X191904142Y-133201252D01*
X192083747Y-133380857D01*
X192069605Y-133395000D01*
X192083747Y-133409142D01*
X192083747Y-133409142D01*
G37*
X192083747Y-133409142D02*
X191904142Y-133588747D01*
X191890000Y-133574605D01*
X191875857Y-133588747D01*
X191696252Y-133409142D01*
X191710395Y-133395000D01*
X191696252Y-133380857D01*
X191875857Y-133201252D01*
X191890000Y-133215395D01*
X191904142Y-133201252D01*
X192083747Y-133380857D01*
X192069605Y-133395000D01*
X192083747Y-133409142D01*
G36*
X193922081Y-117780766D02*
X193890277Y-117786937D01*
X193677473Y-117926727D01*
X193535023Y-118137760D01*
X193486361Y-118380412D01*
X193289640Y-118247623D01*
X193087622Y-118207110D01*
X193087622Y-116875922D01*
X193058083Y-116365572D01*
X192919611Y-116031271D01*
X192689016Y-115975590D01*
X191969605Y-116695000D01*
X192689016Y-117414410D01*
X192919611Y-117358729D01*
X193087622Y-116875922D01*
X193087622Y-118207110D01*
X193040000Y-118197560D01*
X192509410Y-118197560D01*
X191740000Y-118197560D01*
X191497877Y-118244537D01*
X191285073Y-118384327D01*
X191142623Y-118595360D01*
X191092560Y-118845000D01*
X191092560Y-119007385D01*
X191019611Y-118831271D01*
X190789016Y-118775590D01*
X190069605Y-119495000D01*
X190083747Y-119509142D01*
X189904142Y-119688747D01*
X189890000Y-119674605D01*
X189875857Y-119688747D01*
X189696252Y-119509142D01*
X189710395Y-119495000D01*
X188990984Y-118775590D01*
X188760389Y-118831271D01*
X188592378Y-119314078D01*
X188592527Y-119316659D01*
X187355040Y-118079172D01*
X187355040Y-116377400D01*
X187308063Y-116135277D01*
X187168273Y-115922473D01*
X186957240Y-115780023D01*
X186707600Y-115729960D01*
X185441429Y-115729960D01*
X185837780Y-115566192D01*
X186259710Y-115144997D01*
X186260095Y-115144069D01*
X186680003Y-115564710D01*
X187230602Y-115793339D01*
X187826782Y-115793859D01*
X188377780Y-115566192D01*
X188559948Y-115384341D01*
X188740003Y-115564710D01*
X188740930Y-115565095D01*
X188320290Y-115985003D01*
X188091661Y-116535602D01*
X188091141Y-117131782D01*
X188318808Y-117682780D01*
X188740003Y-118104710D01*
X189290602Y-118333339D01*
X189303619Y-118333350D01*
X189226271Y-118365389D01*
X189170590Y-118595984D01*
X189890000Y-119315395D01*
X190609410Y-118595984D01*
X190553729Y-118365389D01*
X190150267Y-118224989D01*
X190437780Y-118106192D01*
X190859710Y-117684997D01*
X190880523Y-117634871D01*
X190955130Y-117709478D01*
X191070590Y-117594017D01*
X191126271Y-117824611D01*
X191609078Y-117992622D01*
X192119428Y-117963083D01*
X192453729Y-117824611D01*
X192509410Y-117594016D01*
X191790000Y-116874605D01*
X191775857Y-116888747D01*
X191596252Y-116709142D01*
X191610395Y-116695000D01*
X190890984Y-115975590D01*
X190857623Y-115983645D01*
X190439997Y-115565290D01*
X190439069Y-115564904D01*
X190694350Y-115310068D01*
X190890360Y-115442377D01*
X191140000Y-115492440D01*
X191302385Y-115492440D01*
X191126271Y-115565389D01*
X191070590Y-115795984D01*
X191790000Y-116515395D01*
X192509410Y-115795984D01*
X192453729Y-115565389D01*
X192244098Y-115492440D01*
X192440000Y-115492440D01*
X192588540Y-115463619D01*
X192618561Y-115614541D01*
X192799566Y-115885434D01*
X193494104Y-116579972D01*
X193468041Y-116711000D01*
X193582115Y-117284489D01*
X193906971Y-117770670D01*
X193922081Y-117780766D01*
X193922081Y-117780766D01*
G37*
X193922081Y-117780766D02*
X193890277Y-117786937D01*
X193677473Y-117926727D01*
X193535023Y-118137760D01*
X193486361Y-118380412D01*
X193289640Y-118247623D01*
X193087622Y-118207110D01*
X193087622Y-116875922D01*
X193058083Y-116365572D01*
X192919611Y-116031271D01*
X192689016Y-115975590D01*
X191969605Y-116695000D01*
X192689016Y-117414410D01*
X192919611Y-117358729D01*
X193087622Y-116875922D01*
X193087622Y-118207110D01*
X193040000Y-118197560D01*
X192509410Y-118197560D01*
X191740000Y-118197560D01*
X191497877Y-118244537D01*
X191285073Y-118384327D01*
X191142623Y-118595360D01*
X191092560Y-118845000D01*
X191092560Y-119007385D01*
X191019611Y-118831271D01*
X190789016Y-118775590D01*
X190069605Y-119495000D01*
X190083747Y-119509142D01*
X189904142Y-119688747D01*
X189890000Y-119674605D01*
X189875857Y-119688747D01*
X189696252Y-119509142D01*
X189710395Y-119495000D01*
X188990984Y-118775590D01*
X188760389Y-118831271D01*
X188592378Y-119314078D01*
X188592527Y-119316659D01*
X187355040Y-118079172D01*
X187355040Y-116377400D01*
X187308063Y-116135277D01*
X187168273Y-115922473D01*
X186957240Y-115780023D01*
X186707600Y-115729960D01*
X185441429Y-115729960D01*
X185837780Y-115566192D01*
X186259710Y-115144997D01*
X186260095Y-115144069D01*
X186680003Y-115564710D01*
X187230602Y-115793339D01*
X187826782Y-115793859D01*
X188377780Y-115566192D01*
X188559948Y-115384341D01*
X188740003Y-115564710D01*
X188740930Y-115565095D01*
X188320290Y-115985003D01*
X188091661Y-116535602D01*
X188091141Y-117131782D01*
X188318808Y-117682780D01*
X188740003Y-118104710D01*
X189290602Y-118333339D01*
X189303619Y-118333350D01*
X189226271Y-118365389D01*
X189170590Y-118595984D01*
X189890000Y-119315395D01*
X190609410Y-118595984D01*
X190553729Y-118365389D01*
X190150267Y-118224989D01*
X190437780Y-118106192D01*
X190859710Y-117684997D01*
X190880523Y-117634871D01*
X190955130Y-117709478D01*
X191070590Y-117594017D01*
X191126271Y-117824611D01*
X191609078Y-117992622D01*
X192119428Y-117963083D01*
X192453729Y-117824611D01*
X192509410Y-117594016D01*
X191790000Y-116874605D01*
X191775857Y-116888747D01*
X191596252Y-116709142D01*
X191610395Y-116695000D01*
X190890984Y-115975590D01*
X190857623Y-115983645D01*
X190439997Y-115565290D01*
X190439069Y-115564904D01*
X190694350Y-115310068D01*
X190890360Y-115442377D01*
X191140000Y-115492440D01*
X191302385Y-115492440D01*
X191126271Y-115565389D01*
X191070590Y-115795984D01*
X191790000Y-116515395D01*
X192509410Y-115795984D01*
X192453729Y-115565389D01*
X192244098Y-115492440D01*
X192440000Y-115492440D01*
X192588540Y-115463619D01*
X192618561Y-115614541D01*
X192799566Y-115885434D01*
X193494104Y-116579972D01*
X193468041Y-116711000D01*
X193582115Y-117284489D01*
X193906971Y-117770670D01*
X193922081Y-117780766D01*
G36*
X196883747Y-103909142D02*
X196704142Y-104088747D01*
X196690000Y-104074605D01*
X196675857Y-104088747D01*
X196496252Y-103909142D01*
X196510395Y-103895000D01*
X196496252Y-103880857D01*
X196675857Y-103701252D01*
X196690000Y-103715395D01*
X196704142Y-103701252D01*
X196883747Y-103880857D01*
X196869605Y-103895000D01*
X196883747Y-103909142D01*
X196883747Y-103909142D01*
G37*
X196883747Y-103909142D02*
X196704142Y-104088747D01*
X196690000Y-104074605D01*
X196675857Y-104088747D01*
X196496252Y-103909142D01*
X196510395Y-103895000D01*
X196496252Y-103880857D01*
X196675857Y-103701252D01*
X196690000Y-103715395D01*
X196704142Y-103701252D01*
X196883747Y-103880857D01*
X196869605Y-103895000D01*
X196883747Y-103909142D01*
G36*
X196983747Y-146209142D02*
X196804142Y-146388747D01*
X196790000Y-146374605D01*
X196775857Y-146388747D01*
X196596252Y-146209142D01*
X196610395Y-146195000D01*
X196596252Y-146180857D01*
X196775857Y-146001252D01*
X196790000Y-146015395D01*
X196804142Y-146001252D01*
X196983747Y-146180857D01*
X196969605Y-146195000D01*
X196983747Y-146209142D01*
X196983747Y-146209142D01*
G37*
X196983747Y-146209142D02*
X196804142Y-146388747D01*
X196790000Y-146374605D01*
X196775857Y-146388747D01*
X196596252Y-146209142D01*
X196610395Y-146195000D01*
X196596252Y-146180857D01*
X196775857Y-146001252D01*
X196790000Y-146015395D01*
X196804142Y-146001252D01*
X196983747Y-146180857D01*
X196969605Y-146195000D01*
X196983747Y-146209142D01*
G36*
X199315000Y-121315000D02*
X198990958Y-121315000D01*
X198990958Y-119610026D01*
X198869817Y-119378000D01*
X197663000Y-119378000D01*
X197663000Y-120585469D01*
X197895027Y-120705968D01*
X198424490Y-120457821D01*
X198818688Y-120025947D01*
X198990958Y-119610026D01*
X198990958Y-121315000D01*
X194850868Y-121315000D01*
X195403828Y-120762040D01*
X195859600Y-120762040D01*
X196101723Y-120715063D01*
X196314527Y-120575273D01*
X196456977Y-120364240D01*
X196475911Y-120269821D01*
X196647510Y-120457821D01*
X197176973Y-120705968D01*
X197409000Y-120585469D01*
X197409000Y-119378000D01*
X197389000Y-119378000D01*
X197389000Y-119124000D01*
X197409000Y-119124000D01*
X197409000Y-119104000D01*
X197663000Y-119104000D01*
X197663000Y-119124000D01*
X198869817Y-119124000D01*
X198990958Y-118891974D01*
X198818688Y-118476053D01*
X198424490Y-118044179D01*
X198301771Y-117986663D01*
X198625029Y-117770670D01*
X198949885Y-117284489D01*
X199063959Y-116711000D01*
X198949885Y-116137511D01*
X198625029Y-115651330D01*
X198310248Y-115441000D01*
X198625029Y-115230670D01*
X198949885Y-114744489D01*
X199063959Y-114171000D01*
X198949885Y-113597511D01*
X198625029Y-113111330D01*
X198310248Y-112901000D01*
X198625029Y-112690670D01*
X198949885Y-112204489D01*
X199063959Y-111631000D01*
X198949885Y-111057511D01*
X198663000Y-110628157D01*
X198663000Y-107834850D01*
X198663000Y-106622000D01*
X197297750Y-106622000D01*
X197139000Y-106780750D01*
X197139000Y-107232291D01*
X197139000Y-107484910D01*
X197235673Y-107718299D01*
X197414302Y-107896927D01*
X197647691Y-107993600D01*
X198504250Y-107993600D01*
X198663000Y-107834850D01*
X198663000Y-110628157D01*
X198625029Y-110571330D01*
X198371000Y-110401593D01*
X198371000Y-109441000D01*
X198342645Y-109298453D01*
X198320428Y-109154822D01*
X198310985Y-109139287D01*
X198307439Y-109121459D01*
X198226695Y-109000617D01*
X198151201Y-108876418D01*
X195660225Y-106162103D01*
X195688339Y-106094398D01*
X195688859Y-105498218D01*
X195544803Y-105149575D01*
X195709670Y-105039415D01*
X195819978Y-104874326D01*
X195855130Y-104909478D01*
X195970590Y-104794017D01*
X196026271Y-105024611D01*
X196509078Y-105192622D01*
X197019428Y-105163083D01*
X197353729Y-105024611D01*
X197406420Y-104806395D01*
X197545585Y-105014670D01*
X197567780Y-105029500D01*
X197414302Y-105093073D01*
X197235673Y-105271701D01*
X197139000Y-105505090D01*
X197139000Y-105757709D01*
X197139000Y-106209250D01*
X197297750Y-106368000D01*
X198663000Y-106368000D01*
X198663000Y-106348000D01*
X198917000Y-106348000D01*
X198917000Y-106368000D01*
X198937000Y-106368000D01*
X198937000Y-106622000D01*
X198917000Y-106622000D01*
X198917000Y-107834850D01*
X199075750Y-107993600D01*
X199315000Y-107993600D01*
X199315000Y-121315000D01*
X199315000Y-121315000D01*
G37*
X199315000Y-121315000D02*
X198990958Y-121315000D01*
X198990958Y-119610026D01*
X198869817Y-119378000D01*
X197663000Y-119378000D01*
X197663000Y-120585469D01*
X197895027Y-120705968D01*
X198424490Y-120457821D01*
X198818688Y-120025947D01*
X198990958Y-119610026D01*
X198990958Y-121315000D01*
X194850868Y-121315000D01*
X195403828Y-120762040D01*
X195859600Y-120762040D01*
X196101723Y-120715063D01*
X196314527Y-120575273D01*
X196456977Y-120364240D01*
X196475911Y-120269821D01*
X196647510Y-120457821D01*
X197176973Y-120705968D01*
X197409000Y-120585469D01*
X197409000Y-119378000D01*
X197389000Y-119378000D01*
X197389000Y-119124000D01*
X197409000Y-119124000D01*
X197409000Y-119104000D01*
X197663000Y-119104000D01*
X197663000Y-119124000D01*
X198869817Y-119124000D01*
X198990958Y-118891974D01*
X198818688Y-118476053D01*
X198424490Y-118044179D01*
X198301771Y-117986663D01*
X198625029Y-117770670D01*
X198949885Y-117284489D01*
X199063959Y-116711000D01*
X198949885Y-116137511D01*
X198625029Y-115651330D01*
X198310248Y-115441000D01*
X198625029Y-115230670D01*
X198949885Y-114744489D01*
X199063959Y-114171000D01*
X198949885Y-113597511D01*
X198625029Y-113111330D01*
X198310248Y-112901000D01*
X198625029Y-112690670D01*
X198949885Y-112204489D01*
X199063959Y-111631000D01*
X198949885Y-111057511D01*
X198663000Y-110628157D01*
X198663000Y-107834850D01*
X198663000Y-106622000D01*
X197297750Y-106622000D01*
X197139000Y-106780750D01*
X197139000Y-107232291D01*
X197139000Y-107484910D01*
X197235673Y-107718299D01*
X197414302Y-107896927D01*
X197647691Y-107993600D01*
X198504250Y-107993600D01*
X198663000Y-107834850D01*
X198663000Y-110628157D01*
X198625029Y-110571330D01*
X198371000Y-110401593D01*
X198371000Y-109441000D01*
X198342645Y-109298453D01*
X198320428Y-109154822D01*
X198310985Y-109139287D01*
X198307439Y-109121459D01*
X198226695Y-109000617D01*
X198151201Y-108876418D01*
X195660225Y-106162103D01*
X195688339Y-106094398D01*
X195688859Y-105498218D01*
X195544803Y-105149575D01*
X195709670Y-105039415D01*
X195819978Y-104874326D01*
X195855130Y-104909478D01*
X195970590Y-104794017D01*
X196026271Y-105024611D01*
X196509078Y-105192622D01*
X197019428Y-105163083D01*
X197353729Y-105024611D01*
X197406420Y-104806395D01*
X197545585Y-105014670D01*
X197567780Y-105029500D01*
X197414302Y-105093073D01*
X197235673Y-105271701D01*
X197139000Y-105505090D01*
X197139000Y-105757709D01*
X197139000Y-106209250D01*
X197297750Y-106368000D01*
X198663000Y-106368000D01*
X198663000Y-106348000D01*
X198917000Y-106348000D01*
X198917000Y-106368000D01*
X198937000Y-106368000D01*
X198937000Y-106622000D01*
X198917000Y-106622000D01*
X198917000Y-107834850D01*
X199075750Y-107993600D01*
X199315000Y-107993600D01*
X199315000Y-121315000D01*
G36*
X199315000Y-142096400D02*
X199175750Y-142096400D01*
X199017000Y-142255150D01*
X199017000Y-143468000D01*
X199037000Y-143468000D01*
X199037000Y-143722000D01*
X199017000Y-143722000D01*
X199017000Y-143742000D01*
X198763000Y-143742000D01*
X198763000Y-143722000D01*
X198743000Y-143722000D01*
X198743000Y-143468000D01*
X198763000Y-143468000D01*
X198763000Y-142255150D01*
X198604250Y-142096400D01*
X197747691Y-142096400D01*
X197514302Y-142193073D01*
X197335673Y-142371701D01*
X197239000Y-142605090D01*
X197239000Y-142784591D01*
X195988666Y-141779420D01*
X195988859Y-141558218D01*
X195761192Y-141007220D01*
X195339997Y-140585290D01*
X195267050Y-140555000D01*
X195690000Y-140555000D01*
X195980839Y-140497148D01*
X196227401Y-140332401D01*
X196843199Y-139716603D01*
X197033152Y-139843526D01*
X197606641Y-139957600D01*
X197665359Y-139957600D01*
X198238848Y-139843526D01*
X198725029Y-139518670D01*
X199049885Y-139032489D01*
X199163959Y-138459000D01*
X199049885Y-137885511D01*
X198725029Y-137399330D01*
X198410248Y-137189000D01*
X198725029Y-136978670D01*
X199049885Y-136492489D01*
X199163959Y-135919000D01*
X199049885Y-135345511D01*
X198725029Y-134859330D01*
X198410248Y-134649000D01*
X198725029Y-134438670D01*
X199049885Y-133952489D01*
X199163959Y-133379000D01*
X199049885Y-132805511D01*
X198725029Y-132319330D01*
X198401771Y-132103336D01*
X198524490Y-132045821D01*
X198918688Y-131613947D01*
X199090958Y-131198026D01*
X199090958Y-130479974D01*
X198918688Y-130064053D01*
X198524490Y-129632179D01*
X197995027Y-129384032D01*
X197763000Y-129504531D01*
X197763000Y-130712000D01*
X198969817Y-130712000D01*
X199090958Y-130479974D01*
X199090958Y-131198026D01*
X198969817Y-130966000D01*
X197763000Y-130966000D01*
X197763000Y-130986000D01*
X197509000Y-130986000D01*
X197509000Y-130966000D01*
X197489000Y-130966000D01*
X197489000Y-130712000D01*
X197509000Y-130712000D01*
X197509000Y-129504531D01*
X197276973Y-129384032D01*
X196747510Y-129632179D01*
X196576746Y-129819263D01*
X196560063Y-129733277D01*
X196420273Y-129520473D01*
X196209240Y-129378023D01*
X195959600Y-129327960D01*
X194232400Y-129327960D01*
X193990277Y-129374937D01*
X193777473Y-129514727D01*
X193696078Y-129635309D01*
X193600673Y-129490073D01*
X193389640Y-129347623D01*
X193140000Y-129297560D01*
X191840000Y-129297560D01*
X191597877Y-129344537D01*
X191385073Y-129484327D01*
X191242623Y-129695360D01*
X191192560Y-129945000D01*
X191192560Y-130080011D01*
X191185051Y-130089258D01*
X191119611Y-129931271D01*
X190889016Y-129875590D01*
X190709410Y-130055195D01*
X190709410Y-129695984D01*
X190653729Y-129465389D01*
X190170922Y-129297378D01*
X189660572Y-129326917D01*
X189326271Y-129465389D01*
X189270590Y-129695984D01*
X189990000Y-130415395D01*
X190709410Y-129695984D01*
X190709410Y-130055195D01*
X190169605Y-130595000D01*
X190183747Y-130609142D01*
X190004142Y-130788747D01*
X189990000Y-130774605D01*
X189810395Y-130954210D01*
X189810395Y-130595000D01*
X189090984Y-129875590D01*
X188860389Y-129931271D01*
X188692378Y-130414078D01*
X188721917Y-130924428D01*
X188860389Y-131258729D01*
X189090984Y-131314410D01*
X189810395Y-130595000D01*
X189810395Y-130954210D01*
X189270590Y-131494016D01*
X189326271Y-131724611D01*
X189416937Y-131756161D01*
X189393218Y-131756141D01*
X188842220Y-131983808D01*
X188420290Y-132405003D01*
X188191661Y-132955602D01*
X188191141Y-133551782D01*
X188418808Y-134102780D01*
X188840003Y-134524710D01*
X188840930Y-134525095D01*
X188692926Y-134672841D01*
X188495814Y-134541135D01*
X188479997Y-134525290D01*
X188459137Y-134516628D01*
X188457540Y-134515561D01*
X188455672Y-134515189D01*
X187929398Y-134296661D01*
X187900499Y-134296635D01*
X187900499Y-128785104D01*
X187290000Y-128174605D01*
X187110395Y-128354210D01*
X187110395Y-127995000D01*
X186499896Y-127384501D01*
X186284783Y-127421648D01*
X186141888Y-127849972D01*
X186173783Y-128300375D01*
X186284783Y-128568352D01*
X186499896Y-128605499D01*
X187110395Y-127995000D01*
X187110395Y-128354210D01*
X186679501Y-128785104D01*
X186716648Y-129000217D01*
X187144972Y-129143112D01*
X187595375Y-129111217D01*
X187863352Y-129000217D01*
X187900499Y-128785104D01*
X187900499Y-134296635D01*
X187333218Y-134296141D01*
X186782220Y-134523808D01*
X186360290Y-134945003D01*
X186359904Y-134945930D01*
X185939997Y-134525290D01*
X185542031Y-134360040D01*
X186807600Y-134360040D01*
X187049723Y-134313063D01*
X187262527Y-134173273D01*
X187404977Y-133962240D01*
X187455040Y-133712600D01*
X187455040Y-131477400D01*
X187408063Y-131235277D01*
X187268273Y-131022473D01*
X187057240Y-130880023D01*
X186807600Y-130829960D01*
X185898112Y-130829960D01*
X185898112Y-128140028D01*
X185866217Y-127689625D01*
X185798112Y-127525205D01*
X185798112Y-122240028D01*
X185766217Y-121789625D01*
X185655217Y-121521648D01*
X185440104Y-121484501D01*
X185260499Y-121664106D01*
X185260499Y-121304896D01*
X185223352Y-121089783D01*
X184795028Y-120946888D01*
X184344625Y-120978783D01*
X184076648Y-121089783D01*
X184039501Y-121304896D01*
X184650000Y-121915395D01*
X185260499Y-121304896D01*
X185260499Y-121664106D01*
X184829605Y-122095000D01*
X185440104Y-122705499D01*
X185655217Y-122668352D01*
X185798112Y-122240028D01*
X185798112Y-127525205D01*
X185755217Y-127421648D01*
X185540104Y-127384501D01*
X185360499Y-127564106D01*
X185360499Y-127204896D01*
X185323352Y-126989783D01*
X185260499Y-126968814D01*
X185260499Y-122885104D01*
X184650000Y-122274605D01*
X184470395Y-122454210D01*
X184470395Y-122095000D01*
X183859896Y-121484501D01*
X183644783Y-121521648D01*
X183501888Y-121949972D01*
X183533783Y-122400375D01*
X183644783Y-122668352D01*
X183859896Y-122705499D01*
X184470395Y-122095000D01*
X184470395Y-122454210D01*
X184039501Y-122885104D01*
X184076648Y-123100217D01*
X184504972Y-123243112D01*
X184955375Y-123211217D01*
X185223352Y-123100217D01*
X185260499Y-122885104D01*
X185260499Y-126968814D01*
X184895028Y-126846888D01*
X184444625Y-126878783D01*
X184176648Y-126989783D01*
X184139501Y-127204896D01*
X184750000Y-127815395D01*
X185360499Y-127204896D01*
X185360499Y-127564106D01*
X184929605Y-127995000D01*
X185540104Y-128605499D01*
X185755217Y-128568352D01*
X185898112Y-128140028D01*
X185898112Y-130829960D01*
X185360499Y-130829960D01*
X185360499Y-128785104D01*
X184750000Y-128174605D01*
X184570395Y-128354210D01*
X184570395Y-127995000D01*
X183959896Y-127384501D01*
X183744783Y-127421648D01*
X183601888Y-127849972D01*
X183633783Y-128300375D01*
X183744783Y-128568352D01*
X183959896Y-128605499D01*
X184570395Y-127995000D01*
X184570395Y-128354210D01*
X184139501Y-128785104D01*
X184176648Y-129000217D01*
X184604972Y-129143112D01*
X185055375Y-129111217D01*
X185323352Y-129000217D01*
X185360499Y-128785104D01*
X185360499Y-130829960D01*
X184572400Y-130829960D01*
X184330277Y-130876937D01*
X184117473Y-131016727D01*
X183975023Y-131227760D01*
X183966174Y-131271884D01*
X183963173Y-130504767D01*
X183532533Y-129465111D01*
X183358112Y-129354636D01*
X183358112Y-128140028D01*
X183326217Y-127689625D01*
X183258112Y-127525205D01*
X183215217Y-127421648D01*
X183000104Y-127384501D01*
X182820499Y-127564106D01*
X182820499Y-127204896D01*
X182783352Y-126989783D01*
X182355028Y-126846888D01*
X181904625Y-126878783D01*
X181636648Y-126989783D01*
X181599501Y-127204896D01*
X182210000Y-127815395D01*
X182820499Y-127204896D01*
X182820499Y-127564106D01*
X182389605Y-127995000D01*
X183000104Y-128605499D01*
X183215217Y-128568352D01*
X183358112Y-128140028D01*
X183358112Y-129354636D01*
X183135786Y-129213819D01*
X182956181Y-129393424D01*
X182956181Y-129034214D01*
X182815764Y-128812520D01*
X182820499Y-128785104D01*
X182760219Y-128724824D01*
X182704889Y-128637467D01*
X182650639Y-128615244D01*
X182210000Y-128174605D01*
X182195857Y-128188747D01*
X182016252Y-128009142D01*
X182030395Y-127995000D01*
X181419896Y-127384501D01*
X181204783Y-127421648D01*
X181061888Y-127849972D01*
X181086994Y-128204509D01*
X180796220Y-128205647D01*
X180818112Y-128140028D01*
X180786217Y-127689625D01*
X180675217Y-127421648D01*
X180460104Y-127384501D01*
X180280499Y-127564106D01*
X180280499Y-127204896D01*
X180243352Y-126989783D01*
X179815028Y-126846888D01*
X179364625Y-126878783D01*
X179096648Y-126989783D01*
X179059501Y-127204896D01*
X179670000Y-127815395D01*
X180280499Y-127204896D01*
X180280499Y-127564106D01*
X179849605Y-127995000D01*
X179863747Y-128009142D01*
X179684142Y-128188747D01*
X179670000Y-128174605D01*
X179059501Y-128785104D01*
X179096648Y-129000217D01*
X179206455Y-129036850D01*
X181080000Y-130910395D01*
X182956181Y-129034214D01*
X182956181Y-129393424D01*
X181259605Y-131090000D01*
X183135786Y-132966181D01*
X183532533Y-132714889D01*
X183924960Y-131756905D01*
X183924960Y-133712600D01*
X183971937Y-133954723D01*
X184111727Y-134167527D01*
X184322760Y-134309977D01*
X184572400Y-134360040D01*
X184638570Y-134360040D01*
X184242220Y-134523808D01*
X183820290Y-134945003D01*
X183591661Y-135495602D01*
X183591141Y-136091782D01*
X183818808Y-136642780D01*
X183920052Y-136744201D01*
X183877000Y-136776932D01*
X183877000Y-137868000D01*
X183897000Y-137868000D01*
X183897000Y-138122000D01*
X183877000Y-138122000D01*
X183877000Y-139213068D01*
X184043935Y-139339981D01*
X184380761Y-139175358D01*
X184604949Y-139325156D01*
X185020000Y-139407715D01*
X185435051Y-139325156D01*
X185455000Y-139311826D01*
X185455000Y-139595000D01*
X185518561Y-139914541D01*
X185699566Y-140185434D01*
X187399566Y-141885434D01*
X187670459Y-142066439D01*
X187670460Y-142066439D01*
X187990000Y-142130000D01*
X188213527Y-142130000D01*
X188218808Y-142142780D01*
X188640003Y-142564710D01*
X188640930Y-142565095D01*
X188220290Y-142985003D01*
X187991661Y-143535602D01*
X187991141Y-144131782D01*
X188218808Y-144682780D01*
X188600563Y-145065201D01*
X188403539Y-145360069D01*
X188032036Y-144944268D01*
X187504791Y-144690291D01*
X187489026Y-144687642D01*
X187257000Y-144808783D01*
X187257000Y-146168000D01*
X187277000Y-146168000D01*
X187277000Y-146422000D01*
X187257000Y-146422000D01*
X187257000Y-146442000D01*
X187003000Y-146442000D01*
X187003000Y-146422000D01*
X186983000Y-146422000D01*
X186983000Y-146168000D01*
X187003000Y-146168000D01*
X187003000Y-144808783D01*
X186770974Y-144687642D01*
X186755209Y-144690291D01*
X186227964Y-144944268D01*
X186070326Y-145120701D01*
X186054063Y-145036877D01*
X185914273Y-144824073D01*
X185703240Y-144681623D01*
X185453600Y-144631560D01*
X185372598Y-144631560D01*
X185361439Y-144575460D01*
X185361439Y-144575459D01*
X185188581Y-144316759D01*
X185188859Y-143998218D01*
X184961192Y-143447220D01*
X184539997Y-143025290D01*
X184539069Y-143024904D01*
X184959710Y-142604997D01*
X185188339Y-142054398D01*
X185188859Y-141458218D01*
X184961192Y-140907220D01*
X184539997Y-140485290D01*
X183989398Y-140256661D01*
X183623000Y-140256341D01*
X183623000Y-139213068D01*
X183623000Y-138122000D01*
X183623000Y-137868000D01*
X183623000Y-136776932D01*
X183456065Y-136650019D01*
X183072889Y-136837294D01*
X182956181Y-136974286D01*
X182956181Y-133145786D01*
X181080000Y-131269605D01*
X179203819Y-133145786D01*
X179455111Y-133542533D01*
X180517342Y-133977664D01*
X181665233Y-133973173D01*
X182704889Y-133542533D01*
X182956181Y-133145786D01*
X182956181Y-136974286D01*
X182796580Y-137161627D01*
X182665420Y-137567010D01*
X182665420Y-137868000D01*
X183623000Y-137868000D01*
X183623000Y-138122000D01*
X182665420Y-138122000D01*
X182665420Y-138422990D01*
X182796580Y-138828373D01*
X183072889Y-139152706D01*
X183456065Y-139339981D01*
X183623000Y-139213068D01*
X183623000Y-140256341D01*
X183393218Y-140256141D01*
X182842220Y-140483808D01*
X182420290Y-140905003D01*
X182325162Y-141134096D01*
X182325162Y-139809833D01*
X182183117Y-139466057D01*
X181920327Y-139202808D01*
X181576799Y-139060162D01*
X181204833Y-139059838D01*
X180964980Y-139158942D01*
X180964980Y-138890900D01*
X180940326Y-138763834D01*
X180964980Y-138640900D01*
X180964980Y-138240900D01*
X180944668Y-138136213D01*
X180952540Y-138117210D01*
X180952540Y-138049650D01*
X180921935Y-138019045D01*
X180918003Y-137998777D01*
X180778213Y-137785973D01*
X180637366Y-137690900D01*
X180793790Y-137690900D01*
X180952540Y-137532150D01*
X180952540Y-137464590D01*
X180855867Y-137231201D01*
X180685450Y-137060785D01*
X180743769Y-136892031D01*
X180743326Y-136891512D01*
X180743769Y-136890231D01*
X180743769Y-136289769D01*
X180743326Y-136288487D01*
X180743769Y-136287969D01*
X180602108Y-135878051D01*
X180314361Y-135553548D01*
X179940478Y-135369832D01*
X179769540Y-135496366D01*
X179769540Y-135498166D01*
X179769540Y-136462100D01*
X179769540Y-136463900D01*
X180595103Y-136463900D01*
X180743769Y-136289769D01*
X180743769Y-136890231D01*
X180595103Y-136716100D01*
X179769540Y-136716100D01*
X179769540Y-136717900D01*
X179769540Y-136736100D01*
X179515540Y-136736100D01*
X179515540Y-136717900D01*
X179515540Y-136716100D01*
X179515540Y-136463900D01*
X179515540Y-136462100D01*
X179515540Y-135498166D01*
X179515540Y-135496366D01*
X179344602Y-135369832D01*
X178970719Y-135553548D01*
X178682972Y-135878051D01*
X178541311Y-136287969D01*
X178541753Y-136288487D01*
X178541311Y-136289769D01*
X178689977Y-136463900D01*
X179515540Y-136463900D01*
X179515540Y-136716100D01*
X178689977Y-136716100D01*
X178541311Y-136890231D01*
X178541753Y-136891512D01*
X178541311Y-136892031D01*
X178599629Y-137060785D01*
X178429213Y-137231201D01*
X178332540Y-137464590D01*
X178332540Y-137532150D01*
X178491290Y-137690900D01*
X178648596Y-137690900D01*
X178512613Y-137780227D01*
X178370163Y-137991260D01*
X178364953Y-138017236D01*
X178332540Y-138049650D01*
X178332540Y-138117210D01*
X178340871Y-138137323D01*
X178320100Y-138240900D01*
X178320100Y-138640900D01*
X178344753Y-138767965D01*
X178320100Y-138890900D01*
X178320100Y-139290900D01*
X178344753Y-139417965D01*
X178320100Y-139540900D01*
X178320100Y-139940900D01*
X178344753Y-140067965D01*
X178320100Y-140190900D01*
X178320100Y-140590900D01*
X178367077Y-140833023D01*
X178506867Y-141045827D01*
X178602648Y-141110480D01*
X178541311Y-141287969D01*
X178541753Y-141288487D01*
X178541311Y-141289769D01*
X178689977Y-141463900D01*
X179515540Y-141463900D01*
X179515540Y-141462100D01*
X179515540Y-141443900D01*
X179769540Y-141443900D01*
X179769540Y-141462100D01*
X179769540Y-141463900D01*
X180595103Y-141463900D01*
X180743769Y-141289769D01*
X180743326Y-141288487D01*
X180743769Y-141287969D01*
X180722318Y-141225900D01*
X180994100Y-141225900D01*
X181313640Y-141162339D01*
X181313641Y-141162339D01*
X181584534Y-140981334D01*
X181678333Y-140887534D01*
X181918943Y-140788117D01*
X182182192Y-140525327D01*
X182324838Y-140181799D01*
X182325162Y-139809833D01*
X182325162Y-141134096D01*
X182191661Y-141455602D01*
X182191141Y-142051782D01*
X182418808Y-142602780D01*
X182840003Y-143024710D01*
X182840930Y-143025095D01*
X182420290Y-143445003D01*
X182191661Y-143995602D01*
X182191284Y-144427137D01*
X181656467Y-144205062D01*
X180743769Y-144204265D01*
X180743769Y-141892031D01*
X180743326Y-141891512D01*
X180743769Y-141890231D01*
X180595103Y-141716100D01*
X179769540Y-141716100D01*
X179769540Y-141717900D01*
X179769540Y-142681834D01*
X179769540Y-142683634D01*
X179940478Y-142810168D01*
X180314361Y-142626452D01*
X180602108Y-142301949D01*
X180743769Y-141892031D01*
X180743769Y-144204265D01*
X180508569Y-144204060D01*
X179515540Y-144614371D01*
X179515540Y-142683634D01*
X179515540Y-142681834D01*
X179515540Y-141717900D01*
X179515540Y-141716100D01*
X178689977Y-141716100D01*
X178541311Y-141890231D01*
X178541753Y-141891512D01*
X178541311Y-141892031D01*
X178682972Y-142301949D01*
X178970719Y-142626452D01*
X179344602Y-142810168D01*
X179515540Y-142683634D01*
X179515540Y-144614371D01*
X179447665Y-144642417D01*
X178685000Y-145403751D01*
X178685000Y-144000000D01*
X178632857Y-143737862D01*
X178484368Y-143515632D01*
X178262138Y-143367143D01*
X178078047Y-143330524D01*
X178109908Y-143303663D01*
X178311659Y-142892774D01*
X178311133Y-142892045D01*
X178311659Y-142890974D01*
X178311659Y-142289026D01*
X178311133Y-142287954D01*
X178311659Y-142287226D01*
X178311659Y-135892774D01*
X178311133Y-135892045D01*
X178311659Y-135890974D01*
X178185494Y-135716100D01*
X177069540Y-135716100D01*
X177069540Y-135717900D01*
X177069540Y-136724100D01*
X177069540Y-136725900D01*
X177344540Y-136725900D01*
X177769218Y-136590902D01*
X178109908Y-136303663D01*
X178311659Y-135892774D01*
X178311659Y-142287226D01*
X178109908Y-141876337D01*
X177769218Y-141589098D01*
X177344540Y-141454100D01*
X177069540Y-141454100D01*
X177069540Y-141455900D01*
X177069540Y-142462100D01*
X177069540Y-142463900D01*
X178185494Y-142463900D01*
X178311659Y-142289026D01*
X178311659Y-142890974D01*
X178185494Y-142716100D01*
X177069540Y-142716100D01*
X177069540Y-142717900D01*
X177069540Y-142736100D01*
X176815540Y-142736100D01*
X176815540Y-142717900D01*
X176815540Y-142716100D01*
X176795540Y-142716100D01*
X176795540Y-142463900D01*
X176815540Y-142463900D01*
X176815540Y-142462100D01*
X176815540Y-141455900D01*
X176815540Y-141454100D01*
X176685000Y-141454100D01*
X176685000Y-136725900D01*
X176815540Y-136725900D01*
X176815540Y-136724100D01*
X176815540Y-135717900D01*
X176815540Y-135716100D01*
X176795540Y-135716100D01*
X176795540Y-135463900D01*
X176815540Y-135463900D01*
X176815540Y-135462100D01*
X176815540Y-135443900D01*
X177069540Y-135443900D01*
X177069540Y-135462100D01*
X177069540Y-135463900D01*
X178185494Y-135463900D01*
X178311659Y-135289026D01*
X178311133Y-135287954D01*
X178311659Y-135287226D01*
X178109908Y-134876337D01*
X177882965Y-134685000D01*
X178000000Y-134685000D01*
X178262138Y-134632857D01*
X178484368Y-134484368D01*
X178632857Y-134262138D01*
X178685000Y-134000000D01*
X178685000Y-132751329D01*
X179024214Y-132966181D01*
X180900395Y-131090000D01*
X179024214Y-129213819D01*
X178685000Y-129428670D01*
X178685000Y-128571843D01*
X178879896Y-128605499D01*
X179490395Y-127995000D01*
X178879896Y-127384501D01*
X178664783Y-127421648D01*
X178583788Y-127664426D01*
X178484368Y-127515632D01*
X178262138Y-127367143D01*
X178000000Y-127315000D01*
X177630395Y-127315000D01*
X177740499Y-127204896D01*
X177703352Y-126989783D01*
X177275028Y-126846888D01*
X176824625Y-126878783D01*
X176556648Y-126989783D01*
X176519501Y-127204896D01*
X176629605Y-127315000D01*
X173550395Y-127315000D01*
X173660499Y-127204896D01*
X173623352Y-126989783D01*
X173195028Y-126846888D01*
X172744625Y-126878783D01*
X172476648Y-126989783D01*
X172439501Y-127204896D01*
X172549605Y-127315000D01*
X172000000Y-127315000D01*
X171737862Y-127367143D01*
X171545797Y-127495476D01*
X171515217Y-127421648D01*
X171300104Y-127384501D01*
X171120499Y-127564106D01*
X171120499Y-127204896D01*
X171083352Y-126989783D01*
X170655028Y-126846888D01*
X170204625Y-126878783D01*
X169936648Y-126989783D01*
X169899501Y-127204896D01*
X170510000Y-127815395D01*
X171120499Y-127204896D01*
X171120499Y-127564106D01*
X170689605Y-127995000D01*
X170703747Y-128009142D01*
X170524142Y-128188747D01*
X170510000Y-128174605D01*
X170495857Y-128188747D01*
X170316252Y-128009142D01*
X170330395Y-127995000D01*
X169719896Y-127384501D01*
X169504783Y-127421648D01*
X169361888Y-127849972D01*
X169386916Y-128203414D01*
X169096586Y-128204550D01*
X169118112Y-128140028D01*
X169086217Y-127689625D01*
X168975217Y-127421648D01*
X168760104Y-127384501D01*
X168580499Y-127564106D01*
X168580499Y-127204896D01*
X168543352Y-126989783D01*
X168115028Y-126846888D01*
X167664625Y-126878783D01*
X167396648Y-126989783D01*
X167359501Y-127204896D01*
X167970000Y-127815395D01*
X168580499Y-127204896D01*
X168580499Y-127564106D01*
X168149605Y-127995000D01*
X168163747Y-128009142D01*
X167984142Y-128188747D01*
X167970000Y-128174605D01*
X167790395Y-128354209D01*
X167790395Y-127995000D01*
X167179896Y-127384501D01*
X166964783Y-127421648D01*
X166821888Y-127849972D01*
X166853783Y-128300375D01*
X166964783Y-128568352D01*
X167179896Y-128605499D01*
X167790395Y-127995000D01*
X167790395Y-128354209D01*
X167529784Y-128614820D01*
X167475111Y-128637467D01*
X167419780Y-128724824D01*
X167359501Y-128785104D01*
X167364235Y-128812520D01*
X167223819Y-129034214D01*
X169100000Y-130910395D01*
X170958435Y-129051959D01*
X171083352Y-129000217D01*
X171120498Y-128785106D01*
X171120499Y-128785107D01*
X171236726Y-128901334D01*
X171315000Y-128823060D01*
X171315000Y-129314662D01*
X171155786Y-129213819D01*
X171120499Y-129249106D01*
X169279605Y-131090000D01*
X171155786Y-132966181D01*
X171315000Y-132865337D01*
X171315000Y-134000000D01*
X171367143Y-134262138D01*
X171515632Y-134484368D01*
X171737862Y-134632857D01*
X172000000Y-134685000D01*
X172297034Y-134685000D01*
X172070092Y-134876337D01*
X171868341Y-135287226D01*
X171868866Y-135287954D01*
X171868341Y-135289026D01*
X171994506Y-135463900D01*
X173110460Y-135463900D01*
X173110460Y-135462100D01*
X173110460Y-135443900D01*
X173315000Y-135443900D01*
X173315000Y-142736100D01*
X173110460Y-142736100D01*
X173110460Y-142717900D01*
X173110460Y-142716100D01*
X173110460Y-142463900D01*
X173110460Y-142462100D01*
X173110460Y-141455900D01*
X173110460Y-141454100D01*
X173110460Y-136725900D01*
X173110460Y-136724100D01*
X173110460Y-135717900D01*
X173110460Y-135716100D01*
X171994506Y-135716100D01*
X171868341Y-135890974D01*
X171868866Y-135892045D01*
X171868341Y-135892774D01*
X172070092Y-136303663D01*
X172410782Y-136590902D01*
X172835460Y-136725900D01*
X173110460Y-136725900D01*
X173110460Y-141454100D01*
X172835460Y-141454100D01*
X172410782Y-141589098D01*
X172070092Y-141876337D01*
X171868341Y-142287226D01*
X171868866Y-142287954D01*
X171868341Y-142289026D01*
X171994506Y-142463900D01*
X173110460Y-142463900D01*
X173110460Y-142716100D01*
X171994506Y-142716100D01*
X171868341Y-142890974D01*
X171868866Y-142892045D01*
X171868341Y-142892774D01*
X172070092Y-143303663D01*
X172083538Y-143315000D01*
X172000000Y-143315000D01*
X171737862Y-143367143D01*
X171638689Y-143433408D01*
X171638689Y-141892031D01*
X171638246Y-141891512D01*
X171638689Y-141890231D01*
X171490023Y-141716100D01*
X170664460Y-141716100D01*
X170664460Y-141717900D01*
X170664460Y-142681834D01*
X170664460Y-142683634D01*
X170835398Y-142810168D01*
X171209281Y-142626452D01*
X171497028Y-142301949D01*
X171638689Y-141892031D01*
X171638689Y-143433408D01*
X171515632Y-143515632D01*
X171367143Y-143737862D01*
X171315000Y-144000000D01*
X171315000Y-145224675D01*
X170736604Y-144645269D01*
X169676467Y-144205062D01*
X169120979Y-144204577D01*
X169124383Y-143830431D01*
X169497023Y-143354689D01*
X169548152Y-143253560D01*
X169611110Y-143159338D01*
X169621046Y-143109386D01*
X169644025Y-143063937D01*
X169652562Y-142950943D01*
X169674671Y-142839798D01*
X169664734Y-142789846D01*
X169668572Y-142739063D01*
X169633217Y-142631400D01*
X169611110Y-142520258D01*
X169582815Y-142477911D01*
X169566926Y-142429525D01*
X169557381Y-142418419D01*
X169560305Y-142251060D01*
X169577892Y-142301949D01*
X169865639Y-142626452D01*
X170239522Y-142810168D01*
X170410460Y-142683634D01*
X170410460Y-142681834D01*
X170410460Y-141717900D01*
X170410460Y-141716100D01*
X170390460Y-141716100D01*
X170390460Y-141463900D01*
X170410460Y-141463900D01*
X170410460Y-141462100D01*
X170410460Y-141443900D01*
X170664460Y-141443900D01*
X170664460Y-141462100D01*
X170664460Y-141463900D01*
X171490023Y-141463900D01*
X171638689Y-141289769D01*
X171638246Y-141288487D01*
X171638689Y-141287969D01*
X171580370Y-141119214D01*
X171750787Y-140948799D01*
X171847460Y-140715410D01*
X171847460Y-140647850D01*
X171688710Y-140489100D01*
X171531403Y-140489100D01*
X171667387Y-140399773D01*
X171809837Y-140188740D01*
X171815046Y-140162763D01*
X171847460Y-140130350D01*
X171847460Y-140062790D01*
X171839128Y-140042676D01*
X171859900Y-139939100D01*
X171859900Y-139539100D01*
X171835246Y-139412034D01*
X171859900Y-139289100D01*
X171859900Y-138889100D01*
X171835246Y-138762034D01*
X171859900Y-138639100D01*
X171859900Y-138239100D01*
X171835246Y-138112034D01*
X171859900Y-137989100D01*
X171859900Y-137589100D01*
X171812923Y-137346977D01*
X171673133Y-137134173D01*
X171577351Y-137069519D01*
X171638689Y-136892031D01*
X171638246Y-136891512D01*
X171638689Y-136890231D01*
X171638689Y-136289769D01*
X171638246Y-136288487D01*
X171638689Y-136287969D01*
X171497028Y-135878051D01*
X171209281Y-135553548D01*
X170976181Y-135439008D01*
X170976181Y-133145786D01*
X169100000Y-131269605D01*
X167223819Y-133145786D01*
X167475111Y-133542533D01*
X168537342Y-133977664D01*
X169685233Y-133973173D01*
X170724889Y-133542533D01*
X170976181Y-133145786D01*
X170976181Y-135439008D01*
X170835398Y-135369832D01*
X170664460Y-135496366D01*
X170664460Y-135498166D01*
X170664460Y-136462100D01*
X170664460Y-136463900D01*
X171490023Y-136463900D01*
X171638689Y-136289769D01*
X171638689Y-136890231D01*
X171490023Y-136716100D01*
X170664460Y-136716100D01*
X170664460Y-136717900D01*
X170664460Y-136736100D01*
X170410460Y-136736100D01*
X170410460Y-136717900D01*
X170410460Y-136716100D01*
X170410460Y-136463900D01*
X170410460Y-136462100D01*
X170410460Y-135498166D01*
X170410460Y-135496366D01*
X170239522Y-135369832D01*
X169865639Y-135553548D01*
X169577892Y-135878051D01*
X169436231Y-136287969D01*
X169436673Y-136288487D01*
X169436231Y-136289769D01*
X169584897Y-136463900D01*
X170410460Y-136463900D01*
X170410460Y-136716100D01*
X169584897Y-136716100D01*
X169436231Y-136890231D01*
X169436673Y-136891512D01*
X169436231Y-136892031D01*
X169457681Y-136954100D01*
X168980000Y-136954100D01*
X168660459Y-137017661D01*
X168389566Y-137198666D01*
X168209566Y-137378666D01*
X168144535Y-137475991D01*
X168069044Y-137565456D01*
X167400084Y-138776867D01*
X167514580Y-138422990D01*
X167514580Y-138122000D01*
X167514580Y-137868000D01*
X167514580Y-137567010D01*
X167383420Y-137161627D01*
X167107111Y-136837294D01*
X166723935Y-136650019D01*
X166557000Y-136776932D01*
X166557000Y-137868000D01*
X167514580Y-137868000D01*
X167514580Y-138122000D01*
X166557000Y-138122000D01*
X166557000Y-139213068D01*
X166723935Y-139339981D01*
X167107111Y-139152706D01*
X167349942Y-138867669D01*
X166583019Y-140256480D01*
X166193218Y-140256141D01*
X165642220Y-140483808D01*
X165220290Y-140905003D01*
X164991661Y-141455602D01*
X164991141Y-142051782D01*
X165218808Y-142602780D01*
X165640003Y-143024710D01*
X165640930Y-143025095D01*
X165220290Y-143445003D01*
X164991661Y-143995602D01*
X164991141Y-144591782D01*
X165007576Y-144631560D01*
X164726400Y-144631560D01*
X164484277Y-144678537D01*
X164271473Y-144818327D01*
X164129023Y-145029360D01*
X164110516Y-145121645D01*
X163952036Y-144944268D01*
X163424791Y-144690291D01*
X163409026Y-144687642D01*
X163177000Y-144808783D01*
X163177000Y-146168000D01*
X163197000Y-146168000D01*
X163197000Y-146422000D01*
X163177000Y-146422000D01*
X163177000Y-146442000D01*
X162923000Y-146442000D01*
X162923000Y-146422000D01*
X162903000Y-146422000D01*
X162903000Y-146168000D01*
X162923000Y-146168000D01*
X162923000Y-144808783D01*
X162690974Y-144687642D01*
X162675209Y-144690291D01*
X162147964Y-144944268D01*
X161776460Y-145360069D01*
X161579198Y-145064845D01*
X161959710Y-144684997D01*
X162188339Y-144134398D01*
X162188859Y-143538218D01*
X161961192Y-142987220D01*
X161539997Y-142565290D01*
X161539069Y-142564904D01*
X161959710Y-142144997D01*
X162188339Y-141594398D01*
X162188859Y-140998218D01*
X161961192Y-140447220D01*
X161539997Y-140025290D01*
X161226132Y-139894961D01*
X161537780Y-139766192D01*
X161959710Y-139344997D01*
X162188339Y-138794398D01*
X162188859Y-138198218D01*
X161961192Y-137647220D01*
X161539997Y-137225290D01*
X161247090Y-137103664D01*
X161337780Y-137066192D01*
X161519948Y-136884341D01*
X161700003Y-137064710D01*
X162250602Y-137293339D01*
X162846782Y-137293859D01*
X162882555Y-137279077D01*
X162805420Y-137666865D01*
X162805420Y-138323135D01*
X162887979Y-138738186D01*
X163123086Y-139090049D01*
X163474949Y-139325156D01*
X163890000Y-139407715D01*
X164305051Y-139325156D01*
X164525000Y-139178190D01*
X164744949Y-139325156D01*
X165160000Y-139407715D01*
X165575051Y-139325156D01*
X165799238Y-139175358D01*
X166136065Y-139339981D01*
X166303000Y-139213068D01*
X166303000Y-138122000D01*
X166283000Y-138122000D01*
X166283000Y-137868000D01*
X166303000Y-137868000D01*
X166303000Y-136776932D01*
X166260166Y-136744367D01*
X166359710Y-136644997D01*
X166588339Y-136094398D01*
X166588859Y-135498218D01*
X166361192Y-134947220D01*
X165939997Y-134525290D01*
X165542031Y-134360040D01*
X165607600Y-134360040D01*
X165849723Y-134313063D01*
X166062527Y-134173273D01*
X166204977Y-133962240D01*
X166255040Y-133712600D01*
X166255040Y-131767487D01*
X166647467Y-132714889D01*
X167044214Y-132966181D01*
X168920395Y-131090000D01*
X167044214Y-129213819D01*
X166647467Y-129465111D01*
X166578112Y-129634418D01*
X166578112Y-128140028D01*
X166546217Y-127689625D01*
X166478112Y-127525205D01*
X166478112Y-122240028D01*
X166446217Y-121789625D01*
X166335217Y-121521648D01*
X166120104Y-121484501D01*
X165940499Y-121664106D01*
X165940499Y-121304896D01*
X165903352Y-121089783D01*
X165475028Y-120946888D01*
X165024625Y-120978783D01*
X164756648Y-121089783D01*
X164719501Y-121304896D01*
X165330000Y-121915395D01*
X165940499Y-121304896D01*
X165940499Y-121664106D01*
X165509605Y-122095000D01*
X166120104Y-122705499D01*
X166335217Y-122668352D01*
X166478112Y-122240028D01*
X166478112Y-127525205D01*
X166435217Y-127421648D01*
X166220104Y-127384501D01*
X166040499Y-127564106D01*
X166040499Y-127204896D01*
X166003352Y-126989783D01*
X165940499Y-126968814D01*
X165940499Y-122885104D01*
X165330000Y-122274605D01*
X165150395Y-122454210D01*
X165150395Y-122095000D01*
X164539896Y-121484501D01*
X164324783Y-121521648D01*
X164181888Y-121949972D01*
X164213783Y-122400375D01*
X164324783Y-122668352D01*
X164539896Y-122705499D01*
X165150395Y-122095000D01*
X165150395Y-122454210D01*
X164719501Y-122885104D01*
X164756648Y-123100217D01*
X165184972Y-123243112D01*
X165635375Y-123211217D01*
X165903352Y-123100217D01*
X165940499Y-122885104D01*
X165940499Y-126968814D01*
X165575028Y-126846888D01*
X165124625Y-126878783D01*
X164856648Y-126989783D01*
X164819501Y-127204896D01*
X165430000Y-127815395D01*
X166040499Y-127204896D01*
X166040499Y-127564106D01*
X165609605Y-127995000D01*
X166220104Y-128605499D01*
X166435217Y-128568352D01*
X166578112Y-128140028D01*
X166578112Y-129634418D01*
X166212336Y-130527342D01*
X166215250Y-131272322D01*
X166208063Y-131235277D01*
X166068273Y-131022473D01*
X166040499Y-131003725D01*
X166040499Y-128785104D01*
X165430000Y-128174605D01*
X165250395Y-128354210D01*
X165250395Y-127995000D01*
X164639896Y-127384501D01*
X164424783Y-127421648D01*
X164281888Y-127849972D01*
X164313783Y-128300375D01*
X164424783Y-128568352D01*
X164639896Y-128605499D01*
X165250395Y-127995000D01*
X165250395Y-128354210D01*
X164819501Y-128785104D01*
X164856648Y-129000217D01*
X165284972Y-129143112D01*
X165735375Y-129111217D01*
X166003352Y-129000217D01*
X166040499Y-128785104D01*
X166040499Y-131003725D01*
X165857240Y-130880023D01*
X165607600Y-130829960D01*
X164038112Y-130829960D01*
X164038112Y-128140028D01*
X164006217Y-127689625D01*
X163938112Y-127525205D01*
X163938112Y-122240028D01*
X163906217Y-121789625D01*
X163795217Y-121521648D01*
X163580104Y-121484501D01*
X163400499Y-121664106D01*
X163400499Y-121304896D01*
X163363352Y-121089783D01*
X162935028Y-120946888D01*
X162484625Y-120978783D01*
X162216648Y-121089783D01*
X162179501Y-121304896D01*
X162790000Y-121915395D01*
X163400499Y-121304896D01*
X163400499Y-121664106D01*
X162969605Y-122095000D01*
X163580104Y-122705499D01*
X163795217Y-122668352D01*
X163938112Y-122240028D01*
X163938112Y-127525205D01*
X163895217Y-127421648D01*
X163680104Y-127384501D01*
X163500499Y-127564106D01*
X163500499Y-127204896D01*
X163463352Y-126989783D01*
X163400499Y-126968814D01*
X163400499Y-122885104D01*
X162790000Y-122274605D01*
X162179501Y-122885104D01*
X162216648Y-123100217D01*
X162644972Y-123243112D01*
X163095375Y-123211217D01*
X163363352Y-123100217D01*
X163400499Y-122885104D01*
X163400499Y-126968814D01*
X163035028Y-126846888D01*
X162584625Y-126878783D01*
X162316648Y-126989783D01*
X162279501Y-127204896D01*
X162890000Y-127815395D01*
X163500499Y-127204896D01*
X163500499Y-127564106D01*
X163069605Y-127995000D01*
X163680104Y-128605499D01*
X163895217Y-128568352D01*
X164038112Y-128140028D01*
X164038112Y-130829960D01*
X163905828Y-130829960D01*
X163500499Y-130424631D01*
X163500499Y-128785104D01*
X162890000Y-128174605D01*
X162710395Y-128354210D01*
X162710395Y-127995000D01*
X162099896Y-127384501D01*
X161884783Y-127421648D01*
X161741888Y-127849972D01*
X161773783Y-128300375D01*
X161884783Y-128568352D01*
X162099896Y-128605499D01*
X162710395Y-127995000D01*
X162710395Y-128354210D01*
X162279501Y-128785104D01*
X162316648Y-129000217D01*
X162744972Y-129143112D01*
X163195375Y-129111217D01*
X163463352Y-129000217D01*
X163500499Y-128785104D01*
X163500499Y-130424631D01*
X161780434Y-128704566D01*
X161509541Y-128523561D01*
X161444942Y-128510711D01*
X161484368Y-128484368D01*
X161632857Y-128262138D01*
X161685000Y-128000000D01*
X161685000Y-122427455D01*
X161784783Y-122668352D01*
X161999896Y-122705499D01*
X162610395Y-122095000D01*
X161999896Y-121484501D01*
X161784783Y-121521648D01*
X161662662Y-121887701D01*
X161632857Y-121737862D01*
X161484368Y-121515632D01*
X161387622Y-121450988D01*
X161387622Y-119675922D01*
X161358083Y-119165572D01*
X161219611Y-118831271D01*
X160989016Y-118775590D01*
X160269605Y-119495000D01*
X160989016Y-120214410D01*
X161219611Y-120158729D01*
X161387622Y-119675922D01*
X161387622Y-121450988D01*
X161262138Y-121367143D01*
X161000000Y-121315000D01*
X160809410Y-121315000D01*
X160809410Y-120394016D01*
X160090000Y-119674605D01*
X159370590Y-120394016D01*
X159426271Y-120624611D01*
X159909078Y-120792622D01*
X160419428Y-120763083D01*
X160753729Y-120624611D01*
X160809410Y-120394016D01*
X160809410Y-121315000D01*
X152317000Y-121315000D01*
X152317000Y-120585469D01*
X152317000Y-119378000D01*
X151110183Y-119378000D01*
X150989042Y-119610026D01*
X151161312Y-120025947D01*
X151555510Y-120457821D01*
X152084973Y-120705968D01*
X152317000Y-120585469D01*
X152317000Y-121315000D01*
X150685000Y-121315000D01*
X150685000Y-107993600D01*
X150904250Y-107993600D01*
X151063000Y-107834850D01*
X151063000Y-106622000D01*
X151043000Y-106622000D01*
X151043000Y-106368000D01*
X151063000Y-106368000D01*
X151063000Y-106348000D01*
X151317000Y-106348000D01*
X151317000Y-106368000D01*
X151337000Y-106368000D01*
X151337000Y-106622000D01*
X151317000Y-106622000D01*
X151317000Y-107834850D01*
X151475750Y-107993600D01*
X152332309Y-107993600D01*
X152565698Y-107896927D01*
X152744327Y-107718299D01*
X152841000Y-107484910D01*
X152841000Y-107302907D01*
X154191310Y-108337724D01*
X154191141Y-108531782D01*
X154418808Y-109082780D01*
X154840003Y-109504710D01*
X154912949Y-109535000D01*
X154390000Y-109535000D01*
X154099161Y-109592852D01*
X154017345Y-109647519D01*
X153852598Y-109757599D01*
X153236801Y-110373396D01*
X153046848Y-110246474D01*
X152473359Y-110132400D01*
X152414641Y-110132400D01*
X151841152Y-110246474D01*
X151354971Y-110571330D01*
X151030115Y-111057511D01*
X150916041Y-111631000D01*
X151030115Y-112204489D01*
X151354971Y-112690670D01*
X151669751Y-112901000D01*
X151354971Y-113111330D01*
X151030115Y-113597511D01*
X150916041Y-114171000D01*
X151030115Y-114744489D01*
X151354971Y-115230670D01*
X151669751Y-115441000D01*
X151354971Y-115651330D01*
X151030115Y-116137511D01*
X150916041Y-116711000D01*
X151030115Y-117284489D01*
X151354971Y-117770670D01*
X151678228Y-117986663D01*
X151555510Y-118044179D01*
X151161312Y-118476053D01*
X150989042Y-118891974D01*
X151110183Y-119124000D01*
X152317000Y-119124000D01*
X152317000Y-119104000D01*
X152571000Y-119104000D01*
X152571000Y-119124000D01*
X152591000Y-119124000D01*
X152591000Y-119378000D01*
X152571000Y-119378000D01*
X152571000Y-120585469D01*
X152803027Y-120705968D01*
X153332490Y-120457821D01*
X153503253Y-120270736D01*
X153519937Y-120356723D01*
X153659727Y-120569527D01*
X153870760Y-120711977D01*
X154120400Y-120762040D01*
X155847600Y-120762040D01*
X156089723Y-120715063D01*
X156302527Y-120575273D01*
X156383921Y-120454690D01*
X156479327Y-120599927D01*
X156690360Y-120742377D01*
X156940000Y-120792440D01*
X158240000Y-120792440D01*
X158482123Y-120745463D01*
X158694927Y-120605673D01*
X158837377Y-120394640D01*
X158887440Y-120145000D01*
X158887440Y-120009987D01*
X158894948Y-120000740D01*
X158960389Y-120158729D01*
X159190984Y-120214410D01*
X159910395Y-119495000D01*
X159896252Y-119480857D01*
X160075857Y-119301252D01*
X160090000Y-119315395D01*
X160809410Y-118595984D01*
X160753729Y-118365389D01*
X160663062Y-118333838D01*
X160686782Y-118333859D01*
X161237780Y-118106192D01*
X161659710Y-117684997D01*
X161888339Y-117134398D01*
X161888859Y-116538218D01*
X161661192Y-115987220D01*
X161239997Y-115565290D01*
X161239069Y-115564904D01*
X161387073Y-115417158D01*
X161584185Y-115548864D01*
X161600003Y-115564710D01*
X161620862Y-115573371D01*
X161622460Y-115574439D01*
X161624327Y-115574810D01*
X162150602Y-115793339D01*
X162746782Y-115793859D01*
X163297780Y-115566192D01*
X163719710Y-115144997D01*
X163720095Y-115144069D01*
X164140003Y-115564710D01*
X164537968Y-115729960D01*
X163272400Y-115729960D01*
X163030277Y-115776937D01*
X162817473Y-115916727D01*
X162675023Y-116127760D01*
X162624960Y-116377400D01*
X162624960Y-118612600D01*
X162671937Y-118854723D01*
X162811727Y-119067527D01*
X163022760Y-119209977D01*
X163272400Y-119260040D01*
X165507600Y-119260040D01*
X165749723Y-119213063D01*
X165962527Y-119073273D01*
X166104977Y-118862240D01*
X166113825Y-118818115D01*
X166116827Y-119585233D01*
X166547467Y-120624889D01*
X166944214Y-120876181D01*
X168820395Y-119000000D01*
X166944214Y-117123819D01*
X166547467Y-117375111D01*
X166155040Y-118333094D01*
X166155040Y-116377400D01*
X166108063Y-116135277D01*
X165968273Y-115922473D01*
X165757240Y-115780023D01*
X165507600Y-115729960D01*
X165441429Y-115729960D01*
X165837780Y-115566192D01*
X166259710Y-115144997D01*
X166488339Y-114594398D01*
X166488859Y-113998218D01*
X166261192Y-113447220D01*
X166159947Y-113345798D01*
X166203000Y-113313068D01*
X166203000Y-112222000D01*
X166183000Y-112222000D01*
X166183000Y-111968000D01*
X166203000Y-111968000D01*
X166203000Y-110876932D01*
X166036065Y-110750019D01*
X165699238Y-110914641D01*
X165475051Y-110764844D01*
X165060000Y-110682285D01*
X164644949Y-110764844D01*
X164625000Y-110778173D01*
X164625000Y-110495000D01*
X164561439Y-110175460D01*
X164561439Y-110175459D01*
X164380434Y-109904566D01*
X162680434Y-108204566D01*
X162409541Y-108023561D01*
X162090000Y-107960000D01*
X161866472Y-107960000D01*
X161861192Y-107947220D01*
X161439997Y-107525290D01*
X161439069Y-107524904D01*
X161859710Y-107104997D01*
X162088339Y-106554398D01*
X162088859Y-105958218D01*
X161861192Y-105407220D01*
X161479436Y-105024798D01*
X161676460Y-104729930D01*
X162047964Y-105145732D01*
X162575209Y-105399709D01*
X162590974Y-105402358D01*
X162823000Y-105281217D01*
X162823000Y-103922000D01*
X162803000Y-103922000D01*
X162803000Y-103668000D01*
X162823000Y-103668000D01*
X162823000Y-103648000D01*
X163077000Y-103648000D01*
X163077000Y-103668000D01*
X163097000Y-103668000D01*
X163097000Y-103922000D01*
X163077000Y-103922000D01*
X163077000Y-105281217D01*
X163309026Y-105402358D01*
X163324791Y-105399709D01*
X163852036Y-105145732D01*
X164009673Y-104969298D01*
X164025937Y-105053123D01*
X164165727Y-105265927D01*
X164376760Y-105408377D01*
X164626400Y-105458440D01*
X164707401Y-105458440D01*
X164718561Y-105514541D01*
X164891418Y-105773240D01*
X164891141Y-106091782D01*
X165118808Y-106642780D01*
X165540003Y-107064710D01*
X165540930Y-107065095D01*
X165120290Y-107485003D01*
X164891661Y-108035602D01*
X164891141Y-108631782D01*
X165118808Y-109182780D01*
X165540003Y-109604710D01*
X166090602Y-109833339D01*
X166686782Y-109833859D01*
X167237780Y-109606192D01*
X167659710Y-109184997D01*
X167888339Y-108634398D01*
X167888859Y-108038218D01*
X167661192Y-107487220D01*
X167239997Y-107065290D01*
X167239069Y-107064904D01*
X167659710Y-106644997D01*
X167888339Y-106094398D01*
X167888715Y-105662862D01*
X168423533Y-105884938D01*
X169571431Y-105885940D01*
X170632335Y-105447583D01*
X171315000Y-104766108D01*
X171315000Y-106000000D01*
X171367143Y-106262138D01*
X171515632Y-106484368D01*
X171737862Y-106632857D01*
X172000000Y-106685000D01*
X172090286Y-106685000D01*
X171970092Y-106786337D01*
X171768341Y-107197226D01*
X171768866Y-107197954D01*
X171768341Y-107199026D01*
X171894506Y-107373900D01*
X173010460Y-107373900D01*
X173010460Y-107372100D01*
X173010460Y-107353900D01*
X173264460Y-107353900D01*
X173264460Y-107372100D01*
X173264460Y-107373900D01*
X173284460Y-107373900D01*
X173284460Y-107626100D01*
X173264460Y-107626100D01*
X173264460Y-107627900D01*
X173264460Y-108634100D01*
X173264460Y-108635900D01*
X173315000Y-108635900D01*
X173315000Y-113364100D01*
X173264460Y-113364100D01*
X173264460Y-113365900D01*
X173264460Y-114372100D01*
X173264460Y-114373900D01*
X173284460Y-114373900D01*
X173284460Y-114626100D01*
X173264460Y-114626100D01*
X173264460Y-114627900D01*
X173264460Y-114646100D01*
X173010460Y-114646100D01*
X173010460Y-114627900D01*
X173010460Y-114626100D01*
X173010460Y-114373900D01*
X173010460Y-114372100D01*
X173010460Y-113365900D01*
X173010460Y-113364100D01*
X173010460Y-108635900D01*
X173010460Y-108634100D01*
X173010460Y-107627900D01*
X173010460Y-107626100D01*
X171894506Y-107626100D01*
X171768341Y-107800974D01*
X171768866Y-107802045D01*
X171768341Y-107802774D01*
X171970092Y-108213663D01*
X172310782Y-108500902D01*
X172735460Y-108635900D01*
X173010460Y-108635900D01*
X173010460Y-113364100D01*
X172735460Y-113364100D01*
X172310782Y-113499098D01*
X171970092Y-113786337D01*
X171768341Y-114197226D01*
X171768866Y-114197954D01*
X171768341Y-114199026D01*
X171894506Y-114373900D01*
X173010460Y-114373900D01*
X173010460Y-114626100D01*
X171894506Y-114626100D01*
X171768341Y-114800974D01*
X171768866Y-114802045D01*
X171768341Y-114802774D01*
X171970092Y-115213663D01*
X172090286Y-115315000D01*
X172000000Y-115315000D01*
X171759900Y-115362759D01*
X171759900Y-111849100D01*
X171759900Y-111449100D01*
X171735246Y-111322034D01*
X171759900Y-111199100D01*
X171759900Y-110799100D01*
X171735246Y-110672034D01*
X171759900Y-110549100D01*
X171759900Y-110149100D01*
X171735246Y-110022034D01*
X171759900Y-109899100D01*
X171759900Y-109499100D01*
X171712923Y-109256977D01*
X171573133Y-109044173D01*
X171477351Y-108979519D01*
X171538689Y-108802031D01*
X171538246Y-108801512D01*
X171538689Y-108800231D01*
X171538689Y-108199769D01*
X171538246Y-108198487D01*
X171538689Y-108197969D01*
X171397028Y-107788051D01*
X171109281Y-107463548D01*
X170735398Y-107279832D01*
X170564460Y-107406366D01*
X170564460Y-107408166D01*
X170564460Y-108372100D01*
X170564460Y-108373900D01*
X171390023Y-108373900D01*
X171538689Y-108199769D01*
X171538689Y-108800231D01*
X171390023Y-108626100D01*
X170564460Y-108626100D01*
X170564460Y-108627900D01*
X170564460Y-108646100D01*
X170310460Y-108646100D01*
X170310460Y-108627900D01*
X170310460Y-108626100D01*
X170310460Y-108373900D01*
X170310460Y-108372100D01*
X170310460Y-107408166D01*
X170310460Y-107406366D01*
X170139522Y-107279832D01*
X169765639Y-107463548D01*
X169477892Y-107788051D01*
X169336231Y-108197969D01*
X169336673Y-108198487D01*
X169336231Y-108199769D01*
X169484897Y-108373900D01*
X170310460Y-108373900D01*
X170310460Y-108626100D01*
X169484897Y-108626100D01*
X169336231Y-108800231D01*
X169336673Y-108801512D01*
X169336231Y-108802031D01*
X169357681Y-108864100D01*
X169085900Y-108864100D01*
X168766359Y-108927661D01*
X168495466Y-109108666D01*
X168401666Y-109202465D01*
X168161057Y-109301883D01*
X167897808Y-109564673D01*
X167755162Y-109908201D01*
X167754838Y-110280167D01*
X167896883Y-110623943D01*
X168159673Y-110887192D01*
X168503201Y-111029838D01*
X168875167Y-111030162D01*
X169115020Y-110931057D01*
X169115020Y-111199100D01*
X169139673Y-111326165D01*
X169115020Y-111449100D01*
X169115020Y-111849100D01*
X169135331Y-111953786D01*
X169127460Y-111972790D01*
X169127460Y-112040350D01*
X169158064Y-112070954D01*
X169161997Y-112091223D01*
X169301787Y-112304027D01*
X169442633Y-112399100D01*
X169286210Y-112399100D01*
X169127460Y-112557850D01*
X169127460Y-112625410D01*
X169224133Y-112858799D01*
X169394549Y-113029214D01*
X169336231Y-113197969D01*
X169336673Y-113198487D01*
X169336231Y-113199769D01*
X169484897Y-113373900D01*
X170310460Y-113373900D01*
X170310460Y-113372100D01*
X170310460Y-113353900D01*
X170564460Y-113353900D01*
X170564460Y-113372100D01*
X170564460Y-113373900D01*
X171390023Y-113373900D01*
X171538689Y-113199769D01*
X171538246Y-113198487D01*
X171538689Y-113197969D01*
X171480370Y-113029214D01*
X171650787Y-112858799D01*
X171747460Y-112625410D01*
X171747460Y-112557850D01*
X171588710Y-112399100D01*
X171431403Y-112399100D01*
X171567387Y-112309773D01*
X171709837Y-112098740D01*
X171715046Y-112072763D01*
X171747460Y-112040350D01*
X171747460Y-111972790D01*
X171739128Y-111952676D01*
X171759900Y-111849100D01*
X171759900Y-115362759D01*
X171737862Y-115367143D01*
X171538689Y-115500225D01*
X171538689Y-113802031D01*
X171538246Y-113801512D01*
X171538689Y-113800231D01*
X171390023Y-113626100D01*
X170564460Y-113626100D01*
X170564460Y-113627900D01*
X170564460Y-114591834D01*
X170564460Y-114593634D01*
X170735398Y-114720168D01*
X171109281Y-114536452D01*
X171397028Y-114211949D01*
X171538689Y-113802031D01*
X171538689Y-115500225D01*
X171515632Y-115515632D01*
X171367143Y-115737862D01*
X171315000Y-116000000D01*
X171315000Y-117288000D01*
X171055786Y-117123819D01*
X170876181Y-117303424D01*
X170876181Y-116944214D01*
X170624889Y-116547467D01*
X170310460Y-116418664D01*
X170310460Y-114593634D01*
X170310460Y-114591834D01*
X170310460Y-113627900D01*
X170310460Y-113626100D01*
X169484897Y-113626100D01*
X169336231Y-113800231D01*
X169336673Y-113801512D01*
X169336231Y-113802031D01*
X169477892Y-114211949D01*
X169765639Y-114536452D01*
X170139522Y-114720168D01*
X170310460Y-114593634D01*
X170310460Y-116418664D01*
X169562658Y-116112336D01*
X168414767Y-116116827D01*
X167414580Y-116531118D01*
X167414580Y-112522990D01*
X167414580Y-112222000D01*
X167414580Y-111968000D01*
X167414580Y-111667010D01*
X167283420Y-111261627D01*
X167007111Y-110937294D01*
X166623935Y-110750019D01*
X166457000Y-110876932D01*
X166457000Y-111968000D01*
X167414580Y-111968000D01*
X167414580Y-112222000D01*
X166457000Y-112222000D01*
X166457000Y-113313068D01*
X166623935Y-113439981D01*
X167007111Y-113252706D01*
X167283420Y-112928373D01*
X167414580Y-112522990D01*
X167414580Y-116531118D01*
X167375111Y-116547467D01*
X167123819Y-116944214D01*
X169000000Y-118820395D01*
X170876181Y-116944214D01*
X170876181Y-117303424D01*
X169179605Y-119000000D01*
X171055786Y-120876181D01*
X171315000Y-120711999D01*
X171315000Y-121504341D01*
X171200104Y-121484501D01*
X171020499Y-121664106D01*
X170589605Y-122095000D01*
X170603747Y-122109142D01*
X170424142Y-122288747D01*
X170410000Y-122274605D01*
X170395857Y-122288747D01*
X170216252Y-122109142D01*
X170230395Y-122095000D01*
X170216252Y-122080857D01*
X170395857Y-121901252D01*
X170410000Y-121915395D01*
X171020499Y-121304896D01*
X170983352Y-121089783D01*
X170873544Y-121053149D01*
X169000000Y-119179605D01*
X167123819Y-121055786D01*
X167264235Y-121277479D01*
X167259501Y-121304896D01*
X167319780Y-121365175D01*
X167375111Y-121452533D01*
X167429360Y-121474755D01*
X167870000Y-121915395D01*
X167884142Y-121901252D01*
X168063747Y-122080857D01*
X168049605Y-122095000D01*
X168063747Y-122109142D01*
X167884142Y-122288747D01*
X167870000Y-122274605D01*
X167690395Y-122454210D01*
X167690395Y-122095000D01*
X167079896Y-121484501D01*
X166864783Y-121521648D01*
X166721888Y-121949972D01*
X166753783Y-122400375D01*
X166864783Y-122668352D01*
X167079896Y-122705499D01*
X167690395Y-122095000D01*
X167690395Y-122454210D01*
X167259501Y-122885104D01*
X167296648Y-123100217D01*
X167724972Y-123243112D01*
X168175375Y-123211217D01*
X168369286Y-123130896D01*
X168369286Y-126730000D01*
X183010714Y-126730000D01*
X183010714Y-122827346D01*
X183016334Y-122821726D01*
X183010714Y-122816106D01*
X183010714Y-122760000D01*
X182954608Y-122760000D01*
X182900106Y-122705498D01*
X183115217Y-122668352D01*
X183258112Y-122240028D01*
X183226217Y-121789625D01*
X183115217Y-121521648D01*
X182900104Y-121484501D01*
X182856181Y-121528424D01*
X182289605Y-122095000D01*
X182303747Y-122109142D01*
X182124142Y-122288747D01*
X182110000Y-122274605D01*
X182095857Y-122288747D01*
X181916252Y-122109142D01*
X181930395Y-122095000D01*
X181916252Y-122080857D01*
X182095857Y-121901252D01*
X182110000Y-121915395D01*
X182550215Y-121475179D01*
X182604889Y-121452533D01*
X182660219Y-121365175D01*
X182720499Y-121304896D01*
X182715764Y-121277479D01*
X182856181Y-121055786D01*
X180980000Y-119179605D01*
X179121564Y-121038040D01*
X178996648Y-121089783D01*
X178959501Y-121304896D01*
X179570000Y-121915395D01*
X179584142Y-121901252D01*
X179763747Y-122080857D01*
X179749605Y-122095000D01*
X179763747Y-122109142D01*
X179584142Y-122288747D01*
X179570000Y-122274605D01*
X179555857Y-122288747D01*
X179376252Y-122109142D01*
X179390395Y-122095000D01*
X178779896Y-121484501D01*
X178685000Y-121500888D01*
X178685000Y-120724667D01*
X178924214Y-120876181D01*
X180800395Y-119000000D01*
X178924214Y-117123819D01*
X178685000Y-117275332D01*
X178685000Y-116000000D01*
X178632857Y-115737862D01*
X178484368Y-115515632D01*
X178262138Y-115367143D01*
X178000000Y-115315000D01*
X177889713Y-115315000D01*
X178009908Y-115213663D01*
X178211659Y-114802774D01*
X178211133Y-114802045D01*
X178211659Y-114800974D01*
X178211659Y-114199026D01*
X178211133Y-114197954D01*
X178211659Y-114197226D01*
X178211659Y-107802774D01*
X178211133Y-107802045D01*
X178211659Y-107800974D01*
X178085494Y-107626100D01*
X176969540Y-107626100D01*
X176969540Y-107627900D01*
X176969540Y-108634100D01*
X176969540Y-108635900D01*
X177244540Y-108635900D01*
X177669218Y-108500902D01*
X178009908Y-108213663D01*
X178211659Y-107802774D01*
X178211659Y-114197226D01*
X178009908Y-113786337D01*
X177669218Y-113499098D01*
X177244540Y-113364100D01*
X176969540Y-113364100D01*
X176969540Y-113365900D01*
X176969540Y-114372100D01*
X176969540Y-114373900D01*
X178085494Y-114373900D01*
X178211659Y-114199026D01*
X178211659Y-114800974D01*
X178085494Y-114626100D01*
X176969540Y-114626100D01*
X176969540Y-114627900D01*
X176969540Y-114646100D01*
X176715540Y-114646100D01*
X176715540Y-114627900D01*
X176715540Y-114626100D01*
X176695540Y-114626100D01*
X176695540Y-114373900D01*
X176715540Y-114373900D01*
X176715540Y-114372100D01*
X176715540Y-113365900D01*
X176715540Y-113364100D01*
X176685000Y-113364100D01*
X176685000Y-108635900D01*
X176715540Y-108635900D01*
X176715540Y-108634100D01*
X176715540Y-107627900D01*
X176715540Y-107626100D01*
X176695540Y-107626100D01*
X176695540Y-107373900D01*
X176715540Y-107373900D01*
X176715540Y-107372100D01*
X176715540Y-107353900D01*
X176969540Y-107353900D01*
X176969540Y-107372100D01*
X176969540Y-107373900D01*
X178085494Y-107373900D01*
X178211659Y-107199026D01*
X178211133Y-107197954D01*
X178211659Y-107197226D01*
X178009908Y-106786337D01*
X177889713Y-106685000D01*
X178000000Y-106685000D01*
X178262138Y-106632857D01*
X178484368Y-106484368D01*
X178632857Y-106262138D01*
X178685000Y-106000000D01*
X178685000Y-104785184D01*
X179343396Y-105444731D01*
X180403533Y-105884938D01*
X180959020Y-105885422D01*
X180955616Y-106259567D01*
X180582977Y-106735311D01*
X180531845Y-106836442D01*
X180468890Y-106930662D01*
X180458954Y-106980610D01*
X180435974Y-107026063D01*
X180427436Y-107139061D01*
X180405329Y-107250202D01*
X180415264Y-107300153D01*
X180411428Y-107350937D01*
X180446782Y-107458600D01*
X180468890Y-107569742D01*
X180497184Y-107612087D01*
X180513074Y-107660476D01*
X180522618Y-107671581D01*
X180519694Y-107838939D01*
X180502108Y-107788051D01*
X180214361Y-107463548D01*
X179840478Y-107279832D01*
X179669540Y-107406366D01*
X179669540Y-107408166D01*
X179669540Y-108372100D01*
X179669540Y-108373900D01*
X179689540Y-108373900D01*
X179689540Y-108626100D01*
X179669540Y-108626100D01*
X179669540Y-108627900D01*
X179669540Y-108646100D01*
X179415540Y-108646100D01*
X179415540Y-108627900D01*
X179415540Y-108626100D01*
X179415540Y-108373900D01*
X179415540Y-108372100D01*
X179415540Y-107408166D01*
X179415540Y-107406366D01*
X179244602Y-107279832D01*
X178870719Y-107463548D01*
X178582972Y-107788051D01*
X178441311Y-108197969D01*
X178441753Y-108198487D01*
X178441311Y-108199769D01*
X178589977Y-108373900D01*
X179415540Y-108373900D01*
X179415540Y-108626100D01*
X178589977Y-108626100D01*
X178441311Y-108800231D01*
X178441753Y-108801512D01*
X178441311Y-108802031D01*
X178499629Y-108970785D01*
X178329213Y-109141201D01*
X178232540Y-109374590D01*
X178232540Y-109442150D01*
X178391290Y-109600900D01*
X178548596Y-109600900D01*
X178412613Y-109690227D01*
X178270163Y-109901260D01*
X178264953Y-109927236D01*
X178232540Y-109959650D01*
X178232540Y-110027210D01*
X178240871Y-110047323D01*
X178220100Y-110150900D01*
X178220100Y-110550900D01*
X178244753Y-110677965D01*
X178220100Y-110800900D01*
X178220100Y-111200900D01*
X178244753Y-111327965D01*
X178220100Y-111450900D01*
X178220100Y-111850900D01*
X178244753Y-111977965D01*
X178220100Y-112100900D01*
X178220100Y-112500900D01*
X178267077Y-112743023D01*
X178406867Y-112955827D01*
X178502648Y-113020480D01*
X178441311Y-113197969D01*
X178441753Y-113198487D01*
X178441311Y-113199769D01*
X178589977Y-113373900D01*
X179415540Y-113373900D01*
X179415540Y-113372100D01*
X179415540Y-113353900D01*
X179669540Y-113353900D01*
X179669540Y-113372100D01*
X179669540Y-113373900D01*
X180495103Y-113373900D01*
X180643769Y-113199769D01*
X180643326Y-113198487D01*
X180643769Y-113197969D01*
X180622318Y-113135900D01*
X181100000Y-113135900D01*
X181419540Y-113072339D01*
X181419541Y-113072339D01*
X181690434Y-112891334D01*
X181870434Y-112711334D01*
X181935463Y-112614010D01*
X182010956Y-112524545D01*
X182679915Y-111313132D01*
X182565420Y-111667010D01*
X182565420Y-111968000D01*
X183523000Y-111968000D01*
X183523000Y-110876932D01*
X183356065Y-110750019D01*
X182972889Y-110937294D01*
X182730057Y-111222330D01*
X183496979Y-109833519D01*
X183886782Y-109833859D01*
X184437780Y-109606192D01*
X184859710Y-109184997D01*
X185088339Y-108634398D01*
X185088859Y-108038218D01*
X184861192Y-107487220D01*
X184439997Y-107065290D01*
X184439069Y-107064904D01*
X184859710Y-106644997D01*
X185088339Y-106094398D01*
X185088859Y-105498218D01*
X185072423Y-105458440D01*
X185353600Y-105458440D01*
X185595723Y-105411463D01*
X185808527Y-105271673D01*
X185950977Y-105060640D01*
X185969483Y-104968354D01*
X186127964Y-105145732D01*
X186655209Y-105399709D01*
X186670974Y-105402358D01*
X186903000Y-105281217D01*
X186903000Y-103922000D01*
X186883000Y-103922000D01*
X186883000Y-103668000D01*
X186903000Y-103668000D01*
X186903000Y-103648000D01*
X187157000Y-103648000D01*
X187157000Y-103668000D01*
X187177000Y-103668000D01*
X187177000Y-103922000D01*
X187157000Y-103922000D01*
X187157000Y-105281217D01*
X187389026Y-105402358D01*
X187404791Y-105399709D01*
X187932036Y-105145732D01*
X188303539Y-104729930D01*
X188500801Y-105025154D01*
X188120290Y-105405003D01*
X187891661Y-105955602D01*
X187891141Y-106551782D01*
X188118808Y-107102780D01*
X188540003Y-107524710D01*
X188540930Y-107525095D01*
X188120290Y-107945003D01*
X187891661Y-108495602D01*
X187891141Y-109091782D01*
X188118808Y-109642780D01*
X188540003Y-110064710D01*
X188853867Y-110195038D01*
X188542220Y-110323808D01*
X188120290Y-110745003D01*
X187891661Y-111295602D01*
X187891141Y-111891782D01*
X188118808Y-112442780D01*
X188540003Y-112864710D01*
X188832909Y-112986335D01*
X188742220Y-113023808D01*
X188560051Y-113205658D01*
X188379997Y-113025290D01*
X187829398Y-112796661D01*
X187233218Y-112796141D01*
X187197444Y-112810922D01*
X187274580Y-112423135D01*
X187274580Y-111766865D01*
X187192021Y-111351814D01*
X186956914Y-110999951D01*
X186605051Y-110764844D01*
X186190000Y-110682285D01*
X185774949Y-110764844D01*
X185555000Y-110911809D01*
X185335051Y-110764844D01*
X184920000Y-110682285D01*
X184504949Y-110764844D01*
X184280761Y-110914641D01*
X183943935Y-110750019D01*
X183777000Y-110876932D01*
X183777000Y-111968000D01*
X183797000Y-111968000D01*
X183797000Y-112222000D01*
X183777000Y-112222000D01*
X183777000Y-113313068D01*
X183819833Y-113345632D01*
X183720290Y-113445003D01*
X183523000Y-113920129D01*
X183523000Y-113313068D01*
X183523000Y-112222000D01*
X182565420Y-112222000D01*
X182565420Y-112522990D01*
X182696580Y-112928373D01*
X182972889Y-113252706D01*
X183356065Y-113439981D01*
X183523000Y-113313068D01*
X183523000Y-113920129D01*
X183491661Y-113995602D01*
X183491141Y-114591782D01*
X183718808Y-115142780D01*
X184140003Y-115564710D01*
X184537968Y-115729960D01*
X184472400Y-115729960D01*
X184230277Y-115776937D01*
X184017473Y-115916727D01*
X183875023Y-116127760D01*
X183824960Y-116377400D01*
X183824960Y-118322512D01*
X183432533Y-117375111D01*
X183035786Y-117123819D01*
X182856181Y-117303424D01*
X182856181Y-116944214D01*
X182604889Y-116547467D01*
X181542658Y-116112336D01*
X180643769Y-116115852D01*
X180643769Y-113802031D01*
X180643326Y-113801512D01*
X180643769Y-113800231D01*
X180495103Y-113626100D01*
X179669540Y-113626100D01*
X179669540Y-113627900D01*
X179669540Y-114591834D01*
X179669540Y-114593634D01*
X179840478Y-114720168D01*
X180214361Y-114536452D01*
X180502108Y-114211949D01*
X180643769Y-113802031D01*
X180643769Y-116115852D01*
X180394767Y-116116827D01*
X179415540Y-116522436D01*
X179415540Y-114593634D01*
X179415540Y-114591834D01*
X179415540Y-113627900D01*
X179415540Y-113626100D01*
X178589977Y-113626100D01*
X178441311Y-113800231D01*
X178441753Y-113801512D01*
X178441311Y-113802031D01*
X178582972Y-114211949D01*
X178870719Y-114536452D01*
X179244602Y-114720168D01*
X179415540Y-114593634D01*
X179415540Y-116522436D01*
X179355111Y-116547467D01*
X179103819Y-116944214D01*
X180980000Y-118820395D01*
X182856181Y-116944214D01*
X182856181Y-117303424D01*
X181159605Y-119000000D01*
X183035786Y-120876181D01*
X183432533Y-120624889D01*
X183867664Y-119562658D01*
X183864749Y-118817677D01*
X183871937Y-118854723D01*
X184011727Y-119067527D01*
X184222760Y-119209977D01*
X184472400Y-119260040D01*
X186174172Y-119260040D01*
X188299566Y-121385434D01*
X188509084Y-121525430D01*
X188367143Y-121737862D01*
X188319509Y-121977330D01*
X188306217Y-121789625D01*
X188195217Y-121521648D01*
X187980104Y-121484501D01*
X187800499Y-121664106D01*
X187800499Y-121304896D01*
X187763352Y-121089783D01*
X187335028Y-120946888D01*
X186884625Y-120978783D01*
X186616648Y-121089783D01*
X186579501Y-121304896D01*
X187190000Y-121915395D01*
X187800499Y-121304896D01*
X187800499Y-121664106D01*
X187369605Y-122095000D01*
X187980104Y-122705499D01*
X188195217Y-122668352D01*
X188315000Y-122309305D01*
X188315000Y-127469408D01*
X188295217Y-127421648D01*
X188080104Y-127384501D01*
X187900499Y-127564106D01*
X187900499Y-127204896D01*
X187863352Y-126989783D01*
X187800499Y-126968814D01*
X187800499Y-122885104D01*
X187190000Y-122274605D01*
X187010395Y-122454210D01*
X187010395Y-122095000D01*
X186399896Y-121484501D01*
X186184783Y-121521648D01*
X186041888Y-121949972D01*
X186073783Y-122400375D01*
X186184783Y-122668352D01*
X186399896Y-122705499D01*
X187010395Y-122095000D01*
X187010395Y-122454210D01*
X186579501Y-122885104D01*
X186616648Y-123100217D01*
X187044972Y-123243112D01*
X187495375Y-123211217D01*
X187763352Y-123100217D01*
X187800499Y-122885104D01*
X187800499Y-126968814D01*
X187435028Y-126846888D01*
X186984625Y-126878783D01*
X186716648Y-126989783D01*
X186679501Y-127204896D01*
X187290000Y-127815395D01*
X187900499Y-127204896D01*
X187900499Y-127564106D01*
X187469605Y-127995000D01*
X188080104Y-128605499D01*
X188295217Y-128568352D01*
X188387306Y-128292315D01*
X188515632Y-128484368D01*
X188737862Y-128632857D01*
X189000000Y-128685000D01*
X199315000Y-128685000D01*
X199315000Y-142096400D01*
X199315000Y-142096400D01*
G37*
X199315000Y-142096400D02*
X199175750Y-142096400D01*
X199017000Y-142255150D01*
X199017000Y-143468000D01*
X199037000Y-143468000D01*
X199037000Y-143722000D01*
X199017000Y-143722000D01*
X199017000Y-143742000D01*
X198763000Y-143742000D01*
X198763000Y-143722000D01*
X198743000Y-143722000D01*
X198743000Y-143468000D01*
X198763000Y-143468000D01*
X198763000Y-142255150D01*
X198604250Y-142096400D01*
X197747691Y-142096400D01*
X197514302Y-142193073D01*
X197335673Y-142371701D01*
X197239000Y-142605090D01*
X197239000Y-142784591D01*
X195988666Y-141779420D01*
X195988859Y-141558218D01*
X195761192Y-141007220D01*
X195339997Y-140585290D01*
X195267050Y-140555000D01*
X195690000Y-140555000D01*
X195980839Y-140497148D01*
X196227401Y-140332401D01*
X196843199Y-139716603D01*
X197033152Y-139843526D01*
X197606641Y-139957600D01*
X197665359Y-139957600D01*
X198238848Y-139843526D01*
X198725029Y-139518670D01*
X199049885Y-139032489D01*
X199163959Y-138459000D01*
X199049885Y-137885511D01*
X198725029Y-137399330D01*
X198410248Y-137189000D01*
X198725029Y-136978670D01*
X199049885Y-136492489D01*
X199163959Y-135919000D01*
X199049885Y-135345511D01*
X198725029Y-134859330D01*
X198410248Y-134649000D01*
X198725029Y-134438670D01*
X199049885Y-133952489D01*
X199163959Y-133379000D01*
X199049885Y-132805511D01*
X198725029Y-132319330D01*
X198401771Y-132103336D01*
X198524490Y-132045821D01*
X198918688Y-131613947D01*
X199090958Y-131198026D01*
X199090958Y-130479974D01*
X198918688Y-130064053D01*
X198524490Y-129632179D01*
X197995027Y-129384032D01*
X197763000Y-129504531D01*
X197763000Y-130712000D01*
X198969817Y-130712000D01*
X199090958Y-130479974D01*
X199090958Y-131198026D01*
X198969817Y-130966000D01*
X197763000Y-130966000D01*
X197763000Y-130986000D01*
X197509000Y-130986000D01*
X197509000Y-130966000D01*
X197489000Y-130966000D01*
X197489000Y-130712000D01*
X197509000Y-130712000D01*
X197509000Y-129504531D01*
X197276973Y-129384032D01*
X196747510Y-129632179D01*
X196576746Y-129819263D01*
X196560063Y-129733277D01*
X196420273Y-129520473D01*
X196209240Y-129378023D01*
X195959600Y-129327960D01*
X194232400Y-129327960D01*
X193990277Y-129374937D01*
X193777473Y-129514727D01*
X193696078Y-129635309D01*
X193600673Y-129490073D01*
X193389640Y-129347623D01*
X193140000Y-129297560D01*
X191840000Y-129297560D01*
X191597877Y-129344537D01*
X191385073Y-129484327D01*
X191242623Y-129695360D01*
X191192560Y-129945000D01*
X191192560Y-130080011D01*
X191185051Y-130089258D01*
X191119611Y-129931271D01*
X190889016Y-129875590D01*
X190709410Y-130055195D01*
X190709410Y-129695984D01*
X190653729Y-129465389D01*
X190170922Y-129297378D01*
X189660572Y-129326917D01*
X189326271Y-129465389D01*
X189270590Y-129695984D01*
X189990000Y-130415395D01*
X190709410Y-129695984D01*
X190709410Y-130055195D01*
X190169605Y-130595000D01*
X190183747Y-130609142D01*
X190004142Y-130788747D01*
X189990000Y-130774605D01*
X189810395Y-130954210D01*
X189810395Y-130595000D01*
X189090984Y-129875590D01*
X188860389Y-129931271D01*
X188692378Y-130414078D01*
X188721917Y-130924428D01*
X188860389Y-131258729D01*
X189090984Y-131314410D01*
X189810395Y-130595000D01*
X189810395Y-130954210D01*
X189270590Y-131494016D01*
X189326271Y-131724611D01*
X189416937Y-131756161D01*
X189393218Y-131756141D01*
X188842220Y-131983808D01*
X188420290Y-132405003D01*
X188191661Y-132955602D01*
X188191141Y-133551782D01*
X188418808Y-134102780D01*
X188840003Y-134524710D01*
X188840930Y-134525095D01*
X188692926Y-134672841D01*
X188495814Y-134541135D01*
X188479997Y-134525290D01*
X188459137Y-134516628D01*
X188457540Y-134515561D01*
X188455672Y-134515189D01*
X187929398Y-134296661D01*
X187900499Y-134296635D01*
X187900499Y-128785104D01*
X187290000Y-128174605D01*
X187110395Y-128354210D01*
X187110395Y-127995000D01*
X186499896Y-127384501D01*
X186284783Y-127421648D01*
X186141888Y-127849972D01*
X186173783Y-128300375D01*
X186284783Y-128568352D01*
X186499896Y-128605499D01*
X187110395Y-127995000D01*
X187110395Y-128354210D01*
X186679501Y-128785104D01*
X186716648Y-129000217D01*
X187144972Y-129143112D01*
X187595375Y-129111217D01*
X187863352Y-129000217D01*
X187900499Y-128785104D01*
X187900499Y-134296635D01*
X187333218Y-134296141D01*
X186782220Y-134523808D01*
X186360290Y-134945003D01*
X186359904Y-134945930D01*
X185939997Y-134525290D01*
X185542031Y-134360040D01*
X186807600Y-134360040D01*
X187049723Y-134313063D01*
X187262527Y-134173273D01*
X187404977Y-133962240D01*
X187455040Y-133712600D01*
X187455040Y-131477400D01*
X187408063Y-131235277D01*
X187268273Y-131022473D01*
X187057240Y-130880023D01*
X186807600Y-130829960D01*
X185898112Y-130829960D01*
X185898112Y-128140028D01*
X185866217Y-127689625D01*
X185798112Y-127525205D01*
X185798112Y-122240028D01*
X185766217Y-121789625D01*
X185655217Y-121521648D01*
X185440104Y-121484501D01*
X185260499Y-121664106D01*
X185260499Y-121304896D01*
X185223352Y-121089783D01*
X184795028Y-120946888D01*
X184344625Y-120978783D01*
X184076648Y-121089783D01*
X184039501Y-121304896D01*
X184650000Y-121915395D01*
X185260499Y-121304896D01*
X185260499Y-121664106D01*
X184829605Y-122095000D01*
X185440104Y-122705499D01*
X185655217Y-122668352D01*
X185798112Y-122240028D01*
X185798112Y-127525205D01*
X185755217Y-127421648D01*
X185540104Y-127384501D01*
X185360499Y-127564106D01*
X185360499Y-127204896D01*
X185323352Y-126989783D01*
X185260499Y-126968814D01*
X185260499Y-122885104D01*
X184650000Y-122274605D01*
X184470395Y-122454210D01*
X184470395Y-122095000D01*
X183859896Y-121484501D01*
X183644783Y-121521648D01*
X183501888Y-121949972D01*
X183533783Y-122400375D01*
X183644783Y-122668352D01*
X183859896Y-122705499D01*
X184470395Y-122095000D01*
X184470395Y-122454210D01*
X184039501Y-122885104D01*
X184076648Y-123100217D01*
X184504972Y-123243112D01*
X184955375Y-123211217D01*
X185223352Y-123100217D01*
X185260499Y-122885104D01*
X185260499Y-126968814D01*
X184895028Y-126846888D01*
X184444625Y-126878783D01*
X184176648Y-126989783D01*
X184139501Y-127204896D01*
X184750000Y-127815395D01*
X185360499Y-127204896D01*
X185360499Y-127564106D01*
X184929605Y-127995000D01*
X185540104Y-128605499D01*
X185755217Y-128568352D01*
X185898112Y-128140028D01*
X185898112Y-130829960D01*
X185360499Y-130829960D01*
X185360499Y-128785104D01*
X184750000Y-128174605D01*
X184570395Y-128354210D01*
X184570395Y-127995000D01*
X183959896Y-127384501D01*
X183744783Y-127421648D01*
X183601888Y-127849972D01*
X183633783Y-128300375D01*
X183744783Y-128568352D01*
X183959896Y-128605499D01*
X184570395Y-127995000D01*
X184570395Y-128354210D01*
X184139501Y-128785104D01*
X184176648Y-129000217D01*
X184604972Y-129143112D01*
X185055375Y-129111217D01*
X185323352Y-129000217D01*
X185360499Y-128785104D01*
X185360499Y-130829960D01*
X184572400Y-130829960D01*
X184330277Y-130876937D01*
X184117473Y-131016727D01*
X183975023Y-131227760D01*
X183966174Y-131271884D01*
X183963173Y-130504767D01*
X183532533Y-129465111D01*
X183358112Y-129354636D01*
X183358112Y-128140028D01*
X183326217Y-127689625D01*
X183258112Y-127525205D01*
X183215217Y-127421648D01*
X183000104Y-127384501D01*
X182820499Y-127564106D01*
X182820499Y-127204896D01*
X182783352Y-126989783D01*
X182355028Y-126846888D01*
X181904625Y-126878783D01*
X181636648Y-126989783D01*
X181599501Y-127204896D01*
X182210000Y-127815395D01*
X182820499Y-127204896D01*
X182820499Y-127564106D01*
X182389605Y-127995000D01*
X183000104Y-128605499D01*
X183215217Y-128568352D01*
X183358112Y-128140028D01*
X183358112Y-129354636D01*
X183135786Y-129213819D01*
X182956181Y-129393424D01*
X182956181Y-129034214D01*
X182815764Y-128812520D01*
X182820499Y-128785104D01*
X182760219Y-128724824D01*
X182704889Y-128637467D01*
X182650639Y-128615244D01*
X182210000Y-128174605D01*
X182195857Y-128188747D01*
X182016252Y-128009142D01*
X182030395Y-127995000D01*
X181419896Y-127384501D01*
X181204783Y-127421648D01*
X181061888Y-127849972D01*
X181086994Y-128204509D01*
X180796220Y-128205647D01*
X180818112Y-128140028D01*
X180786217Y-127689625D01*
X180675217Y-127421648D01*
X180460104Y-127384501D01*
X180280499Y-127564106D01*
X180280499Y-127204896D01*
X180243352Y-126989783D01*
X179815028Y-126846888D01*
X179364625Y-126878783D01*
X179096648Y-126989783D01*
X179059501Y-127204896D01*
X179670000Y-127815395D01*
X180280499Y-127204896D01*
X180280499Y-127564106D01*
X179849605Y-127995000D01*
X179863747Y-128009142D01*
X179684142Y-128188747D01*
X179670000Y-128174605D01*
X179059501Y-128785104D01*
X179096648Y-129000217D01*
X179206455Y-129036850D01*
X181080000Y-130910395D01*
X182956181Y-129034214D01*
X182956181Y-129393424D01*
X181259605Y-131090000D01*
X183135786Y-132966181D01*
X183532533Y-132714889D01*
X183924960Y-131756905D01*
X183924960Y-133712600D01*
X183971937Y-133954723D01*
X184111727Y-134167527D01*
X184322760Y-134309977D01*
X184572400Y-134360040D01*
X184638570Y-134360040D01*
X184242220Y-134523808D01*
X183820290Y-134945003D01*
X183591661Y-135495602D01*
X183591141Y-136091782D01*
X183818808Y-136642780D01*
X183920052Y-136744201D01*
X183877000Y-136776932D01*
X183877000Y-137868000D01*
X183897000Y-137868000D01*
X183897000Y-138122000D01*
X183877000Y-138122000D01*
X183877000Y-139213068D01*
X184043935Y-139339981D01*
X184380761Y-139175358D01*
X184604949Y-139325156D01*
X185020000Y-139407715D01*
X185435051Y-139325156D01*
X185455000Y-139311826D01*
X185455000Y-139595000D01*
X185518561Y-139914541D01*
X185699566Y-140185434D01*
X187399566Y-141885434D01*
X187670459Y-142066439D01*
X187670460Y-142066439D01*
X187990000Y-142130000D01*
X188213527Y-142130000D01*
X188218808Y-142142780D01*
X188640003Y-142564710D01*
X188640930Y-142565095D01*
X188220290Y-142985003D01*
X187991661Y-143535602D01*
X187991141Y-144131782D01*
X188218808Y-144682780D01*
X188600563Y-145065201D01*
X188403539Y-145360069D01*
X188032036Y-144944268D01*
X187504791Y-144690291D01*
X187489026Y-144687642D01*
X187257000Y-144808783D01*
X187257000Y-146168000D01*
X187277000Y-146168000D01*
X187277000Y-146422000D01*
X187257000Y-146422000D01*
X187257000Y-146442000D01*
X187003000Y-146442000D01*
X187003000Y-146422000D01*
X186983000Y-146422000D01*
X186983000Y-146168000D01*
X187003000Y-146168000D01*
X187003000Y-144808783D01*
X186770974Y-144687642D01*
X186755209Y-144690291D01*
X186227964Y-144944268D01*
X186070326Y-145120701D01*
X186054063Y-145036877D01*
X185914273Y-144824073D01*
X185703240Y-144681623D01*
X185453600Y-144631560D01*
X185372598Y-144631560D01*
X185361439Y-144575460D01*
X185361439Y-144575459D01*
X185188581Y-144316759D01*
X185188859Y-143998218D01*
X184961192Y-143447220D01*
X184539997Y-143025290D01*
X184539069Y-143024904D01*
X184959710Y-142604997D01*
X185188339Y-142054398D01*
X185188859Y-141458218D01*
X184961192Y-140907220D01*
X184539997Y-140485290D01*
X183989398Y-140256661D01*
X183623000Y-140256341D01*
X183623000Y-139213068D01*
X183623000Y-138122000D01*
X183623000Y-137868000D01*
X183623000Y-136776932D01*
X183456065Y-136650019D01*
X183072889Y-136837294D01*
X182956181Y-136974286D01*
X182956181Y-133145786D01*
X181080000Y-131269605D01*
X179203819Y-133145786D01*
X179455111Y-133542533D01*
X180517342Y-133977664D01*
X181665233Y-133973173D01*
X182704889Y-133542533D01*
X182956181Y-133145786D01*
X182956181Y-136974286D01*
X182796580Y-137161627D01*
X182665420Y-137567010D01*
X182665420Y-137868000D01*
X183623000Y-137868000D01*
X183623000Y-138122000D01*
X182665420Y-138122000D01*
X182665420Y-138422990D01*
X182796580Y-138828373D01*
X183072889Y-139152706D01*
X183456065Y-139339981D01*
X183623000Y-139213068D01*
X183623000Y-140256341D01*
X183393218Y-140256141D01*
X182842220Y-140483808D01*
X182420290Y-140905003D01*
X182325162Y-141134096D01*
X182325162Y-139809833D01*
X182183117Y-139466057D01*
X181920327Y-139202808D01*
X181576799Y-139060162D01*
X181204833Y-139059838D01*
X180964980Y-139158942D01*
X180964980Y-138890900D01*
X180940326Y-138763834D01*
X180964980Y-138640900D01*
X180964980Y-138240900D01*
X180944668Y-138136213D01*
X180952540Y-138117210D01*
X180952540Y-138049650D01*
X180921935Y-138019045D01*
X180918003Y-137998777D01*
X180778213Y-137785973D01*
X180637366Y-137690900D01*
X180793790Y-137690900D01*
X180952540Y-137532150D01*
X180952540Y-137464590D01*
X180855867Y-137231201D01*
X180685450Y-137060785D01*
X180743769Y-136892031D01*
X180743326Y-136891512D01*
X180743769Y-136890231D01*
X180743769Y-136289769D01*
X180743326Y-136288487D01*
X180743769Y-136287969D01*
X180602108Y-135878051D01*
X180314361Y-135553548D01*
X179940478Y-135369832D01*
X179769540Y-135496366D01*
X179769540Y-135498166D01*
X179769540Y-136462100D01*
X179769540Y-136463900D01*
X180595103Y-136463900D01*
X180743769Y-136289769D01*
X180743769Y-136890231D01*
X180595103Y-136716100D01*
X179769540Y-136716100D01*
X179769540Y-136717900D01*
X179769540Y-136736100D01*
X179515540Y-136736100D01*
X179515540Y-136717900D01*
X179515540Y-136716100D01*
X179515540Y-136463900D01*
X179515540Y-136462100D01*
X179515540Y-135498166D01*
X179515540Y-135496366D01*
X179344602Y-135369832D01*
X178970719Y-135553548D01*
X178682972Y-135878051D01*
X178541311Y-136287969D01*
X178541753Y-136288487D01*
X178541311Y-136289769D01*
X178689977Y-136463900D01*
X179515540Y-136463900D01*
X179515540Y-136716100D01*
X178689977Y-136716100D01*
X178541311Y-136890231D01*
X178541753Y-136891512D01*
X178541311Y-136892031D01*
X178599629Y-137060785D01*
X178429213Y-137231201D01*
X178332540Y-137464590D01*
X178332540Y-137532150D01*
X178491290Y-137690900D01*
X178648596Y-137690900D01*
X178512613Y-137780227D01*
X178370163Y-137991260D01*
X178364953Y-138017236D01*
X178332540Y-138049650D01*
X178332540Y-138117210D01*
X178340871Y-138137323D01*
X178320100Y-138240900D01*
X178320100Y-138640900D01*
X178344753Y-138767965D01*
X178320100Y-138890900D01*
X178320100Y-139290900D01*
X178344753Y-139417965D01*
X178320100Y-139540900D01*
X178320100Y-139940900D01*
X178344753Y-140067965D01*
X178320100Y-140190900D01*
X178320100Y-140590900D01*
X178367077Y-140833023D01*
X178506867Y-141045827D01*
X178602648Y-141110480D01*
X178541311Y-141287969D01*
X178541753Y-141288487D01*
X178541311Y-141289769D01*
X178689977Y-141463900D01*
X179515540Y-141463900D01*
X179515540Y-141462100D01*
X179515540Y-141443900D01*
X179769540Y-141443900D01*
X179769540Y-141462100D01*
X179769540Y-141463900D01*
X180595103Y-141463900D01*
X180743769Y-141289769D01*
X180743326Y-141288487D01*
X180743769Y-141287969D01*
X180722318Y-141225900D01*
X180994100Y-141225900D01*
X181313640Y-141162339D01*
X181313641Y-141162339D01*
X181584534Y-140981334D01*
X181678333Y-140887534D01*
X181918943Y-140788117D01*
X182182192Y-140525327D01*
X182324838Y-140181799D01*
X182325162Y-139809833D01*
X182325162Y-141134096D01*
X182191661Y-141455602D01*
X182191141Y-142051782D01*
X182418808Y-142602780D01*
X182840003Y-143024710D01*
X182840930Y-143025095D01*
X182420290Y-143445003D01*
X182191661Y-143995602D01*
X182191284Y-144427137D01*
X181656467Y-144205062D01*
X180743769Y-144204265D01*
X180743769Y-141892031D01*
X180743326Y-141891512D01*
X180743769Y-141890231D01*
X180595103Y-141716100D01*
X179769540Y-141716100D01*
X179769540Y-141717900D01*
X179769540Y-142681834D01*
X179769540Y-142683634D01*
X179940478Y-142810168D01*
X180314361Y-142626452D01*
X180602108Y-142301949D01*
X180743769Y-141892031D01*
X180743769Y-144204265D01*
X180508569Y-144204060D01*
X179515540Y-144614371D01*
X179515540Y-142683634D01*
X179515540Y-142681834D01*
X179515540Y-141717900D01*
X179515540Y-141716100D01*
X178689977Y-141716100D01*
X178541311Y-141890231D01*
X178541753Y-141891512D01*
X178541311Y-141892031D01*
X178682972Y-142301949D01*
X178970719Y-142626452D01*
X179344602Y-142810168D01*
X179515540Y-142683634D01*
X179515540Y-144614371D01*
X179447665Y-144642417D01*
X178685000Y-145403751D01*
X178685000Y-144000000D01*
X178632857Y-143737862D01*
X178484368Y-143515632D01*
X178262138Y-143367143D01*
X178078047Y-143330524D01*
X178109908Y-143303663D01*
X178311659Y-142892774D01*
X178311133Y-142892045D01*
X178311659Y-142890974D01*
X178311659Y-142289026D01*
X178311133Y-142287954D01*
X178311659Y-142287226D01*
X178311659Y-135892774D01*
X178311133Y-135892045D01*
X178311659Y-135890974D01*
X178185494Y-135716100D01*
X177069540Y-135716100D01*
X177069540Y-135717900D01*
X177069540Y-136724100D01*
X177069540Y-136725900D01*
X177344540Y-136725900D01*
X177769218Y-136590902D01*
X178109908Y-136303663D01*
X178311659Y-135892774D01*
X178311659Y-142287226D01*
X178109908Y-141876337D01*
X177769218Y-141589098D01*
X177344540Y-141454100D01*
X177069540Y-141454100D01*
X177069540Y-141455900D01*
X177069540Y-142462100D01*
X177069540Y-142463900D01*
X178185494Y-142463900D01*
X178311659Y-142289026D01*
X178311659Y-142890974D01*
X178185494Y-142716100D01*
X177069540Y-142716100D01*
X177069540Y-142717900D01*
X177069540Y-142736100D01*
X176815540Y-142736100D01*
X176815540Y-142717900D01*
X176815540Y-142716100D01*
X176795540Y-142716100D01*
X176795540Y-142463900D01*
X176815540Y-142463900D01*
X176815540Y-142462100D01*
X176815540Y-141455900D01*
X176815540Y-141454100D01*
X176685000Y-141454100D01*
X176685000Y-136725900D01*
X176815540Y-136725900D01*
X176815540Y-136724100D01*
X176815540Y-135717900D01*
X176815540Y-135716100D01*
X176795540Y-135716100D01*
X176795540Y-135463900D01*
X176815540Y-135463900D01*
X176815540Y-135462100D01*
X176815540Y-135443900D01*
X177069540Y-135443900D01*
X177069540Y-135462100D01*
X177069540Y-135463900D01*
X178185494Y-135463900D01*
X178311659Y-135289026D01*
X178311133Y-135287954D01*
X178311659Y-135287226D01*
X178109908Y-134876337D01*
X177882965Y-134685000D01*
X178000000Y-134685000D01*
X178262138Y-134632857D01*
X178484368Y-134484368D01*
X178632857Y-134262138D01*
X178685000Y-134000000D01*
X178685000Y-132751329D01*
X179024214Y-132966181D01*
X180900395Y-131090000D01*
X179024214Y-129213819D01*
X178685000Y-129428670D01*
X178685000Y-128571843D01*
X178879896Y-128605499D01*
X179490395Y-127995000D01*
X178879896Y-127384501D01*
X178664783Y-127421648D01*
X178583788Y-127664426D01*
X178484368Y-127515632D01*
X178262138Y-127367143D01*
X178000000Y-127315000D01*
X177630395Y-127315000D01*
X177740499Y-127204896D01*
X177703352Y-126989783D01*
X177275028Y-126846888D01*
X176824625Y-126878783D01*
X176556648Y-126989783D01*
X176519501Y-127204896D01*
X176629605Y-127315000D01*
X173550395Y-127315000D01*
X173660499Y-127204896D01*
X173623352Y-126989783D01*
X173195028Y-126846888D01*
X172744625Y-126878783D01*
X172476648Y-126989783D01*
X172439501Y-127204896D01*
X172549605Y-127315000D01*
X172000000Y-127315000D01*
X171737862Y-127367143D01*
X171545797Y-127495476D01*
X171515217Y-127421648D01*
X171300104Y-127384501D01*
X171120499Y-127564106D01*
X171120499Y-127204896D01*
X171083352Y-126989783D01*
X170655028Y-126846888D01*
X170204625Y-126878783D01*
X169936648Y-126989783D01*
X169899501Y-127204896D01*
X170510000Y-127815395D01*
X171120499Y-127204896D01*
X171120499Y-127564106D01*
X170689605Y-127995000D01*
X170703747Y-128009142D01*
X170524142Y-128188747D01*
X170510000Y-128174605D01*
X170495857Y-128188747D01*
X170316252Y-128009142D01*
X170330395Y-127995000D01*
X169719896Y-127384501D01*
X169504783Y-127421648D01*
X169361888Y-127849972D01*
X169386916Y-128203414D01*
X169096586Y-128204550D01*
X169118112Y-128140028D01*
X169086217Y-127689625D01*
X168975217Y-127421648D01*
X168760104Y-127384501D01*
X168580499Y-127564106D01*
X168580499Y-127204896D01*
X168543352Y-126989783D01*
X168115028Y-126846888D01*
X167664625Y-126878783D01*
X167396648Y-126989783D01*
X167359501Y-127204896D01*
X167970000Y-127815395D01*
X168580499Y-127204896D01*
X168580499Y-127564106D01*
X168149605Y-127995000D01*
X168163747Y-128009142D01*
X167984142Y-128188747D01*
X167970000Y-128174605D01*
X167790395Y-128354209D01*
X167790395Y-127995000D01*
X167179896Y-127384501D01*
X166964783Y-127421648D01*
X166821888Y-127849972D01*
X166853783Y-128300375D01*
X166964783Y-128568352D01*
X167179896Y-128605499D01*
X167790395Y-127995000D01*
X167790395Y-128354209D01*
X167529784Y-128614820D01*
X167475111Y-128637467D01*
X167419780Y-128724824D01*
X167359501Y-128785104D01*
X167364235Y-128812520D01*
X167223819Y-129034214D01*
X169100000Y-130910395D01*
X170958435Y-129051959D01*
X171083352Y-129000217D01*
X171120498Y-128785106D01*
X171120499Y-128785107D01*
X171236726Y-128901334D01*
X171315000Y-128823060D01*
X171315000Y-129314662D01*
X171155786Y-129213819D01*
X171120499Y-129249106D01*
X169279605Y-131090000D01*
X171155786Y-132966181D01*
X171315000Y-132865337D01*
X171315000Y-134000000D01*
X171367143Y-134262138D01*
X171515632Y-134484368D01*
X171737862Y-134632857D01*
X172000000Y-134685000D01*
X172297034Y-134685000D01*
X172070092Y-134876337D01*
X171868341Y-135287226D01*
X171868866Y-135287954D01*
X171868341Y-135289026D01*
X171994506Y-135463900D01*
X173110460Y-135463900D01*
X173110460Y-135462100D01*
X173110460Y-135443900D01*
X173315000Y-135443900D01*
X173315000Y-142736100D01*
X173110460Y-142736100D01*
X173110460Y-142717900D01*
X173110460Y-142716100D01*
X173110460Y-142463900D01*
X173110460Y-142462100D01*
X173110460Y-141455900D01*
X173110460Y-141454100D01*
X173110460Y-136725900D01*
X173110460Y-136724100D01*
X173110460Y-135717900D01*
X173110460Y-135716100D01*
X171994506Y-135716100D01*
X171868341Y-135890974D01*
X171868866Y-135892045D01*
X171868341Y-135892774D01*
X172070092Y-136303663D01*
X172410782Y-136590902D01*
X172835460Y-136725900D01*
X173110460Y-136725900D01*
X173110460Y-141454100D01*
X172835460Y-141454100D01*
X172410782Y-141589098D01*
X172070092Y-141876337D01*
X171868341Y-142287226D01*
X171868866Y-142287954D01*
X171868341Y-142289026D01*
X171994506Y-142463900D01*
X173110460Y-142463900D01*
X173110460Y-142716100D01*
X171994506Y-142716100D01*
X171868341Y-142890974D01*
X171868866Y-142892045D01*
X171868341Y-142892774D01*
X172070092Y-143303663D01*
X172083538Y-143315000D01*
X172000000Y-143315000D01*
X171737862Y-143367143D01*
X171638689Y-143433408D01*
X171638689Y-141892031D01*
X171638246Y-141891512D01*
X171638689Y-141890231D01*
X171490023Y-141716100D01*
X170664460Y-141716100D01*
X170664460Y-141717900D01*
X170664460Y-142681834D01*
X170664460Y-142683634D01*
X170835398Y-142810168D01*
X171209281Y-142626452D01*
X171497028Y-142301949D01*
X171638689Y-141892031D01*
X171638689Y-143433408D01*
X171515632Y-143515632D01*
X171367143Y-143737862D01*
X171315000Y-144000000D01*
X171315000Y-145224675D01*
X170736604Y-144645269D01*
X169676467Y-144205062D01*
X169120979Y-144204577D01*
X169124383Y-143830431D01*
X169497023Y-143354689D01*
X169548152Y-143253560D01*
X169611110Y-143159338D01*
X169621046Y-143109386D01*
X169644025Y-143063937D01*
X169652562Y-142950943D01*
X169674671Y-142839798D01*
X169664734Y-142789846D01*
X169668572Y-142739063D01*
X169633217Y-142631400D01*
X169611110Y-142520258D01*
X169582815Y-142477911D01*
X169566926Y-142429525D01*
X169557381Y-142418419D01*
X169560305Y-142251060D01*
X169577892Y-142301949D01*
X169865639Y-142626452D01*
X170239522Y-142810168D01*
X170410460Y-142683634D01*
X170410460Y-142681834D01*
X170410460Y-141717900D01*
X170410460Y-141716100D01*
X170390460Y-141716100D01*
X170390460Y-141463900D01*
X170410460Y-141463900D01*
X170410460Y-141462100D01*
X170410460Y-141443900D01*
X170664460Y-141443900D01*
X170664460Y-141462100D01*
X170664460Y-141463900D01*
X171490023Y-141463900D01*
X171638689Y-141289769D01*
X171638246Y-141288487D01*
X171638689Y-141287969D01*
X171580370Y-141119214D01*
X171750787Y-140948799D01*
X171847460Y-140715410D01*
X171847460Y-140647850D01*
X171688710Y-140489100D01*
X171531403Y-140489100D01*
X171667387Y-140399773D01*
X171809837Y-140188740D01*
X171815046Y-140162763D01*
X171847460Y-140130350D01*
X171847460Y-140062790D01*
X171839128Y-140042676D01*
X171859900Y-139939100D01*
X171859900Y-139539100D01*
X171835246Y-139412034D01*
X171859900Y-139289100D01*
X171859900Y-138889100D01*
X171835246Y-138762034D01*
X171859900Y-138639100D01*
X171859900Y-138239100D01*
X171835246Y-138112034D01*
X171859900Y-137989100D01*
X171859900Y-137589100D01*
X171812923Y-137346977D01*
X171673133Y-137134173D01*
X171577351Y-137069519D01*
X171638689Y-136892031D01*
X171638246Y-136891512D01*
X171638689Y-136890231D01*
X171638689Y-136289769D01*
X171638246Y-136288487D01*
X171638689Y-136287969D01*
X171497028Y-135878051D01*
X171209281Y-135553548D01*
X170976181Y-135439008D01*
X170976181Y-133145786D01*
X169100000Y-131269605D01*
X167223819Y-133145786D01*
X167475111Y-133542533D01*
X168537342Y-133977664D01*
X169685233Y-133973173D01*
X170724889Y-133542533D01*
X170976181Y-133145786D01*
X170976181Y-135439008D01*
X170835398Y-135369832D01*
X170664460Y-135496366D01*
X170664460Y-135498166D01*
X170664460Y-136462100D01*
X170664460Y-136463900D01*
X171490023Y-136463900D01*
X171638689Y-136289769D01*
X171638689Y-136890231D01*
X171490023Y-136716100D01*
X170664460Y-136716100D01*
X170664460Y-136717900D01*
X170664460Y-136736100D01*
X170410460Y-136736100D01*
X170410460Y-136717900D01*
X170410460Y-136716100D01*
X170410460Y-136463900D01*
X170410460Y-136462100D01*
X170410460Y-135498166D01*
X170410460Y-135496366D01*
X170239522Y-135369832D01*
X169865639Y-135553548D01*
X169577892Y-135878051D01*
X169436231Y-136287969D01*
X169436673Y-136288487D01*
X169436231Y-136289769D01*
X169584897Y-136463900D01*
X170410460Y-136463900D01*
X170410460Y-136716100D01*
X169584897Y-136716100D01*
X169436231Y-136890231D01*
X169436673Y-136891512D01*
X169436231Y-136892031D01*
X169457681Y-136954100D01*
X168980000Y-136954100D01*
X168660459Y-137017661D01*
X168389566Y-137198666D01*
X168209566Y-137378666D01*
X168144535Y-137475991D01*
X168069044Y-137565456D01*
X167400084Y-138776867D01*
X167514580Y-138422990D01*
X167514580Y-138122000D01*
X167514580Y-137868000D01*
X167514580Y-137567010D01*
X167383420Y-137161627D01*
X167107111Y-136837294D01*
X166723935Y-136650019D01*
X166557000Y-136776932D01*
X166557000Y-137868000D01*
X167514580Y-137868000D01*
X167514580Y-138122000D01*
X166557000Y-138122000D01*
X166557000Y-139213068D01*
X166723935Y-139339981D01*
X167107111Y-139152706D01*
X167349942Y-138867669D01*
X166583019Y-140256480D01*
X166193218Y-140256141D01*
X165642220Y-140483808D01*
X165220290Y-140905003D01*
X164991661Y-141455602D01*
X164991141Y-142051782D01*
X165218808Y-142602780D01*
X165640003Y-143024710D01*
X165640930Y-143025095D01*
X165220290Y-143445003D01*
X164991661Y-143995602D01*
X164991141Y-144591782D01*
X165007576Y-144631560D01*
X164726400Y-144631560D01*
X164484277Y-144678537D01*
X164271473Y-144818327D01*
X164129023Y-145029360D01*
X164110516Y-145121645D01*
X163952036Y-144944268D01*
X163424791Y-144690291D01*
X163409026Y-144687642D01*
X163177000Y-144808783D01*
X163177000Y-146168000D01*
X163197000Y-146168000D01*
X163197000Y-146422000D01*
X163177000Y-146422000D01*
X163177000Y-146442000D01*
X162923000Y-146442000D01*
X162923000Y-146422000D01*
X162903000Y-146422000D01*
X162903000Y-146168000D01*
X162923000Y-146168000D01*
X162923000Y-144808783D01*
X162690974Y-144687642D01*
X162675209Y-144690291D01*
X162147964Y-144944268D01*
X161776460Y-145360069D01*
X161579198Y-145064845D01*
X161959710Y-144684997D01*
X162188339Y-144134398D01*
X162188859Y-143538218D01*
X161961192Y-142987220D01*
X161539997Y-142565290D01*
X161539069Y-142564904D01*
X161959710Y-142144997D01*
X162188339Y-141594398D01*
X162188859Y-140998218D01*
X161961192Y-140447220D01*
X161539997Y-140025290D01*
X161226132Y-139894961D01*
X161537780Y-139766192D01*
X161959710Y-139344997D01*
X162188339Y-138794398D01*
X162188859Y-138198218D01*
X161961192Y-137647220D01*
X161539997Y-137225290D01*
X161247090Y-137103664D01*
X161337780Y-137066192D01*
X161519948Y-136884341D01*
X161700003Y-137064710D01*
X162250602Y-137293339D01*
X162846782Y-137293859D01*
X162882555Y-137279077D01*
X162805420Y-137666865D01*
X162805420Y-138323135D01*
X162887979Y-138738186D01*
X163123086Y-139090049D01*
X163474949Y-139325156D01*
X163890000Y-139407715D01*
X164305051Y-139325156D01*
X164525000Y-139178190D01*
X164744949Y-139325156D01*
X165160000Y-139407715D01*
X165575051Y-139325156D01*
X165799238Y-139175358D01*
X166136065Y-139339981D01*
X166303000Y-139213068D01*
X166303000Y-138122000D01*
X166283000Y-138122000D01*
X166283000Y-137868000D01*
X166303000Y-137868000D01*
X166303000Y-136776932D01*
X166260166Y-136744367D01*
X166359710Y-136644997D01*
X166588339Y-136094398D01*
X166588859Y-135498218D01*
X166361192Y-134947220D01*
X165939997Y-134525290D01*
X165542031Y-134360040D01*
X165607600Y-134360040D01*
X165849723Y-134313063D01*
X166062527Y-134173273D01*
X166204977Y-133962240D01*
X166255040Y-133712600D01*
X166255040Y-131767487D01*
X166647467Y-132714889D01*
X167044214Y-132966181D01*
X168920395Y-131090000D01*
X167044214Y-129213819D01*
X166647467Y-129465111D01*
X166578112Y-129634418D01*
X166578112Y-128140028D01*
X166546217Y-127689625D01*
X166478112Y-127525205D01*
X166478112Y-122240028D01*
X166446217Y-121789625D01*
X166335217Y-121521648D01*
X166120104Y-121484501D01*
X165940499Y-121664106D01*
X165940499Y-121304896D01*
X165903352Y-121089783D01*
X165475028Y-120946888D01*
X165024625Y-120978783D01*
X164756648Y-121089783D01*
X164719501Y-121304896D01*
X165330000Y-121915395D01*
X165940499Y-121304896D01*
X165940499Y-121664106D01*
X165509605Y-122095000D01*
X166120104Y-122705499D01*
X166335217Y-122668352D01*
X166478112Y-122240028D01*
X166478112Y-127525205D01*
X166435217Y-127421648D01*
X166220104Y-127384501D01*
X166040499Y-127564106D01*
X166040499Y-127204896D01*
X166003352Y-126989783D01*
X165940499Y-126968814D01*
X165940499Y-122885104D01*
X165330000Y-122274605D01*
X165150395Y-122454210D01*
X165150395Y-122095000D01*
X164539896Y-121484501D01*
X164324783Y-121521648D01*
X164181888Y-121949972D01*
X164213783Y-122400375D01*
X164324783Y-122668352D01*
X164539896Y-122705499D01*
X165150395Y-122095000D01*
X165150395Y-122454210D01*
X164719501Y-122885104D01*
X164756648Y-123100217D01*
X165184972Y-123243112D01*
X165635375Y-123211217D01*
X165903352Y-123100217D01*
X165940499Y-122885104D01*
X165940499Y-126968814D01*
X165575028Y-126846888D01*
X165124625Y-126878783D01*
X164856648Y-126989783D01*
X164819501Y-127204896D01*
X165430000Y-127815395D01*
X166040499Y-127204896D01*
X166040499Y-127564106D01*
X165609605Y-127995000D01*
X166220104Y-128605499D01*
X166435217Y-128568352D01*
X166578112Y-128140028D01*
X166578112Y-129634418D01*
X166212336Y-130527342D01*
X166215250Y-131272322D01*
X166208063Y-131235277D01*
X166068273Y-131022473D01*
X166040499Y-131003725D01*
X166040499Y-128785104D01*
X165430000Y-128174605D01*
X165250395Y-128354210D01*
X165250395Y-127995000D01*
X164639896Y-127384501D01*
X164424783Y-127421648D01*
X164281888Y-127849972D01*
X164313783Y-128300375D01*
X164424783Y-128568352D01*
X164639896Y-128605499D01*
X165250395Y-127995000D01*
X165250395Y-128354210D01*
X164819501Y-128785104D01*
X164856648Y-129000217D01*
X165284972Y-129143112D01*
X165735375Y-129111217D01*
X166003352Y-129000217D01*
X166040499Y-128785104D01*
X166040499Y-131003725D01*
X165857240Y-130880023D01*
X165607600Y-130829960D01*
X164038112Y-130829960D01*
X164038112Y-128140028D01*
X164006217Y-127689625D01*
X163938112Y-127525205D01*
X163938112Y-122240028D01*
X163906217Y-121789625D01*
X163795217Y-121521648D01*
X163580104Y-121484501D01*
X163400499Y-121664106D01*
X163400499Y-121304896D01*
X163363352Y-121089783D01*
X162935028Y-120946888D01*
X162484625Y-120978783D01*
X162216648Y-121089783D01*
X162179501Y-121304896D01*
X162790000Y-121915395D01*
X163400499Y-121304896D01*
X163400499Y-121664106D01*
X162969605Y-122095000D01*
X163580104Y-122705499D01*
X163795217Y-122668352D01*
X163938112Y-122240028D01*
X163938112Y-127525205D01*
X163895217Y-127421648D01*
X163680104Y-127384501D01*
X163500499Y-127564106D01*
X163500499Y-127204896D01*
X163463352Y-126989783D01*
X163400499Y-126968814D01*
X163400499Y-122885104D01*
X162790000Y-122274605D01*
X162179501Y-122885104D01*
X162216648Y-123100217D01*
X162644972Y-123243112D01*
X163095375Y-123211217D01*
X163363352Y-123100217D01*
X163400499Y-122885104D01*
X163400499Y-126968814D01*
X163035028Y-126846888D01*
X162584625Y-126878783D01*
X162316648Y-126989783D01*
X162279501Y-127204896D01*
X162890000Y-127815395D01*
X163500499Y-127204896D01*
X163500499Y-127564106D01*
X163069605Y-127995000D01*
X163680104Y-128605499D01*
X163895217Y-128568352D01*
X164038112Y-128140028D01*
X164038112Y-130829960D01*
X163905828Y-130829960D01*
X163500499Y-130424631D01*
X163500499Y-128785104D01*
X162890000Y-128174605D01*
X162710395Y-128354210D01*
X162710395Y-127995000D01*
X162099896Y-127384501D01*
X161884783Y-127421648D01*
X161741888Y-127849972D01*
X161773783Y-128300375D01*
X161884783Y-128568352D01*
X162099896Y-128605499D01*
X162710395Y-127995000D01*
X162710395Y-128354210D01*
X162279501Y-128785104D01*
X162316648Y-129000217D01*
X162744972Y-129143112D01*
X163195375Y-129111217D01*
X163463352Y-129000217D01*
X163500499Y-128785104D01*
X163500499Y-130424631D01*
X161780434Y-128704566D01*
X161509541Y-128523561D01*
X161444942Y-128510711D01*
X161484368Y-128484368D01*
X161632857Y-128262138D01*
X161685000Y-128000000D01*
X161685000Y-122427455D01*
X161784783Y-122668352D01*
X161999896Y-122705499D01*
X162610395Y-122095000D01*
X161999896Y-121484501D01*
X161784783Y-121521648D01*
X161662662Y-121887701D01*
X161632857Y-121737862D01*
X161484368Y-121515632D01*
X161387622Y-121450988D01*
X161387622Y-119675922D01*
X161358083Y-119165572D01*
X161219611Y-118831271D01*
X160989016Y-118775590D01*
X160269605Y-119495000D01*
X160989016Y-120214410D01*
X161219611Y-120158729D01*
X161387622Y-119675922D01*
X161387622Y-121450988D01*
X161262138Y-121367143D01*
X161000000Y-121315000D01*
X160809410Y-121315000D01*
X160809410Y-120394016D01*
X160090000Y-119674605D01*
X159370590Y-120394016D01*
X159426271Y-120624611D01*
X159909078Y-120792622D01*
X160419428Y-120763083D01*
X160753729Y-120624611D01*
X160809410Y-120394016D01*
X160809410Y-121315000D01*
X152317000Y-121315000D01*
X152317000Y-120585469D01*
X152317000Y-119378000D01*
X151110183Y-119378000D01*
X150989042Y-119610026D01*
X151161312Y-120025947D01*
X151555510Y-120457821D01*
X152084973Y-120705968D01*
X152317000Y-120585469D01*
X152317000Y-121315000D01*
X150685000Y-121315000D01*
X150685000Y-107993600D01*
X150904250Y-107993600D01*
X151063000Y-107834850D01*
X151063000Y-106622000D01*
X151043000Y-106622000D01*
X151043000Y-106368000D01*
X151063000Y-106368000D01*
X151063000Y-106348000D01*
X151317000Y-106348000D01*
X151317000Y-106368000D01*
X151337000Y-106368000D01*
X151337000Y-106622000D01*
X151317000Y-106622000D01*
X151317000Y-107834850D01*
X151475750Y-107993600D01*
X152332309Y-107993600D01*
X152565698Y-107896927D01*
X152744327Y-107718299D01*
X152841000Y-107484910D01*
X152841000Y-107302907D01*
X154191310Y-108337724D01*
X154191141Y-108531782D01*
X154418808Y-109082780D01*
X154840003Y-109504710D01*
X154912949Y-109535000D01*
X154390000Y-109535000D01*
X154099161Y-109592852D01*
X154017345Y-109647519D01*
X153852598Y-109757599D01*
X153236801Y-110373396D01*
X153046848Y-110246474D01*
X152473359Y-110132400D01*
X152414641Y-110132400D01*
X151841152Y-110246474D01*
X151354971Y-110571330D01*
X151030115Y-111057511D01*
X150916041Y-111631000D01*
X151030115Y-112204489D01*
X151354971Y-112690670D01*
X151669751Y-112901000D01*
X151354971Y-113111330D01*
X151030115Y-113597511D01*
X150916041Y-114171000D01*
X151030115Y-114744489D01*
X151354971Y-115230670D01*
X151669751Y-115441000D01*
X151354971Y-115651330D01*
X151030115Y-116137511D01*
X150916041Y-116711000D01*
X151030115Y-117284489D01*
X151354971Y-117770670D01*
X151678228Y-117986663D01*
X151555510Y-118044179D01*
X151161312Y-118476053D01*
X150989042Y-118891974D01*
X151110183Y-119124000D01*
X152317000Y-119124000D01*
X152317000Y-119104000D01*
X152571000Y-119104000D01*
X152571000Y-119124000D01*
X152591000Y-119124000D01*
X152591000Y-119378000D01*
X152571000Y-119378000D01*
X152571000Y-120585469D01*
X152803027Y-120705968D01*
X153332490Y-120457821D01*
X153503253Y-120270736D01*
X153519937Y-120356723D01*
X153659727Y-120569527D01*
X153870760Y-120711977D01*
X154120400Y-120762040D01*
X155847600Y-120762040D01*
X156089723Y-120715063D01*
X156302527Y-120575273D01*
X156383921Y-120454690D01*
X156479327Y-120599927D01*
X156690360Y-120742377D01*
X156940000Y-120792440D01*
X158240000Y-120792440D01*
X158482123Y-120745463D01*
X158694927Y-120605673D01*
X158837377Y-120394640D01*
X158887440Y-120145000D01*
X158887440Y-120009987D01*
X158894948Y-120000740D01*
X158960389Y-120158729D01*
X159190984Y-120214410D01*
X159910395Y-119495000D01*
X159896252Y-119480857D01*
X160075857Y-119301252D01*
X160090000Y-119315395D01*
X160809410Y-118595984D01*
X160753729Y-118365389D01*
X160663062Y-118333838D01*
X160686782Y-118333859D01*
X161237780Y-118106192D01*
X161659710Y-117684997D01*
X161888339Y-117134398D01*
X161888859Y-116538218D01*
X161661192Y-115987220D01*
X161239997Y-115565290D01*
X161239069Y-115564904D01*
X161387073Y-115417158D01*
X161584185Y-115548864D01*
X161600003Y-115564710D01*
X161620862Y-115573371D01*
X161622460Y-115574439D01*
X161624327Y-115574810D01*
X162150602Y-115793339D01*
X162746782Y-115793859D01*
X163297780Y-115566192D01*
X163719710Y-115144997D01*
X163720095Y-115144069D01*
X164140003Y-115564710D01*
X164537968Y-115729960D01*
X163272400Y-115729960D01*
X163030277Y-115776937D01*
X162817473Y-115916727D01*
X162675023Y-116127760D01*
X162624960Y-116377400D01*
X162624960Y-118612600D01*
X162671937Y-118854723D01*
X162811727Y-119067527D01*
X163022760Y-119209977D01*
X163272400Y-119260040D01*
X165507600Y-119260040D01*
X165749723Y-119213063D01*
X165962527Y-119073273D01*
X166104977Y-118862240D01*
X166113825Y-118818115D01*
X166116827Y-119585233D01*
X166547467Y-120624889D01*
X166944214Y-120876181D01*
X168820395Y-119000000D01*
X166944214Y-117123819D01*
X166547467Y-117375111D01*
X166155040Y-118333094D01*
X166155040Y-116377400D01*
X166108063Y-116135277D01*
X165968273Y-115922473D01*
X165757240Y-115780023D01*
X165507600Y-115729960D01*
X165441429Y-115729960D01*
X165837780Y-115566192D01*
X166259710Y-115144997D01*
X166488339Y-114594398D01*
X166488859Y-113998218D01*
X166261192Y-113447220D01*
X166159947Y-113345798D01*
X166203000Y-113313068D01*
X166203000Y-112222000D01*
X166183000Y-112222000D01*
X166183000Y-111968000D01*
X166203000Y-111968000D01*
X166203000Y-110876932D01*
X166036065Y-110750019D01*
X165699238Y-110914641D01*
X165475051Y-110764844D01*
X165060000Y-110682285D01*
X164644949Y-110764844D01*
X164625000Y-110778173D01*
X164625000Y-110495000D01*
X164561439Y-110175460D01*
X164561439Y-110175459D01*
X164380434Y-109904566D01*
X162680434Y-108204566D01*
X162409541Y-108023561D01*
X162090000Y-107960000D01*
X161866472Y-107960000D01*
X161861192Y-107947220D01*
X161439997Y-107525290D01*
X161439069Y-107524904D01*
X161859710Y-107104997D01*
X162088339Y-106554398D01*
X162088859Y-105958218D01*
X161861192Y-105407220D01*
X161479436Y-105024798D01*
X161676460Y-104729930D01*
X162047964Y-105145732D01*
X162575209Y-105399709D01*
X162590974Y-105402358D01*
X162823000Y-105281217D01*
X162823000Y-103922000D01*
X162803000Y-103922000D01*
X162803000Y-103668000D01*
X162823000Y-103668000D01*
X162823000Y-103648000D01*
X163077000Y-103648000D01*
X163077000Y-103668000D01*
X163097000Y-103668000D01*
X163097000Y-103922000D01*
X163077000Y-103922000D01*
X163077000Y-105281217D01*
X163309026Y-105402358D01*
X163324791Y-105399709D01*
X163852036Y-105145732D01*
X164009673Y-104969298D01*
X164025937Y-105053123D01*
X164165727Y-105265927D01*
X164376760Y-105408377D01*
X164626400Y-105458440D01*
X164707401Y-105458440D01*
X164718561Y-105514541D01*
X164891418Y-105773240D01*
X164891141Y-106091782D01*
X165118808Y-106642780D01*
X165540003Y-107064710D01*
X165540930Y-107065095D01*
X165120290Y-107485003D01*
X164891661Y-108035602D01*
X164891141Y-108631782D01*
X165118808Y-109182780D01*
X165540003Y-109604710D01*
X166090602Y-109833339D01*
X166686782Y-109833859D01*
X167237780Y-109606192D01*
X167659710Y-109184997D01*
X167888339Y-108634398D01*
X167888859Y-108038218D01*
X167661192Y-107487220D01*
X167239997Y-107065290D01*
X167239069Y-107064904D01*
X167659710Y-106644997D01*
X167888339Y-106094398D01*
X167888715Y-105662862D01*
X168423533Y-105884938D01*
X169571431Y-105885940D01*
X170632335Y-105447583D01*
X171315000Y-104766108D01*
X171315000Y-106000000D01*
X171367143Y-106262138D01*
X171515632Y-106484368D01*
X171737862Y-106632857D01*
X172000000Y-106685000D01*
X172090286Y-106685000D01*
X171970092Y-106786337D01*
X171768341Y-107197226D01*
X171768866Y-107197954D01*
X171768341Y-107199026D01*
X171894506Y-107373900D01*
X173010460Y-107373900D01*
X173010460Y-107372100D01*
X173010460Y-107353900D01*
X173264460Y-107353900D01*
X173264460Y-107372100D01*
X173264460Y-107373900D01*
X173284460Y-107373900D01*
X173284460Y-107626100D01*
X173264460Y-107626100D01*
X173264460Y-107627900D01*
X173264460Y-108634100D01*
X173264460Y-108635900D01*
X173315000Y-108635900D01*
X173315000Y-113364100D01*
X173264460Y-113364100D01*
X173264460Y-113365900D01*
X173264460Y-114372100D01*
X173264460Y-114373900D01*
X173284460Y-114373900D01*
X173284460Y-114626100D01*
X173264460Y-114626100D01*
X173264460Y-114627900D01*
X173264460Y-114646100D01*
X173010460Y-114646100D01*
X173010460Y-114627900D01*
X173010460Y-114626100D01*
X173010460Y-114373900D01*
X173010460Y-114372100D01*
X173010460Y-113365900D01*
X173010460Y-113364100D01*
X173010460Y-108635900D01*
X173010460Y-108634100D01*
X173010460Y-107627900D01*
X173010460Y-107626100D01*
X171894506Y-107626100D01*
X171768341Y-107800974D01*
X171768866Y-107802045D01*
X171768341Y-107802774D01*
X171970092Y-108213663D01*
X172310782Y-108500902D01*
X172735460Y-108635900D01*
X173010460Y-108635900D01*
X173010460Y-113364100D01*
X172735460Y-113364100D01*
X172310782Y-113499098D01*
X171970092Y-113786337D01*
X171768341Y-114197226D01*
X171768866Y-114197954D01*
X171768341Y-114199026D01*
X171894506Y-114373900D01*
X173010460Y-114373900D01*
X173010460Y-114626100D01*
X171894506Y-114626100D01*
X171768341Y-114800974D01*
X171768866Y-114802045D01*
X171768341Y-114802774D01*
X171970092Y-115213663D01*
X172090286Y-115315000D01*
X172000000Y-115315000D01*
X171759900Y-115362759D01*
X171759900Y-111849100D01*
X171759900Y-111449100D01*
X171735246Y-111322034D01*
X171759900Y-111199100D01*
X171759900Y-110799100D01*
X171735246Y-110672034D01*
X171759900Y-110549100D01*
X171759900Y-110149100D01*
X171735246Y-110022034D01*
X171759900Y-109899100D01*
X171759900Y-109499100D01*
X171712923Y-109256977D01*
X171573133Y-109044173D01*
X171477351Y-108979519D01*
X171538689Y-108802031D01*
X171538246Y-108801512D01*
X171538689Y-108800231D01*
X171538689Y-108199769D01*
X171538246Y-108198487D01*
X171538689Y-108197969D01*
X171397028Y-107788051D01*
X171109281Y-107463548D01*
X170735398Y-107279832D01*
X170564460Y-107406366D01*
X170564460Y-107408166D01*
X170564460Y-108372100D01*
X170564460Y-108373900D01*
X171390023Y-108373900D01*
X171538689Y-108199769D01*
X171538689Y-108800231D01*
X171390023Y-108626100D01*
X170564460Y-108626100D01*
X170564460Y-108627900D01*
X170564460Y-108646100D01*
X170310460Y-108646100D01*
X170310460Y-108627900D01*
X170310460Y-108626100D01*
X170310460Y-108373900D01*
X170310460Y-108372100D01*
X170310460Y-107408166D01*
X170310460Y-107406366D01*
X170139522Y-107279832D01*
X169765639Y-107463548D01*
X169477892Y-107788051D01*
X169336231Y-108197969D01*
X169336673Y-108198487D01*
X169336231Y-108199769D01*
X169484897Y-108373900D01*
X170310460Y-108373900D01*
X170310460Y-108626100D01*
X169484897Y-108626100D01*
X169336231Y-108800231D01*
X169336673Y-108801512D01*
X169336231Y-108802031D01*
X169357681Y-108864100D01*
X169085900Y-108864100D01*
X168766359Y-108927661D01*
X168495466Y-109108666D01*
X168401666Y-109202465D01*
X168161057Y-109301883D01*
X167897808Y-109564673D01*
X167755162Y-109908201D01*
X167754838Y-110280167D01*
X167896883Y-110623943D01*
X168159673Y-110887192D01*
X168503201Y-111029838D01*
X168875167Y-111030162D01*
X169115020Y-110931057D01*
X169115020Y-111199100D01*
X169139673Y-111326165D01*
X169115020Y-111449100D01*
X169115020Y-111849100D01*
X169135331Y-111953786D01*
X169127460Y-111972790D01*
X169127460Y-112040350D01*
X169158064Y-112070954D01*
X169161997Y-112091223D01*
X169301787Y-112304027D01*
X169442633Y-112399100D01*
X169286210Y-112399100D01*
X169127460Y-112557850D01*
X169127460Y-112625410D01*
X169224133Y-112858799D01*
X169394549Y-113029214D01*
X169336231Y-113197969D01*
X169336673Y-113198487D01*
X169336231Y-113199769D01*
X169484897Y-113373900D01*
X170310460Y-113373900D01*
X170310460Y-113372100D01*
X170310460Y-113353900D01*
X170564460Y-113353900D01*
X170564460Y-113372100D01*
X170564460Y-113373900D01*
X171390023Y-113373900D01*
X171538689Y-113199769D01*
X171538246Y-113198487D01*
X171538689Y-113197969D01*
X171480370Y-113029214D01*
X171650787Y-112858799D01*
X171747460Y-112625410D01*
X171747460Y-112557850D01*
X171588710Y-112399100D01*
X171431403Y-112399100D01*
X171567387Y-112309773D01*
X171709837Y-112098740D01*
X171715046Y-112072763D01*
X171747460Y-112040350D01*
X171747460Y-111972790D01*
X171739128Y-111952676D01*
X171759900Y-111849100D01*
X171759900Y-115362759D01*
X171737862Y-115367143D01*
X171538689Y-115500225D01*
X171538689Y-113802031D01*
X171538246Y-113801512D01*
X171538689Y-113800231D01*
X171390023Y-113626100D01*
X170564460Y-113626100D01*
X170564460Y-113627900D01*
X170564460Y-114591834D01*
X170564460Y-114593634D01*
X170735398Y-114720168D01*
X171109281Y-114536452D01*
X171397028Y-114211949D01*
X171538689Y-113802031D01*
X171538689Y-115500225D01*
X171515632Y-115515632D01*
X171367143Y-115737862D01*
X171315000Y-116000000D01*
X171315000Y-117288000D01*
X171055786Y-117123819D01*
X170876181Y-117303424D01*
X170876181Y-116944214D01*
X170624889Y-116547467D01*
X170310460Y-116418664D01*
X170310460Y-114593634D01*
X170310460Y-114591834D01*
X170310460Y-113627900D01*
X170310460Y-113626100D01*
X169484897Y-113626100D01*
X169336231Y-113800231D01*
X169336673Y-113801512D01*
X169336231Y-113802031D01*
X169477892Y-114211949D01*
X169765639Y-114536452D01*
X170139522Y-114720168D01*
X170310460Y-114593634D01*
X170310460Y-116418664D01*
X169562658Y-116112336D01*
X168414767Y-116116827D01*
X167414580Y-116531118D01*
X167414580Y-112522990D01*
X167414580Y-112222000D01*
X167414580Y-111968000D01*
X167414580Y-111667010D01*
X167283420Y-111261627D01*
X167007111Y-110937294D01*
X166623935Y-110750019D01*
X166457000Y-110876932D01*
X166457000Y-111968000D01*
X167414580Y-111968000D01*
X167414580Y-112222000D01*
X166457000Y-112222000D01*
X166457000Y-113313068D01*
X166623935Y-113439981D01*
X167007111Y-113252706D01*
X167283420Y-112928373D01*
X167414580Y-112522990D01*
X167414580Y-116531118D01*
X167375111Y-116547467D01*
X167123819Y-116944214D01*
X169000000Y-118820395D01*
X170876181Y-116944214D01*
X170876181Y-117303424D01*
X169179605Y-119000000D01*
X171055786Y-120876181D01*
X171315000Y-120711999D01*
X171315000Y-121504341D01*
X171200104Y-121484501D01*
X171020499Y-121664106D01*
X170589605Y-122095000D01*
X170603747Y-122109142D01*
X170424142Y-122288747D01*
X170410000Y-122274605D01*
X170395857Y-122288747D01*
X170216252Y-122109142D01*
X170230395Y-122095000D01*
X170216252Y-122080857D01*
X170395857Y-121901252D01*
X170410000Y-121915395D01*
X171020499Y-121304896D01*
X170983352Y-121089783D01*
X170873544Y-121053149D01*
X169000000Y-119179605D01*
X167123819Y-121055786D01*
X167264235Y-121277479D01*
X167259501Y-121304896D01*
X167319780Y-121365175D01*
X167375111Y-121452533D01*
X167429360Y-121474755D01*
X167870000Y-121915395D01*
X167884142Y-121901252D01*
X168063747Y-122080857D01*
X168049605Y-122095000D01*
X168063747Y-122109142D01*
X167884142Y-122288747D01*
X167870000Y-122274605D01*
X167690395Y-122454210D01*
X167690395Y-122095000D01*
X167079896Y-121484501D01*
X166864783Y-121521648D01*
X166721888Y-121949972D01*
X166753783Y-122400375D01*
X166864783Y-122668352D01*
X167079896Y-122705499D01*
X167690395Y-122095000D01*
X167690395Y-122454210D01*
X167259501Y-122885104D01*
X167296648Y-123100217D01*
X167724972Y-123243112D01*
X168175375Y-123211217D01*
X168369286Y-123130896D01*
X168369286Y-126730000D01*
X183010714Y-126730000D01*
X183010714Y-122827346D01*
X183016334Y-122821726D01*
X183010714Y-122816106D01*
X183010714Y-122760000D01*
X182954608Y-122760000D01*
X182900106Y-122705498D01*
X183115217Y-122668352D01*
X183258112Y-122240028D01*
X183226217Y-121789625D01*
X183115217Y-121521648D01*
X182900104Y-121484501D01*
X182856181Y-121528424D01*
X182289605Y-122095000D01*
X182303747Y-122109142D01*
X182124142Y-122288747D01*
X182110000Y-122274605D01*
X182095857Y-122288747D01*
X181916252Y-122109142D01*
X181930395Y-122095000D01*
X181916252Y-122080857D01*
X182095857Y-121901252D01*
X182110000Y-121915395D01*
X182550215Y-121475179D01*
X182604889Y-121452533D01*
X182660219Y-121365175D01*
X182720499Y-121304896D01*
X182715764Y-121277479D01*
X182856181Y-121055786D01*
X180980000Y-119179605D01*
X179121564Y-121038040D01*
X178996648Y-121089783D01*
X178959501Y-121304896D01*
X179570000Y-121915395D01*
X179584142Y-121901252D01*
X179763747Y-122080857D01*
X179749605Y-122095000D01*
X179763747Y-122109142D01*
X179584142Y-122288747D01*
X179570000Y-122274605D01*
X179555857Y-122288747D01*
X179376252Y-122109142D01*
X179390395Y-122095000D01*
X178779896Y-121484501D01*
X178685000Y-121500888D01*
X178685000Y-120724667D01*
X178924214Y-120876181D01*
X180800395Y-119000000D01*
X178924214Y-117123819D01*
X178685000Y-117275332D01*
X178685000Y-116000000D01*
X178632857Y-115737862D01*
X178484368Y-115515632D01*
X178262138Y-115367143D01*
X178000000Y-115315000D01*
X177889713Y-115315000D01*
X178009908Y-115213663D01*
X178211659Y-114802774D01*
X178211133Y-114802045D01*
X178211659Y-114800974D01*
X178211659Y-114199026D01*
X178211133Y-114197954D01*
X178211659Y-114197226D01*
X178211659Y-107802774D01*
X178211133Y-107802045D01*
X178211659Y-107800974D01*
X178085494Y-107626100D01*
X176969540Y-107626100D01*
X176969540Y-107627900D01*
X176969540Y-108634100D01*
X176969540Y-108635900D01*
X177244540Y-108635900D01*
X177669218Y-108500902D01*
X178009908Y-108213663D01*
X178211659Y-107802774D01*
X178211659Y-114197226D01*
X178009908Y-113786337D01*
X177669218Y-113499098D01*
X177244540Y-113364100D01*
X176969540Y-113364100D01*
X176969540Y-113365900D01*
X176969540Y-114372100D01*
X176969540Y-114373900D01*
X178085494Y-114373900D01*
X178211659Y-114199026D01*
X178211659Y-114800974D01*
X178085494Y-114626100D01*
X176969540Y-114626100D01*
X176969540Y-114627900D01*
X176969540Y-114646100D01*
X176715540Y-114646100D01*
X176715540Y-114627900D01*
X176715540Y-114626100D01*
X176695540Y-114626100D01*
X176695540Y-114373900D01*
X176715540Y-114373900D01*
X176715540Y-114372100D01*
X176715540Y-113365900D01*
X176715540Y-113364100D01*
X176685000Y-113364100D01*
X176685000Y-108635900D01*
X176715540Y-108635900D01*
X176715540Y-108634100D01*
X176715540Y-107627900D01*
X176715540Y-107626100D01*
X176695540Y-107626100D01*
X176695540Y-107373900D01*
X176715540Y-107373900D01*
X176715540Y-107372100D01*
X176715540Y-107353900D01*
X176969540Y-107353900D01*
X176969540Y-107372100D01*
X176969540Y-107373900D01*
X178085494Y-107373900D01*
X178211659Y-107199026D01*
X178211133Y-107197954D01*
X178211659Y-107197226D01*
X178009908Y-106786337D01*
X177889713Y-106685000D01*
X178000000Y-106685000D01*
X178262138Y-106632857D01*
X178484368Y-106484368D01*
X178632857Y-106262138D01*
X178685000Y-106000000D01*
X178685000Y-104785184D01*
X179343396Y-105444731D01*
X180403533Y-105884938D01*
X180959020Y-105885422D01*
X180955616Y-106259567D01*
X180582977Y-106735311D01*
X180531845Y-106836442D01*
X180468890Y-106930662D01*
X180458954Y-106980610D01*
X180435974Y-107026063D01*
X180427436Y-107139061D01*
X180405329Y-107250202D01*
X180415264Y-107300153D01*
X180411428Y-107350937D01*
X180446782Y-107458600D01*
X180468890Y-107569742D01*
X180497184Y-107612087D01*
X180513074Y-107660476D01*
X180522618Y-107671581D01*
X180519694Y-107838939D01*
X180502108Y-107788051D01*
X180214361Y-107463548D01*
X179840478Y-107279832D01*
X179669540Y-107406366D01*
X179669540Y-107408166D01*
X179669540Y-108372100D01*
X179669540Y-108373900D01*
X179689540Y-108373900D01*
X179689540Y-108626100D01*
X179669540Y-108626100D01*
X179669540Y-108627900D01*
X179669540Y-108646100D01*
X179415540Y-108646100D01*
X179415540Y-108627900D01*
X179415540Y-108626100D01*
X179415540Y-108373900D01*
X179415540Y-108372100D01*
X179415540Y-107408166D01*
X179415540Y-107406366D01*
X179244602Y-107279832D01*
X178870719Y-107463548D01*
X178582972Y-107788051D01*
X178441311Y-108197969D01*
X178441753Y-108198487D01*
X178441311Y-108199769D01*
X178589977Y-108373900D01*
X179415540Y-108373900D01*
X179415540Y-108626100D01*
X178589977Y-108626100D01*
X178441311Y-108800231D01*
X178441753Y-108801512D01*
X178441311Y-108802031D01*
X178499629Y-108970785D01*
X178329213Y-109141201D01*
X178232540Y-109374590D01*
X178232540Y-109442150D01*
X178391290Y-109600900D01*
X178548596Y-109600900D01*
X178412613Y-109690227D01*
X178270163Y-109901260D01*
X178264953Y-109927236D01*
X178232540Y-109959650D01*
X178232540Y-110027210D01*
X178240871Y-110047323D01*
X178220100Y-110150900D01*
X178220100Y-110550900D01*
X178244753Y-110677965D01*
X178220100Y-110800900D01*
X178220100Y-111200900D01*
X178244753Y-111327965D01*
X178220100Y-111450900D01*
X178220100Y-111850900D01*
X178244753Y-111977965D01*
X178220100Y-112100900D01*
X178220100Y-112500900D01*
X178267077Y-112743023D01*
X178406867Y-112955827D01*
X178502648Y-113020480D01*
X178441311Y-113197969D01*
X178441753Y-113198487D01*
X178441311Y-113199769D01*
X178589977Y-113373900D01*
X179415540Y-113373900D01*
X179415540Y-113372100D01*
X179415540Y-113353900D01*
X179669540Y-113353900D01*
X179669540Y-113372100D01*
X179669540Y-113373900D01*
X180495103Y-113373900D01*
X180643769Y-113199769D01*
X180643326Y-113198487D01*
X180643769Y-113197969D01*
X180622318Y-113135900D01*
X181100000Y-113135900D01*
X181419540Y-113072339D01*
X181419541Y-113072339D01*
X181690434Y-112891334D01*
X181870434Y-112711334D01*
X181935463Y-112614010D01*
X182010956Y-112524545D01*
X182679915Y-111313132D01*
X182565420Y-111667010D01*
X182565420Y-111968000D01*
X183523000Y-111968000D01*
X183523000Y-110876932D01*
X183356065Y-110750019D01*
X182972889Y-110937294D01*
X182730057Y-111222330D01*
X183496979Y-109833519D01*
X183886782Y-109833859D01*
X184437780Y-109606192D01*
X184859710Y-109184997D01*
X185088339Y-108634398D01*
X185088859Y-108038218D01*
X184861192Y-107487220D01*
X184439997Y-107065290D01*
X184439069Y-107064904D01*
X184859710Y-106644997D01*
X185088339Y-106094398D01*
X185088859Y-105498218D01*
X185072423Y-105458440D01*
X185353600Y-105458440D01*
X185595723Y-105411463D01*
X185808527Y-105271673D01*
X185950977Y-105060640D01*
X185969483Y-104968354D01*
X186127964Y-105145732D01*
X186655209Y-105399709D01*
X186670974Y-105402358D01*
X186903000Y-105281217D01*
X186903000Y-103922000D01*
X186883000Y-103922000D01*
X186883000Y-103668000D01*
X186903000Y-103668000D01*
X186903000Y-103648000D01*
X187157000Y-103648000D01*
X187157000Y-103668000D01*
X187177000Y-103668000D01*
X187177000Y-103922000D01*
X187157000Y-103922000D01*
X187157000Y-105281217D01*
X187389026Y-105402358D01*
X187404791Y-105399709D01*
X187932036Y-105145732D01*
X188303539Y-104729930D01*
X188500801Y-105025154D01*
X188120290Y-105405003D01*
X187891661Y-105955602D01*
X187891141Y-106551782D01*
X188118808Y-107102780D01*
X188540003Y-107524710D01*
X188540930Y-107525095D01*
X188120290Y-107945003D01*
X187891661Y-108495602D01*
X187891141Y-109091782D01*
X188118808Y-109642780D01*
X188540003Y-110064710D01*
X188853867Y-110195038D01*
X188542220Y-110323808D01*
X188120290Y-110745003D01*
X187891661Y-111295602D01*
X187891141Y-111891782D01*
X188118808Y-112442780D01*
X188540003Y-112864710D01*
X188832909Y-112986335D01*
X188742220Y-113023808D01*
X188560051Y-113205658D01*
X188379997Y-113025290D01*
X187829398Y-112796661D01*
X187233218Y-112796141D01*
X187197444Y-112810922D01*
X187274580Y-112423135D01*
X187274580Y-111766865D01*
X187192021Y-111351814D01*
X186956914Y-110999951D01*
X186605051Y-110764844D01*
X186190000Y-110682285D01*
X185774949Y-110764844D01*
X185555000Y-110911809D01*
X185335051Y-110764844D01*
X184920000Y-110682285D01*
X184504949Y-110764844D01*
X184280761Y-110914641D01*
X183943935Y-110750019D01*
X183777000Y-110876932D01*
X183777000Y-111968000D01*
X183797000Y-111968000D01*
X183797000Y-112222000D01*
X183777000Y-112222000D01*
X183777000Y-113313068D01*
X183819833Y-113345632D01*
X183720290Y-113445003D01*
X183523000Y-113920129D01*
X183523000Y-113313068D01*
X183523000Y-112222000D01*
X182565420Y-112222000D01*
X182565420Y-112522990D01*
X182696580Y-112928373D01*
X182972889Y-113252706D01*
X183356065Y-113439981D01*
X183523000Y-113313068D01*
X183523000Y-113920129D01*
X183491661Y-113995602D01*
X183491141Y-114591782D01*
X183718808Y-115142780D01*
X184140003Y-115564710D01*
X184537968Y-115729960D01*
X184472400Y-115729960D01*
X184230277Y-115776937D01*
X184017473Y-115916727D01*
X183875023Y-116127760D01*
X183824960Y-116377400D01*
X183824960Y-118322512D01*
X183432533Y-117375111D01*
X183035786Y-117123819D01*
X182856181Y-117303424D01*
X182856181Y-116944214D01*
X182604889Y-116547467D01*
X181542658Y-116112336D01*
X180643769Y-116115852D01*
X180643769Y-113802031D01*
X180643326Y-113801512D01*
X180643769Y-113800231D01*
X180495103Y-113626100D01*
X179669540Y-113626100D01*
X179669540Y-113627900D01*
X179669540Y-114591834D01*
X179669540Y-114593634D01*
X179840478Y-114720168D01*
X180214361Y-114536452D01*
X180502108Y-114211949D01*
X180643769Y-113802031D01*
X180643769Y-116115852D01*
X180394767Y-116116827D01*
X179415540Y-116522436D01*
X179415540Y-114593634D01*
X179415540Y-114591834D01*
X179415540Y-113627900D01*
X179415540Y-113626100D01*
X178589977Y-113626100D01*
X178441311Y-113800231D01*
X178441753Y-113801512D01*
X178441311Y-113802031D01*
X178582972Y-114211949D01*
X178870719Y-114536452D01*
X179244602Y-114720168D01*
X179415540Y-114593634D01*
X179415540Y-116522436D01*
X179355111Y-116547467D01*
X179103819Y-116944214D01*
X180980000Y-118820395D01*
X182856181Y-116944214D01*
X182856181Y-117303424D01*
X181159605Y-119000000D01*
X183035786Y-120876181D01*
X183432533Y-120624889D01*
X183867664Y-119562658D01*
X183864749Y-118817677D01*
X183871937Y-118854723D01*
X184011727Y-119067527D01*
X184222760Y-119209977D01*
X184472400Y-119260040D01*
X186174172Y-119260040D01*
X188299566Y-121385434D01*
X188509084Y-121525430D01*
X188367143Y-121737862D01*
X188319509Y-121977330D01*
X188306217Y-121789625D01*
X188195217Y-121521648D01*
X187980104Y-121484501D01*
X187800499Y-121664106D01*
X187800499Y-121304896D01*
X187763352Y-121089783D01*
X187335028Y-120946888D01*
X186884625Y-120978783D01*
X186616648Y-121089783D01*
X186579501Y-121304896D01*
X187190000Y-121915395D01*
X187800499Y-121304896D01*
X187800499Y-121664106D01*
X187369605Y-122095000D01*
X187980104Y-122705499D01*
X188195217Y-122668352D01*
X188315000Y-122309305D01*
X188315000Y-127469408D01*
X188295217Y-127421648D01*
X188080104Y-127384501D01*
X187900499Y-127564106D01*
X187900499Y-127204896D01*
X187863352Y-126989783D01*
X187800499Y-126968814D01*
X187800499Y-122885104D01*
X187190000Y-122274605D01*
X187010395Y-122454210D01*
X187010395Y-122095000D01*
X186399896Y-121484501D01*
X186184783Y-121521648D01*
X186041888Y-121949972D01*
X186073783Y-122400375D01*
X186184783Y-122668352D01*
X186399896Y-122705499D01*
X187010395Y-122095000D01*
X187010395Y-122454210D01*
X186579501Y-122885104D01*
X186616648Y-123100217D01*
X187044972Y-123243112D01*
X187495375Y-123211217D01*
X187763352Y-123100217D01*
X187800499Y-122885104D01*
X187800499Y-126968814D01*
X187435028Y-126846888D01*
X186984625Y-126878783D01*
X186716648Y-126989783D01*
X186679501Y-127204896D01*
X187290000Y-127815395D01*
X187900499Y-127204896D01*
X187900499Y-127564106D01*
X187469605Y-127995000D01*
X188080104Y-128605499D01*
X188295217Y-128568352D01*
X188387306Y-128292315D01*
X188515632Y-128484368D01*
X188737862Y-128632857D01*
X189000000Y-128685000D01*
X199315000Y-128685000D01*
X199315000Y-142096400D01*
M02*
